<svg width="40" height="40" viewBox="0 0 40 40" fill="none" xmlns="http://www.w3.org/2000/svg">
<path d="M20 0C31.0457 0 40 8.95431 40 20C40 31.0457 31.0457 40 20 40C8.95431 40 0 31.0457 0 20C0 8.95431 8.95431 0 20 0ZM11.333 21.6641C10.8733 21.6642 10.5002 22.0374 10.5 22.4971V28.3311C10.5002 28.7908 10.8733 29.1639 11.333 29.1641H17.167C17.6267 29.1639 17.9998 28.7908 18 28.3311V22.4971C17.9998 22.0374 17.6267 21.6642 17.167 21.6641H11.333ZM22.1611 21.6641C21.7014 21.6642 21.3284 22.0374 21.3281 22.4971V28.3311C21.3283 28.7908 21.7014 29.1639 22.1611 29.1641H27.9951C28.4549 29.1639 28.8279 28.7908 28.8281 28.3311V22.4971C28.8279 22.0374 28.4548 21.6642 27.9951 21.6641H22.1611ZM11.333 10.8281C10.8734 10.8283 10.5003 11.2015 10.5 11.6611V17.4951C10.5001 17.9549 10.8732 18.3279 11.333 18.3281H17.167C17.6268 18.3279 17.9999 17.9549 18 17.4951V11.6611C17.9997 11.2015 17.6266 10.8283 17.167 10.8281H11.333ZM28.5898 11.0723C28.2641 10.7466 27.737 10.7467 27.4111 11.0723L23 15.4834L21.9229 14.4062C21.597 14.0805 21.07 14.0805 20.7441 14.4062C20.4187 14.732 20.4187 15.2582 20.7441 15.584L22.4111 17.251C22.5736 17.4134 22.7868 17.4951 23 17.4951C23.2133 17.4951 23.4273 17.4135 23.5898 17.251L28.5898 12.251C28.9154 11.9251 28.9155 11.398 28.5898 11.0723Z" fill="url(#paint0_linear_57705_5872)"/>
<defs>
<linearGradient id="paint0_linear_57705_5872" x1="20" y1="0" x2="20" y2="40" gradientUnits="userSpaceOnUse">
<stop stop-color="white"/>
<stop offset="1" stop-color="white" stop-opacity="0.6"/>
</linearGradient>
</defs>
</svg>
