<svg width="40" height="40" viewBox="0 0 40 40" fill="none" xmlns="http://www.w3.org/2000/svg">
<path d="M20 0C31.0457 0 40 8.95431 40 20C40 31.0457 31.0457 40 20 40C8.95431 40 0 31.0457 0 20C0 8.95431 8.95431 0 20 0ZM10.5332 23.8018C10.4687 23.838 10.4143 23.8903 10.377 23.9541C10.3396 24.018 10.3203 24.091 10.3203 24.165C10.3203 24.2388 10.3398 24.3113 10.377 24.375C10.4143 24.4389 10.4687 24.4921 10.5332 24.5283L20.1162 29.9453C20.1787 29.9806 20.2495 29.999 20.3213 29.999C20.3931 29.999 20.4639 29.9806 20.5264 29.9453L30.1094 24.5283C30.1739 24.4921 30.2282 24.4389 30.2656 24.375C30.3028 24.3113 30.3222 24.2388 30.3223 24.165C30.3223 24.091 30.303 24.018 30.2656 23.9541C30.2282 23.8903 30.1739 23.838 30.1094 23.8018L30.1152 23.8027L28.7656 23.04L21.3486 27.2295C21.036 27.4061 20.6833 27.499 20.3242 27.499C19.9652 27.499 19.6124 27.4061 19.2998 27.2295L11.8828 23.0391L10.5332 23.8018ZM10.5332 19.6377C10.4687 19.6739 10.4143 19.7262 10.377 19.79C10.3396 19.8539 10.3203 19.927 10.3203 20.001C10.3203 20.0747 10.3398 20.1472 10.377 20.2109C10.4143 20.2748 10.4687 20.328 10.5332 20.3643L20.1162 25.7812C20.1787 25.8166 20.2495 25.835 20.3213 25.835C20.3931 25.835 20.4639 25.8165 20.5264 25.7812L30.1094 20.3643C30.1739 20.328 30.2282 20.2748 30.2656 20.2109C30.3028 20.1472 30.3222 20.0748 30.3223 20.001C30.3223 19.927 30.303 19.8539 30.2656 19.79C30.2282 19.7262 30.1739 19.6739 30.1094 19.6377L30.1152 19.6387L28.7656 18.876L21.3486 23.0654C21.036 23.242 20.6833 23.335 20.3242 23.335C19.9652 23.335 19.6124 23.242 19.2998 23.0654L11.8828 18.875L10.5332 19.6377ZM20.3291 10C20.2574 10 20.1867 10.018 20.124 10.0527L10.541 15.4697C10.4766 15.5059 10.4221 15.5583 10.3848 15.6221C10.3474 15.6859 10.3281 15.759 10.3281 15.833C10.3281 15.907 10.3474 15.9801 10.3848 16.0439C10.4221 16.1078 10.4765 16.1601 10.541 16.1963L20.124 21.6133C20.1865 21.6486 20.2573 21.667 20.3291 21.667C20.4009 21.667 20.4717 21.6486 20.5342 21.6133L30.1172 16.1963C30.1817 16.1601 30.2361 16.1077 30.2734 16.0439C30.3108 15.9801 30.3301 15.907 30.3301 15.833C30.3301 15.759 30.3108 15.6859 30.2734 15.6221C30.2361 15.5583 30.1816 15.5059 30.1172 15.4697L20.5342 10.0527C20.4715 10.018 20.4008 10 20.3291 10Z" fill="url(#paint0_linear_57705_5847)"/>
<defs>
<linearGradient id="paint0_linear_57705_5847" x1="20" y1="0" x2="20" y2="40" gradientUnits="userSpaceOnUse">
<stop stop-color="white"/>
<stop offset="1" stop-color="white" stop-opacity="0.6"/>
</linearGradient>
</defs>
</svg>
