<svg width="40" height="40" viewBox="0 0 40 40" fill="none" xmlns="http://www.w3.org/2000/svg">
<path d="M20 0C31.0457 0 40 8.95431 40 20C40 31.0457 31.0457 40 20 40C8.95431 40 0 31.0457 0 20C0 8.95431 8.95431 0 20 0ZM12.9414 24.7812C12.6435 24.7818 12.3482 24.8413 12.0732 24.9561C11.7984 25.0708 11.5487 25.2389 11.3389 25.4502C10.4552 26.3322 10.4531 29.5399 10.4531 29.5537C10.4542 29.5537 13.6555 29.5352 14.54 28.6514C14.7514 28.4414 14.9195 28.191 15.0342 27.916C15.1488 27.6412 15.2085 27.3466 15.209 27.0488C15.2095 26.751 15.1508 26.4559 15.0371 26.1807C14.9234 25.9054 14.7565 25.655 14.5459 25.4443C14.3353 25.2337 14.0849 25.0669 13.8096 24.9531C13.5343 24.8394 13.2393 24.7808 12.9414 24.7812ZM27.6953 21.3125C26.094 23.5597 24.0689 25.4723 21.7344 26.9434L23.3184 28.5273C23.4429 28.6519 23.6055 28.7315 23.7803 28.7539C23.9552 28.7762 24.1331 28.7399 24.2852 28.6504C24.8068 28.3446 25.2882 27.9744 25.7178 27.5488C26.5237 26.7444 27.1246 25.7573 27.4688 24.6719C27.8128 23.5865 27.8905 22.4342 27.6953 21.3125ZM28.6221 10.5557C17.4619 11.138 13.3356 21.0752 13.292 21.1846C13.2338 21.3292 13.2189 21.4879 13.25 21.6406C13.2811 21.7933 13.3568 21.9336 13.4668 22.0439L17.9697 26.5469C18.0805 26.6575 18.2215 26.7328 18.375 26.7637C18.5285 26.7945 18.6881 26.7799 18.833 26.7207C18.9335 26.6797 28.825 22.5086 29.457 11.3965C29.4634 11.2849 29.4469 11.1728 29.4072 11.0684C29.3676 10.964 29.3062 10.8693 29.2275 10.79C29.1487 10.7107 29.0536 10.6487 28.9492 10.6084C28.845 10.5682 28.7336 10.55 28.6221 10.5557ZM20.9932 16.9404C21.284 16.8201 21.6044 16.7892 21.9131 16.8506C22.2217 16.9121 22.505 17.0636 22.7275 17.2861C23.026 17.5846 23.1943 17.99 23.1943 18.4121C23.1942 18.834 23.0258 19.2387 22.7275 19.5371C22.505 19.7596 22.2217 19.9112 21.9131 19.9727C21.6044 20.0341 21.284 20.0032 20.9932 19.8828C20.7023 19.7623 20.4533 19.5577 20.2783 19.2959C20.1036 19.0343 20.0099 18.7267 20.0098 18.4121C20.0098 18.0973 20.1035 17.7891 20.2783 17.5273C20.4533 17.2656 20.7023 17.0609 20.9932 16.9404ZM18.6982 12.3164C17.5764 12.1212 16.4233 12.1988 15.3379 12.543C14.2527 12.8871 13.2662 13.4872 12.4619 14.293C12.0363 14.7225 11.6661 15.2039 11.3604 15.7256C11.2708 15.8776 11.2345 16.0554 11.2568 16.2305C11.2792 16.4053 11.3587 16.5677 11.4834 16.6924L13.0664 18.2764C14.5375 15.9418 16.451 13.9177 18.6982 12.3164Z" fill="url(#paint0_linear_57705_5859)"/>
<defs>
<linearGradient id="paint0_linear_57705_5859" x1="20" y1="0" x2="20" y2="40" gradientUnits="userSpaceOnUse">
<stop stop-color="white"/>
<stop offset="1" stop-color="white" stop-opacity="0.6"/>
</linearGradient>
</defs>
</svg>
