<svg width="40" height="40" viewBox="0 0 40 40" fill="none" xmlns="http://www.w3.org/2000/svg">
<path d="M20 0C31.0457 0 40 8.9543 40 20C40 31.0457 31.0457 40 20 40C8.9543 40 0 31.0457 0 20C0 8.9543 8.9543 0 20 0ZM10.7402 24.2178C10.2756 24.2178 9.89851 24.5941 9.89844 25.0596V28.4268C9.89844 28.8923 10.2756 29.2686 10.7402 29.2686H14.1074C14.5721 29.2686 14.9492 28.8923 14.9492 28.4268V25.0596C14.9491 24.5941 14.5721 24.2178 14.1074 24.2178H10.7402ZM18.3164 24.2178C17.8518 24.2178 17.4747 24.5941 17.4746 25.0596V28.4268C17.4746 28.8923 17.8517 29.2686 18.3164 29.2686H21.6836C22.1482 29.2685 22.5254 28.8922 22.5254 28.4268V25.0596C22.5253 24.5941 22.1482 24.2178 21.6836 24.2178H18.3164ZM25.8926 24.2178C25.428 24.2178 25.0509 24.5942 25.0508 25.0596V28.4268C25.0508 28.8922 25.428 29.2685 25.8926 29.2686H29.2598C29.7244 29.2686 30.1016 28.8923 30.1016 28.4268V25.0596C30.1015 24.5941 29.7244 24.2178 29.2598 24.2178H25.8926ZM19.1582 18.3252H12.4238C11.9592 18.3252 11.5821 18.7015 11.582 19.167V22.5342H13.2656V20.0088H19.1582V22.5342H20.8418V20.0088H26.7344V22.5342H28.418V19.167C28.4179 18.7015 28.0408 18.3252 27.5762 18.3252H20.8418V15.7998H19.1582V18.3252ZM18.3164 9.06543C17.8517 9.06543 17.4746 9.44171 17.4746 9.90723V13.2744C17.4746 13.7399 17.8517 14.1162 18.3164 14.1162H21.6836C22.1482 14.1162 22.5254 13.7399 22.5254 13.2744V9.90723C22.5254 9.44174 22.1482 9.06547 21.6836 9.06543H18.3164Z" fill="url(#paint0_linear_40784_69724)"/>
<defs>
<linearGradient id="paint0_linear_40784_69724" x1="20" y1="0" x2="20" y2="40" gradientUnits="userSpaceOnUse">
<stop stop-color="white"/>
<stop offset="1" stop-color="white" stop-opacity="0.6"/>
</linearGradient>
</defs>
</svg>
