<svg width="32" height="32" viewBox="0 0 32 32" fill="none" xmlns="http://www.w3.org/2000/svg">
<rect width="32" height="32" fill="#131313"/>
<g id="web-chat-builder-template (Webflow)">
<path d="M-456 -1526C-456 -1527.1 -455.105 -1528 -454 -1528H1622C1623.1 -1528 1624 -1527.1 1624 -1526V3781C1624 3782.1 1623.1 3783 1622 3783H-456V-1526Z" fill="#22242A"/>
<path d="M-456 3783H-457V3784H-456V3783ZM-454 -1528V-1527H1622V-1528V-1529H-454V-1528ZM1624 -1526H1623V3781H1624H1625V-1526H1624ZM1622 3783V3782H-456V3783V3784H1622V3783ZM-456 3783H-455V-1526H-456H-457V3783H-456ZM1624 3781H1623C1623 3781.55 1622.55 3782 1622 3782V3783V3784C1623.66 3784 1625 3782.66 1625 3781H1624ZM1622 -1528V-1527C1622.55 -1527 1623 -1526.55 1623 -1526H1624H1625C1625 -1527.66 1623.66 -1529 1622 -1529V-1528ZM-454 -1528V-1529C-455.657 -1529 -457 -1527.66 -457 -1526H-456H-455C-455 -1526.55 -454.552 -1527 -454 -1527V-1528Z" fill="white" fill-opacity="0.1"/>
<g id="web-chat-builder-template (Webflow)_2">
<rect width="1920" height="5151" transform="translate(-376 -1448)" fill="black"/>
<g id="section">
<g id="fetures">
<g id="row">
<g id="feature-card">
<rect x="-24" y="-24" width="394.667" height="188" rx="12" fill="#101114"/>
<g id="content">
<g id="Frame">
<g id="Group">
<path id="Vector" d="M14.7109 27.3312C15.9336 27.7579 17.2643 28.0005 18.6616 28.0005C19.9296 28.0005 21.1403 27.7965 22.2669 27.4419L29.3283 29.3339L27.7683 23.5099C28.6203 22.2859 29.1416 20.8752 29.2723 19.3672" stroke="white" stroke-width="2" stroke-linecap="square" stroke-linejoin="round"/>
<path id="Vector_2" d="M14.6641 1.33594C8.03606 1.33594 2.66406 6.11194 2.66406 12.0026C2.66406 14.0319 3.3134 15.9226 4.42006 17.5373L2.66406 24.0906L10.4907 21.9933C11.7921 22.4226 13.1947 22.6693 14.6641 22.6693C21.2921 22.6693 26.6641 17.8933 26.6641 12.0026C26.6641 6.11194 21.2921 1.33594 14.6641 1.33594Z" stroke="white" stroke-width="2" stroke-linecap="square" stroke-linejoin="round"/>
</g>
</g>
</g>
</g>
</g>
</g>
</g>
</g>
</g>
</svg>
