<svg width="50" height="64" viewBox="0 0 50 64" fill="none" xmlns="http://www.w3.org/2000/svg">
<path d="M25.7305 0.791016C32.0487 6.5103 40.4372 6.50068 47.4326 6.49219C47.6996 6.49187 47.9648 6.49121 48.2275 6.49121H49.6025V34.3408C49.6024 44.7865 43.3169 52.1966 37.3408 56.8887C34.3304 59.2523 31.3292 60.9848 29.085 62.125C27.7039 62.8266 26.2982 63.4654 24.8564 64C23.4145 63.4653 22.0081 62.8267 20.627 62.125C18.3827 60.9848 15.3814 59.2523 12.3711 56.8887C6.39501 52.1966 0.109481 44.7865 0.109375 34.3408V6.49121H1.48438C1.74719 6.49121 2.01222 6.49187 2.2793 6.49219C9.27473 6.50068 17.6642 6.51049 23.9824 0.791016L24.8564 0L25.7305 0.791016ZM13.4814 33.2607C12.9855 33.2608 12.5415 33.3481 12.1494 33.5234C11.7572 33.6965 11.4472 33.9401 11.2188 34.2539C10.9927 34.5676 10.8789 34.9331 10.8789 35.3506C10.8789 35.8582 11.0479 36.2654 11.3848 36.5723C11.7239 36.8767 12.185 37.1039 12.7686 37.2539L13.5752 37.4619C13.8288 37.5265 14.0501 37.6006 14.2393 37.6836C14.4308 37.7643 14.5804 37.866 14.6865 37.9883C14.7925 38.1082 14.8463 38.2609 14.8486 38.4453C14.8462 38.6482 14.7849 38.8254 14.665 38.9775C14.5451 39.1275 14.3793 39.2457 14.167 39.3311C13.9571 39.4141 13.7126 39.4551 13.4336 39.4551C13.1659 39.4551 12.9229 39.4147 12.7061 39.334C12.4917 39.2532 12.3173 39.1315 12.1836 38.9678C12.0498 38.804 11.9735 38.5984 11.9551 38.3516H10.6924C10.7109 38.8222 10.8335 39.2212 11.0596 39.5488C11.288 39.8764 11.6041 40.1262 12.0078 40.2969C12.4137 40.4674 12.8923 40.5527 13.4434 40.5527C14.0108 40.5527 14.4945 40.4653 14.8936 40.29C15.2949 40.1124 15.6022 39.8664 15.8145 39.5527C16.0267 39.2366 16.1328 38.8704 16.1328 38.4551C16.1328 38.1483 16.0753 37.8807 15.96 37.6523C15.8446 37.4239 15.6877 37.2289 15.4893 37.0674C15.2932 36.9059 15.0704 36.7721 14.8213 36.666C14.5745 36.5599 14.3173 36.4754 14.0498 36.4131L13.3848 36.2471C13.2395 36.2125 13.0952 36.1699 12.9521 36.1191C12.8093 36.0684 12.6791 36.0063 12.5615 35.9326C12.4439 35.8565 12.3505 35.7637 12.2812 35.6553C12.2144 35.5469 12.1807 35.419 12.1807 35.2715C12.183 35.0938 12.2344 34.9353 12.3359 34.7969C12.4374 34.6586 12.5841 34.5495 12.7754 34.4688C12.9669 34.388 13.1972 34.3467 13.4648 34.3467C13.8452 34.3467 14.1541 34.4314 14.3916 34.5996C14.6315 34.768 14.7685 35.0035 14.8008 35.3057H16.0361C16.0292 34.9066 15.917 34.5539 15.7002 34.2471C15.4833 33.9379 15.1844 33.6965 14.8037 33.5234C14.4253 33.3481 13.9844 33.2607 13.4814 33.2607ZM20.1592 33.2607C19.5386 33.2608 18.9826 33.405 18.4912 33.6934C18.0021 33.9818 17.6142 34.3979 17.3281 34.9424C17.0443 35.4846 16.9023 36.1377 16.9023 36.9014C16.9023 37.6628 17.0443 38.3158 17.3281 38.8604C17.6142 39.4025 18.0021 39.8187 18.4912 40.1094C18.9826 40.3978 19.5386 40.542 20.1592 40.542C20.7798 40.542 21.3351 40.3978 21.8242 40.1094C22.3156 39.821 22.7035 39.4054 22.9873 38.8633C23.2732 38.3189 23.416 37.6649 23.416 36.9014C23.416 36.1377 23.2734 35.4846 22.9873 34.9424C22.7036 34.3979 22.3156 33.9818 21.8242 33.6934C21.3351 33.4049 20.7798 33.2607 20.1592 33.2607ZM27.502 33.2607C26.8836 33.2607 26.329 33.4049 25.8398 33.6934C25.3509 33.9818 24.9644 34.398 24.6807 34.9424C24.3969 35.4846 24.2549 36.1377 24.2549 36.9014C24.2549 37.6628 24.3963 38.3158 24.6777 38.8604C24.9591 39.4046 25.3441 39.821 25.833 40.1094C26.3222 40.3978 26.879 40.542 27.502 40.542C27.924 40.5419 28.3083 40.48 28.6543 40.3555C29.0003 40.2286 29.3022 40.0528 29.5605 39.8291C29.819 39.603 30.0283 39.3422 30.1875 39.0469C30.3489 38.7516 30.4535 38.4354 30.502 38.0986L29.208 38.0918C29.1688 38.2994 29.097 38.484 28.9932 38.6455C28.8917 38.8069 28.766 38.943 28.6162 39.0537C28.4686 39.1644 28.3011 39.249 28.1143 39.3066C27.9297 39.362 27.7308 39.3896 27.5186 39.3896C27.1357 39.3896 26.7956 39.2962 26.498 39.1094C26.2027 38.9202 25.9696 38.6407 25.7988 38.2715C25.6305 37.9001 25.5459 37.4434 25.5459 36.9014C25.5459 36.3684 25.6304 35.917 25.7988 35.5479C25.9672 35.1765 26.2005 34.8956 26.498 34.7041C26.7957 34.5103 27.1371 34.4131 27.5225 34.4131C27.7393 34.4131 27.9411 34.443 28.1279 34.5029C28.3171 34.5606 28.4852 34.6474 28.6328 34.7627C28.7805 34.8781 28.9047 35.0184 29.0039 35.1846C29.1031 35.3484 29.1711 35.5368 29.208 35.749H30.502C30.4489 35.3545 30.3361 35.0032 30.1631 34.6963C29.9924 34.3872 29.774 34.1263 29.5088 33.9141C29.2436 33.6997 28.9414 33.5375 28.6025 33.4268C28.2635 33.316 27.8963 33.2608 27.502 33.2607ZM35.9971 33.2607C35.5287 33.2607 35.1132 33.3519 34.751 33.5342C34.3911 33.7164 34.1087 33.9735 33.9033 34.3057C33.698 34.6378 33.5948 35.0287 33.5947 35.4785H34.8164C34.8165 35.2365 34.8636 35.0278 34.958 34.8525C35.0549 34.6772 35.1918 34.5419 35.3672 34.4473C35.5425 34.3505 35.7466 34.3018 35.9795 34.3018C36.2055 34.3018 36.4073 34.346 36.585 34.4336C36.7626 34.5213 36.9024 34.6461 37.0039 34.8076C37.1054 34.9668 37.1562 35.1581 37.1562 35.3818C37.1562 35.578 37.1165 35.7625 37.0381 35.9355C36.9597 36.1085 36.8423 36.2872 36.6855 36.4717C36.5287 36.6563 36.332 36.8678 36.0967 37.1055L33.6367 39.5176V40.4453H38.4951V39.3721H35.4082V39.3242L36.6299 38.0811C37.0888 37.6383 37.4455 37.2616 37.6992 36.9502C37.9553 36.6387 38.1348 36.3547 38.2363 36.0986C38.3378 35.8426 38.3886 35.5817 38.3887 35.3164C38.3887 34.9196 38.2876 34.566 38.0869 34.2568C37.8886 33.948 37.6096 33.7049 37.25 33.5273C36.8901 33.3497 36.4722 33.2608 35.9971 33.2607ZM20.1592 34.4131C20.5445 34.4131 20.8853 34.5087 21.1807 34.7002C21.4759 34.8894 21.707 35.1696 21.873 35.541C22.0415 35.9102 22.125 36.3638 22.125 36.9014C22.125 37.4387 22.0413 37.8933 21.873 38.2646C21.707 38.6336 21.4758 38.914 21.1807 39.1055C20.8853 39.2947 20.5445 39.3896 20.1592 39.3896C19.774 39.3896 19.4339 39.2946 19.1387 39.1055C18.8434 38.914 18.6108 38.6338 18.4424 38.2646C18.2764 37.8933 18.1934 37.4388 18.1934 36.9014C18.1934 36.3638 18.2763 35.9102 18.4424 35.541C18.6108 35.1695 18.8433 34.8894 19.1387 34.7002C19.4339 34.5088 19.774 34.4131 20.1592 34.4131ZM8.82812 29.6719V30.2812H39.8936V29.6719H8.82812ZM23.0996 19.8779C22.4813 19.8779 21.9276 20.0221 21.4385 20.3105C20.9494 20.5989 20.5631 21.0152 20.2793 21.5596C19.9955 22.1018 19.8535 22.7548 19.8535 23.5186C19.8535 24.2799 19.9939 24.933 20.2754 25.4775C20.5569 26.022 20.9425 26.4382 21.4316 26.7266C21.9208 27.015 22.4767 27.1592 23.0996 27.1592C23.5218 27.1592 23.9059 27.0972 24.252 26.9727C24.598 26.8458 24.9008 26.6701 25.1592 26.4463C25.4175 26.2202 25.626 25.9593 25.7852 25.6641C25.9466 25.3688 26.0521 25.0526 26.1006 24.7158L24.8057 24.709C24.7664 24.9166 24.6946 25.1012 24.5908 25.2627C24.4893 25.4241 24.3638 25.5602 24.2139 25.6709C24.0662 25.7816 23.8988 25.8661 23.7119 25.9238C23.5275 25.9791 23.3293 26.0068 23.1172 26.0068C22.7342 26.0068 22.3933 25.9135 22.0957 25.7266C21.8004 25.5374 21.5672 25.2578 21.3965 24.8887C21.2282 24.5173 21.1445 24.0605 21.1445 23.5186C21.1445 22.9856 21.2281 22.5342 21.3965 22.165C21.5648 21.7938 21.7983 21.5128 22.0957 21.3213C22.3933 21.1275 22.7349 21.0303 23.1201 21.0303C23.3369 21.0303 23.5388 21.0602 23.7256 21.1201C23.9148 21.1778 24.0838 21.2645 24.2314 21.3799C24.379 21.4952 24.5024 21.6358 24.6016 21.8018C24.7008 21.9656 24.7687 22.1539 24.8057 22.3662H26.1006C26.0475 21.9717 25.9338 21.6203 25.7607 21.3135C25.5901 21.0045 25.3726 20.7434 25.1074 20.5312C24.8421 20.3167 24.5393 20.1547 24.2002 20.0439C23.861 19.9332 23.4942 19.8779 23.0996 19.8779ZM10.2354 27.0625H11.6064L12.1924 25.3145H14.8574L15.4443 27.0625H16.8154L14.3164 19.9746H12.7314L10.2354 27.0625ZM17.5537 27.0625H18.8379V19.9746H17.5537V27.0625ZM27.0811 27.0625H28.3652V24.668H29.7217C30.2685 24.668 30.7288 24.5669 31.1025 24.3662C31.4763 24.1632 31.7587 23.8852 31.9502 23.5322C32.1417 23.1793 32.2382 22.7757 32.2383 22.3213C32.2383 21.8714 32.1417 21.4692 31.9502 21.1162C31.761 20.7611 31.4807 20.4822 31.1094 20.2793C30.7403 20.0763 30.2837 19.9746 29.7393 19.9746H27.0811V27.0625ZM31.9082 27.0625H33.2783L33.8643 25.3145H36.5293L37.1172 27.0625H38.4873L35.9883 19.9746H34.4033L31.9082 27.0625ZM14.5107 24.2832H12.5381L13.4961 21.4277H13.5518L14.5107 24.2832ZM36.1836 24.2832H34.21L35.168 21.4277H35.2236L36.1836 24.2832ZM29.542 21.0479C29.8625 21.0479 30.1242 21.1016 30.3271 21.21C30.5325 21.3161 30.6843 21.4648 30.7812 21.6562C30.8805 21.8478 30.9297 22.0698 30.9297 22.3213C30.9297 22.5727 30.8804 22.7955 30.7812 22.9893C30.6843 23.183 30.5341 23.3356 30.3311 23.4463C30.128 23.557 29.8672 23.6123 29.5488 23.6123H28.3652V21.0479H29.542Z" fill="url(#paint0_linear_57705_5977)"/>
<defs>
<linearGradient id="paint0_linear_57705_5977" x1="24.9749" y1="-6.77631" x2="24.9749" y2="63.995" gradientUnits="userSpaceOnUse">
<stop offset="0.175" stop-color="white"/>
<stop offset="1" stop-color="#211825" stop-opacity="0.8"/>
</linearGradient>
</defs>
</svg>
