<svg width="50" height="64" viewBox="0 0 50 64" fill="none" xmlns="http://www.w3.org/2000/svg">
<path d="M24.8633 0.000976562L49.7148 9.72266C49.7148 9.72266 49.7148 23.8286 49.7148 38.9609C49.7145 52.5823 28.8443 62.0982 24.8633 63.8145V63.8164L24.8613 63.8154L24.8594 63.8164V63.8145C20.8786 62.0983 0.00813808 52.5824 0.0078125 38.9609V9.72266L24.8594 0.000976562V0H24.8633V0.000976562ZM24.1797 48.2676H21.8516L23.7002 49.6367L23.0156 51.8281L24.8643 50.459L26.7812 51.8281L26.0967 49.6367L27.9453 48.2676H25.6172L24.8643 46.0078L24.1797 48.2676ZM16.1641 46.2773H13.8359L15.7529 47.6465L15 49.9062L16.917 48.5371L18.7656 49.9062L18.0811 47.6465L19.9297 46.2773H17.6016L16.917 44.0859L16.1641 46.2773ZM32.1934 46.2773H29.7969L31.7139 47.6465L31.0293 49.9062L32.8779 48.5371L34.7949 49.9062L34.042 47.6465L35.959 46.2773H33.6309L32.8779 44.0859L32.1934 46.2773ZM9.59375 41.5566H7.26562L9.11426 42.9258L8.42969 45.1172L10.2783 43.748L12.1953 45.1172L11.4424 42.9258L13.3594 41.5566H11.0312L10.2783 39.2969L9.59375 41.5566ZM38.7656 41.5566H36.4375L38.3545 42.9258L37.6016 45.1172L39.5186 43.748L41.3672 45.1172L40.6826 42.9258L42.5312 41.5566H40.2031L39.5186 39.2969L38.7656 41.5566ZM11.7188 25.875C11.2396 25.875 10.7603 25.9432 10.3496 26.0801C9.93895 26.217 9.52782 26.3543 9.18555 26.6279C8.84319 26.9018 8.56881 27.1762 8.29492 27.5186C8.02108 27.8609 7.81574 28.2035 7.61035 28.6143C7.40499 29.025 7.26768 29.4358 7.19922 29.915C7.13076 30.3258 7.06252 30.805 7.0625 31.2842C7.0625 31.6949 7.13077 32.1742 7.19922 32.585C7.26769 32.9958 7.33658 33.4075 7.54199 33.8184C7.74725 34.2289 7.88449 34.5709 8.1582 34.9131C8.3636 35.2554 8.70562 35.5983 8.97949 35.8037C9.25337 36.0091 9.66437 36.2146 10.0752 36.3516C10.5545 36.4885 10.9659 36.5566 11.5137 36.5566C11.9244 36.5566 12.4039 36.5567 12.7461 36.4883C13.1566 36.4199 13.4987 36.3516 13.7725 36.2832C14.0463 36.2147 14.3208 36.1457 14.5947 36.0088C14.8684 35.9403 15.1423 35.8038 15.3477 35.667H15.1426V31.4209H13.3623V34.9131C13.2254 34.9131 13.0881 34.9814 12.9512 34.9814C12.8142 34.9814 12.6086 35.0508 12.4717 35.0508C12.3347 35.1191 12.129 35.1191 11.9922 35.1191H11.582C11.0343 35.1191 10.6226 34.9818 10.2803 34.7764C9.86978 34.571 9.59595 34.2289 9.39062 33.8867C9.18521 33.5444 8.9796 33.0643 8.91113 32.585C8.84269 32.1058 8.77443 31.5583 8.77441 31.0107C8.77441 30.463 8.84255 29.9147 8.97949 29.5039C9.11644 29.0931 9.32195 28.6822 9.52734 28.3398C9.73275 27.9975 10.0073 27.7239 10.3496 27.5186C10.6919 27.3133 11.1029 27.2441 11.5137 27.2441C11.7873 27.2442 11.9929 27.3135 12.1982 27.3135C12.4036 27.3135 12.6091 27.3818 12.8145 27.4502C12.9514 27.5187 13.157 27.6551 13.3623 27.792C13.5677 27.9289 13.7731 28.1345 13.9785 28.3398L14.9365 27.0391C14.7312 26.9022 14.5256 26.7648 14.3887 26.6279C14.2519 26.4912 14.047 26.3546 13.9102 26.2861C13.7732 26.2177 13.5676 26.1485 13.4307 26.0801C13.2937 26.0116 13.1566 25.9434 12.9512 25.9434C12.8142 25.9434 12.6087 25.875 12.4033 25.875H11.7188ZM19.7334 26.084H17.0625V36.3545H19.5957C20.2803 36.3545 20.8283 36.2863 21.376 36.1494C21.9238 36.0125 22.3353 35.807 22.7461 35.6016C23.1566 35.3962 23.4987 35.1224 23.7725 34.7803C24.0463 34.438 24.2517 34.0953 24.457 33.6846C24.5939 33.2738 24.7313 32.7946 24.7998 32.3838C24.8683 31.973 24.9365 31.493 24.9365 31.0137C24.9365 30.3291 24.8685 29.7128 24.6631 29.0967C24.4577 28.4805 24.1832 28.0017 23.7725 27.5225C23.2933 27.0433 22.8143 26.7006 22.1299 26.4268C21.5137 26.1529 20.6918 26.0157 19.7334 26.0156V26.084ZM26.7812 26.0781V36.3486H28.5615V32.3096H29.3828C29.9991 32.3096 30.4788 32.3088 30.8896 32.1719C31.3004 32.0349 31.643 31.8978 31.9854 31.6924C32.3275 31.487 32.5329 31.2815 32.7383 31.0762C32.9436 30.8708 33.0809 30.6654 33.2178 30.3916C33.2862 30.1862 33.3544 29.9124 33.4229 29.707C33.4913 29.4332 33.4912 29.2278 33.4912 29.0908C33.4912 28.6116 33.4231 28.2007 33.2861 27.8584C33.1492 27.516 32.9439 27.1733 32.6016 26.8994C32.3277 26.6256 31.9167 26.4201 31.4375 26.2832C30.9582 26.1463 30.4103 26.0781 29.7256 26.0781H26.7812ZM35.0703 26.0781V36.3486H36.8506V32.1035C37.056 32.172 37.1931 32.1719 37.3301 32.1719H37.6719L40.4111 36.3486H42.4648L39.3154 31.9668C39.7947 31.8299 40.1372 31.6243 40.4795 31.4189C40.8217 31.2136 41.0271 30.9398 41.2324 30.666C41.4378 30.3921 41.5751 30.0493 41.6436 29.7754C41.712 29.5016 41.7802 29.1595 41.7803 28.8857C41.7803 28.475 41.7121 28.064 41.5752 27.7217C41.4383 27.3793 41.233 27.1049 40.8906 26.8311C40.6167 26.6256 40.2058 26.4201 39.7266 26.2832C39.2473 26.1463 38.6994 26.0781 38.0146 26.0781H35.0703ZM19.6641 27.248C20.2803 27.248 20.8284 27.3854 21.2393 27.5908C21.65 27.7962 21.9927 28.0698 22.2666 28.4121C22.5405 28.7545 22.7459 29.1654 22.8828 29.5762C23.0197 30.0554 23.0879 30.4662 23.0879 30.9453C23.0879 31.6299 23.0197 32.2463 22.8145 32.7256C22.609 33.2049 22.4029 33.6156 22.0605 33.958C21.7867 34.3003 21.3766 34.5749 20.9658 34.7119C20.4865 34.9173 20.0066 34.9854 19.5273 34.9854H18.9795V27.248H19.6641ZM29.4521 27.3105C29.8626 27.3106 30.2048 27.3788 30.4785 27.4473C30.7523 27.5841 31.0261 27.7215 31.1631 27.8584C31.3 27.9953 31.4374 28.2008 31.5059 28.4062C31.5743 28.6116 31.6426 28.817 31.6426 29.0908C31.6426 29.433 31.6426 29.7067 31.5059 29.9121C31.3689 30.186 31.2318 30.3924 31.0264 30.5293C30.8211 30.6662 30.6155 30.8027 30.3418 30.8711C30.068 30.9395 29.7943 31.0077 29.4521 31.0078H28.5615V27.3105H29.4521ZM37.7412 27.3789C38.1517 27.3789 38.5622 27.3789 38.8359 27.4473C39.1098 27.5157 39.3845 27.5847 39.5215 27.7217C39.6583 27.8585 39.7949 27.9959 39.8633 28.2012C39.9317 28.4065 40 28.6804 40 28.9541C40 29.2279 40.0002 29.5017 39.8633 29.707C39.7263 29.9124 39.5892 30.1179 39.3838 30.2549C39.1784 30.3918 38.9047 30.5292 38.6309 30.5977C38.357 30.6661 38.0142 30.7344 37.6719 30.7344H36.9189V27.3789H37.7412ZM9.59375 19.3086H7.26562L9.11426 20.6777L8.42969 22.9375L10.2783 21.5684L12.1953 22.9375L11.4424 20.6777L13.3594 19.3086H11.0312L10.2783 17.1172L9.59375 19.3086ZM38.7656 19.3086H36.4375L38.3545 20.6777L37.6016 22.9375L39.5186 21.5684L41.3672 22.9375L40.6826 20.6777L42.5312 19.3086H40.2031L39.5186 17.1172L38.7656 19.3086ZM16.1641 13.4883H13.8359L15.7529 14.8574L15 17.1172L16.917 15.748L18.7656 17.1172L18.0811 14.8574L19.9297 13.4883H17.6016L16.917 11.2969L16.1641 13.4883ZM32.1934 13.4883H29.7969L31.7139 14.8574L31.0293 17.1172L32.8779 15.748L34.7949 17.1172L34.042 14.8574L35.959 13.4883H33.6309L32.8779 11.2969L32.1934 13.4883ZM24.1797 11.3613H21.8516L23.7002 12.7305L23.0156 14.9219L24.8643 13.5527L26.7812 14.9219L26.0967 12.7305L27.9453 11.3613H25.6172L24.8643 9.10156L24.1797 11.3613Z" fill="url(#paint0_linear_57705_5938)"/>
<defs>
<linearGradient id="paint0_linear_57705_5938" x1="12.4937" y1="-7.39531" x2="12.4937" y2="69.8408" gradientUnits="userSpaceOnUse">
<stop offset="0.175" stop-color="white"/>
<stop offset="1" stop-color="#211825" stop-opacity="0.8"/>
</linearGradient>
</defs>
</svg>
