<svg width="58" height="64" viewBox="0 0 58 64" fill="none" xmlns="http://www.w3.org/2000/svg">
<path d="M30.6923 2.42225C26.8601 0.509702 23.2845 5.60001 27.6832 7.59219C27.7021 7.6009 27.7181 7.61483 27.7293 7.63234C27.7405 7.64984 27.7465 7.67019 27.7466 7.69099V24.1711C27.7467 24.1937 27.7548 24.2156 27.7694 24.2326C27.784 24.2497 27.8042 24.2608 27.8262 24.264C28.611 24.38 29.3972 24.3854 30.1849 24.2802C30.204 24.2774 30.2216 24.2678 30.2343 24.2532C30.247 24.2386 30.2541 24.2199 30.2542 24.2006V7.72933C30.2542 7.70805 30.2601 7.68728 30.271 7.66931C30.2819 7.65135 30.2976 7.6369 30.3162 7.62758C30.7616 7.39951 31.0802 7.20536 31.272 7.04512C32.9108 5.67816 32.5715 3.3601 30.6923 2.42225Z" fill="url(#paint0_linear_57705_5990)"/>
<path d="M21.4709 7.64678C15.4055 9.22313 9.28837 10.3512 3.06948 8.93116C2.99868 8.91444 2.98884 8.93165 3.03998 8.98277C6.99808 12.9111 11.7793 15.0271 17.3835 15.3309C17.4052 15.3322 17.4261 15.339 17.4445 15.3506C17.4628 15.3622 17.4778 15.3783 17.4883 15.3973C18.5636 17.3349 24.7131 17.0311 26.6263 16.8851C26.6516 16.8833 26.6753 16.8719 26.6925 16.8533C26.7098 16.8347 26.7193 16.8102 26.7192 16.7849C26.7222 14.8738 26.7222 12.9725 26.7192 11.0811C26.7163 9.51952 24.7426 7.46541 23.216 7.36218C22.8708 7.33859 22.2891 7.43346 21.4709 7.64678ZM34.0208 7.52881C32.8983 8.01396 31.3288 9.72154 31.3288 10.9661C31.3298 12.9165 31.3303 14.8644 31.3303 16.8099C31.3303 16.8252 31.336 16.84 31.3464 16.8512C31.3568 16.8624 31.3711 16.8693 31.3864 16.8704C33.3969 17.0223 39.4815 17.3511 40.5775 15.3604C40.5878 15.3411 40.6032 15.3249 40.622 15.3133C40.6409 15.3016 40.6627 15.295 40.6852 15.294C46.0898 15.1127 51.1228 12.861 54.9402 9.0447C55.0376 8.94738 55.0194 8.91395 54.8857 8.94443C48.3437 10.4117 42.2871 9.06682 35.785 7.45508C35.1596 7.29878 34.5666 7.29288 34.0208 7.52881Z" fill="url(#paint1_linear_57705_5990)"/>
<path d="M21.5194 18.3653C19.5974 18.1648 17.5264 18.7414 16.659 20.5861C16.2224 21.518 16.1841 22.7877 16.6841 23.6768C17.6857 25.4641 20.0871 26.3208 21.8631 26.7764C21.8884 26.7828 21.9146 26.7835 21.9399 26.7784C21.9652 26.7733 21.9889 26.7625 22.0091 26.747C22.9551 26.0146 23.9995 25.4714 25.1422 25.1175C25.2307 25.09 25.2297 25.0659 25.1392 25.0453C23.6405 24.7032 19.2124 23.9275 19.2522 22.1049C19.2743 21.0462 20.3821 20.912 21.1816 21.0137C21.2288 21.0195 21.2734 21.039 21.3099 21.0698C22.3022 21.9034 23.4507 22.3694 24.7557 22.4677C26.0921 22.5694 27.3784 21.5519 26.6777 20.1024C26.1772 19.0643 25.3157 18.4376 24.0934 18.2223C23.3824 18.097 22.3676 18.4538 21.5194 18.3653ZM33.9498 18.2429C32.6812 18.3639 31.5528 19.2855 31.1944 20.502C30.7872 21.8837 32.3198 22.5443 33.4306 22.4411C34.4592 22.3458 35.3698 22.0184 36.1624 21.459C36.5203 21.2074 36.7834 21.0619 36.9515 21.0226C37.7658 20.8338 38.7836 21.201 38.7747 22.1757C38.7511 24.6914 29.7886 25.408 28.0407 25.6012C26.3856 25.784 24.4799 26.3282 23.1316 27.3309C19.9263 29.7153 22.3646 33.0361 24.9563 34.2939C24.9785 34.3045 25.0026 34.3101 25.0271 34.3104C25.0515 34.3106 25.0757 34.3055 25.0979 34.2954L27.2397 33.2971C27.2938 33.2725 27.2933 33.2485 27.2382 33.2249C26.2086 32.7957 24.353 31.7532 24.0536 30.578C23.5196 28.4826 27.368 27.9001 28.6676 27.7983C31.8626 27.5521 41.2912 27.0035 41.6806 22.506C41.8055 21.0648 41.3202 19.9594 40.2247 19.1896C39.027 18.3491 37.667 18.3019 36.2509 18.3594C35.4809 18.3904 34.736 18.1663 33.9498 18.2429Z" fill="url(#paint2_linear_57705_5990)"/>
<path d="M24.7335 41.3086C24.7571 41.3282 24.7859 41.3403 24.8161 41.3435C24.8464 41.3467 24.8767 41.3407 24.9032 41.3263L26.5169 40.4666C26.5838 40.4312 26.5823 40.3987 26.5125 40.3692C25.4593 39.9372 24.943 38.7929 25.592 37.7961C26.5021 36.3952 29.1705 35.7921 31.0852 35.158C33.789 34.2644 38.049 31.5998 35.7626 28.1625C35.7367 28.1238 35.7002 28.0934 35.6576 28.0748C35.6149 28.0563 35.5679 28.0504 35.5222 28.0578L32.721 28.5223C32.663 28.5322 32.6606 28.5503 32.7137 28.5769C33.6533 29.037 34.4454 29.7433 33.879 30.8832C32.8007 33.0523 28.7723 33.8353 27.0125 34.6065C25.0005 35.4869 22.5195 37.2077 23.5564 39.8001C23.7718 40.3388 24.1642 40.8416 24.7335 41.3086Z" fill="url(#paint3_linear_57705_5990)"/>
<path d="M30.1057 28.9496C29.3396 28.8375 28.578 28.8518 27.8208 28.9923C27.8018 28.9958 27.7846 29.0058 27.7722 29.0206C27.7598 29.0354 27.753 29.0541 27.7529 29.0734V32.0978C27.7529 32.1247 27.7593 32.1511 27.7717 32.175C27.784 32.1989 27.8018 32.2194 27.8237 32.235C28.6203 32.7992 29.4129 32.8027 30.2015 32.2453C30.2202 32.2321 30.2354 32.2145 30.2459 32.1939C30.2565 32.1734 30.262 32.1506 30.262 32.1273L30.2561 29.1221C30.2561 29.0802 30.2409 29.0397 30.2133 29.0081C30.1857 28.9764 30.1475 28.9556 30.1057 28.9496ZM30.9184 36.5437C31.653 36.9124 32.597 37.6512 32.6826 38.5256C32.7932 39.6787 31.8374 40.3821 30.8388 40.6225C29.3416 40.9808 27.6482 41.1578 26.2734 41.8523C24.3499 42.8255 24.0992 45.3943 26.1008 46.4693C26.1239 46.4815 26.1497 46.4878 26.1757 46.4875C26.2017 46.4872 26.2272 46.4805 26.2498 46.4678L27.4417 45.8072C27.5017 45.7737 27.5022 45.7398 27.4432 45.7054C26.6068 45.2188 25.9681 44.6644 26.4091 43.7693C26.8074 42.9612 28.0671 42.7518 28.933 42.594C31.1441 42.19 33.9453 41.9983 34.612 39.3219C34.9749 37.8665 34.1798 36.5378 32.9953 35.7194C32.9762 35.7058 32.9539 35.6971 32.9306 35.694C32.9072 35.691 32.8833 35.6936 32.8611 35.7017L30.9243 36.4199C30.8279 36.4562 30.826 36.4975 30.9184 36.5437Z" fill="url(#paint4_linear_57705_5990)"/>
<path d="M27.8193 39.6234C28.6028 39.9448 29.3887 39.9522 30.1771 39.6455C30.2002 39.6368 30.22 39.6212 30.234 39.6009C30.2479 39.5806 30.2554 39.5566 30.2553 39.5319L30.2523 37.584C30.2523 37.5578 30.2456 37.5321 30.233 37.5093C30.2203 37.4866 30.2021 37.4676 30.1801 37.4542C29.3681 36.9411 28.5821 36.9642 27.8223 37.5235C27.7998 37.5405 27.7815 37.5623 27.769 37.5874C27.7565 37.6125 27.75 37.6401 27.75 37.668V39.5201C27.7501 39.5424 27.7567 39.5641 27.769 39.5825C27.7814 39.6009 27.7989 39.6151 27.8193 39.6234Z" fill="url(#paint5_linear_57705_5990)"/>
<path d="M25.271 50.4433C25.6486 53.8216 31.2701 54.6193 33.8204 54.7329C34.2108 54.7496 34.3829 54.5584 34.3367 54.1593C34.3291 54.0923 34.299 54.0298 34.2513 53.9821C34.2036 53.9345 34.1412 53.9044 34.0742 53.8968C31.9176 53.6476 29.7611 53.3158 27.8567 52.2069C26.1176 51.1938 26.1147 49.1383 27.9349 48.2417C29.9912 47.2301 34.6848 46.4456 32.9428 42.883C32.9357 42.8684 32.9239 42.8568 32.9093 42.85C32.8948 42.8433 32.8784 42.8419 32.8631 42.8462L31.3969 43.2428C31.3885 43.2451 31.3807 43.2494 31.3742 43.2553C31.3677 43.2612 31.3626 43.2685 31.3595 43.2767C31.3563 43.2848 31.3551 43.2936 31.356 43.3024C31.3569 43.3111 31.3598 43.3195 31.3645 43.3269C32.3159 44.7956 31.2701 45.4252 30.1003 45.9089C28.1267 46.7229 24.9627 47.705 25.271 50.4433Z" fill="url(#paint6_linear_57705_5990)"/>
<path d="M27.8177 44.0404C27.4814 44.5845 28.2691 44.8956 28.6497 45.0239C29.163 45.1979 30.61 44.7762 30.2398 44.0536C30.2169 44.0089 30.1781 43.9738 30.1306 43.9548C29.399 43.6639 28.6664 43.6609 27.9328 43.946C27.885 43.9642 27.8446 43.9973 27.8177 44.0404ZM30.5156 48.4951C31.3712 49.1833 31.6509 49.9899 31.3549 50.9149C31.2089 51.3735 30.7944 51.7334 30.4669 52.102C30.4607 52.1093 30.4565 52.1181 30.4546 52.1274C30.4528 52.1368 30.4534 52.1465 30.4564 52.1555C30.4593 52.1644 30.4646 52.1724 30.4717 52.1785C30.4787 52.1847 30.4873 52.1888 30.4964 52.1905L31.408 52.3777C31.6932 52.4357 31.9194 52.3453 32.0866 52.1064C33.064 50.7115 33.0213 49.3671 31.9582 48.0734C31.8432 47.9328 31.7016 47.896 31.5334 47.9628L30.5363 48.3565C30.5231 48.3618 30.5115 48.3704 30.5027 48.3815C30.4939 48.3926 30.4882 48.4059 30.4861 48.4199C30.484 48.4339 30.4856 48.4483 30.4908 48.4615C30.496 48.4747 30.5046 48.4863 30.5156 48.4951ZM29.9654 50.9365C30.0555 50.8439 30.1264 50.7344 30.1742 50.6144C30.222 50.4944 30.2456 50.3662 30.2438 50.237C30.242 50.1079 30.2148 49.9803 30.1637 49.8617C30.1126 49.7431 30.0386 49.6357 29.946 49.5456L29.7027 49.3093C29.5157 49.1274 29.264 49.0273 29.0031 49.0309C28.7423 49.0346 28.4935 49.1416 28.3116 49.3286L28.0832 49.5633C27.9932 49.6559 27.9222 49.7654 27.8744 49.8854C27.8267 50.0054 27.803 50.1336 27.8048 50.2628C27.8066 50.3919 27.8339 50.5195 27.885 50.6381C27.9361 50.7567 28.0101 50.8641 28.1027 50.9542L28.3459 51.1906C28.533 51.3724 28.7846 51.4725 29.0455 51.4689C29.3064 51.4653 29.5552 51.3582 29.7371 51.1712L29.9654 50.9365ZM23.9398 54.6958C24.0601 54.7683 24.2015 54.798 24.341 54.7799L26.9268 54.4451C27.0468 54.4304 27.0605 54.3842 26.9681 54.3065C26.5492 53.957 26.0653 53.6002 25.4901 53.6857C24.9758 53.7624 24.4816 53.8322 24.0076 53.8951C23.8237 53.9197 23.721 54.0244 23.6993 54.2092C23.6757 54.4225 23.7559 54.5847 23.9398 54.6958ZM28.2632 57.3752C28.8237 58.1611 29.7043 57.878 29.9625 56.9711C30.1228 56.4059 30.2177 55.9207 30.2472 55.5157C30.249 55.4932 30.2439 55.4707 30.2325 55.4512C30.2212 55.4317 30.2042 55.4161 30.1837 55.4066C29.401 55.0468 28.6197 55.0448 27.8399 55.4007C27.8199 55.4097 27.8033 55.4247 27.7922 55.4437C27.7811 55.4627 27.7761 55.4848 27.7779 55.5068C27.8163 56.051 27.8959 56.8605 28.2632 57.3752Z" fill="url(#paint7_linear_57705_5990)"/>
<path d="M27.6832 7.59219C23.2845 5.60001 26.8601 0.509702 30.6923 2.42225C32.5715 3.3601 32.9108 5.67816 31.272 7.04512C31.0802 7.20536 30.7616 7.39951 30.3162 7.62758C30.2976 7.6369 30.2819 7.65135 30.271 7.66931C30.2601 7.68728 30.2542 7.70805 30.2542 7.72933V24.2006C30.2541 24.2199 30.247 24.2386 30.2343 24.2532C30.2216 24.2678 30.204 24.2774 30.1849 24.2802C29.3972 24.3854 28.611 24.38 27.8262 24.264C27.8042 24.2608 27.784 24.2497 27.7694 24.2326C27.7548 24.2156 27.7467 24.1937 27.7466 24.1711V7.69099C27.7465 7.67019 27.7405 7.64984 27.7293 7.63234C27.7181 7.61483 27.7021 7.6009 27.6832 7.59219Z" fill="url(#paint8_linear_57705_5990)"/>
<path d="M3.06167 8.93116C9.28055 10.3512 15.3977 9.22313 21.4631 7.64678C22.2813 7.43346 22.863 7.33859 23.2081 7.36218C24.7348 7.46541 26.7085 9.51952 26.7114 11.0811C26.7144 12.9725 26.7144 14.8738 26.7114 16.7849C26.7115 16.8102 26.7019 16.8347 26.6847 16.8533C26.6675 16.8719 26.6438 16.8833 26.6185 16.8851C24.7053 17.0311 18.5558 17.3349 17.4805 15.3973C17.47 15.3783 17.455 15.3622 17.4366 15.3506C17.4183 15.339 17.3974 15.3322 17.3757 15.3309C11.7714 15.0271 6.99026 12.9111 3.03217 8.98277C2.98103 8.93165 2.99086 8.91444 3.06167 8.93116ZM31.321 10.9661C31.321 9.72154 32.8905 8.01396 34.013 7.52881C34.5588 7.29288 35.1518 7.29878 35.7772 7.45508C42.2793 9.06682 48.3359 10.4117 54.8778 8.94443C55.0116 8.91395 55.0298 8.94738 54.9324 9.0447C51.1149 12.861 46.082 15.1127 40.6774 15.294C40.6549 15.295 40.6331 15.3016 40.6142 15.3133C40.5953 15.3249 40.58 15.3411 40.5697 15.3604C39.4737 17.3511 33.3891 17.0223 31.3785 16.8704C31.3633 16.8693 31.349 16.8624 31.3386 16.8512C31.3282 16.84 31.3224 16.8252 31.3225 16.8099C31.3225 14.8644 31.322 12.9165 31.321 10.9661Z" fill="url(#paint9_linear_57705_5990)"/>
<path d="M21.5194 18.3653C22.3676 18.4538 23.3824 18.097 24.0934 18.2223C25.3157 18.4376 26.1772 19.0643 26.6777 20.1024C27.3784 21.5519 26.0921 22.5694 24.7557 22.4677C23.4507 22.3694 22.3022 21.9034 21.3099 21.0698C21.2734 21.039 21.2288 21.0195 21.1816 21.0137C20.3821 20.912 19.2743 21.0462 19.2522 22.1049C19.2124 23.9275 23.6405 24.7032 25.1392 25.0453C25.2297 25.0659 25.2307 25.09 25.1422 25.1175C23.9995 25.4714 22.9551 26.0146 22.0091 26.747C21.9889 26.7625 21.9652 26.7733 21.9399 26.7784C21.9146 26.7835 21.8884 26.7828 21.8631 26.7764C20.0871 26.3208 17.6857 25.4641 16.6841 23.6768C16.1841 22.7877 16.2224 21.518 16.659 20.5861C17.5264 18.7414 19.5974 18.1648 21.5194 18.3653ZM31.1944 20.502C31.5528 19.2855 32.6812 18.3639 33.9498 18.2429C34.736 18.1663 35.4809 18.3904 36.2509 18.3594C37.667 18.3019 39.027 18.3491 40.2247 19.1896C41.3202 19.9594 41.8055 21.0648 41.6806 22.506C41.2912 27.0035 31.8626 27.5521 28.6676 27.7983C27.368 27.9001 23.5196 28.4826 24.0536 30.578C24.353 31.7532 26.2086 32.7957 27.2382 33.2249C27.2933 33.2485 27.2938 33.2725 27.2397 33.2971L25.0979 34.2954C25.0757 34.3055 25.0515 34.3106 25.0271 34.3104C25.0026 34.3101 24.9785 34.3045 24.9563 34.2939C22.3646 33.0361 19.9263 29.7153 23.1316 27.3309C24.4799 26.3282 26.3856 25.784 28.0407 25.6012C29.7886 25.408 38.7511 24.6914 38.7747 22.1757C38.7836 21.201 37.7658 20.8338 36.9515 21.0226C36.7834 21.0619 36.5203 21.2074 36.1624 21.459C35.3698 22.0184 34.4592 22.3458 33.4306 22.4411C32.3198 22.5443 30.7872 21.8837 31.1944 20.502Z" fill="url(#paint10_linear_57705_5990)"/>
<path d="M24.7335 41.3086C24.1642 40.8416 23.7718 40.3388 23.5564 39.8001C22.5195 37.2077 25.0005 35.4869 27.0125 34.6065C28.7723 33.8353 32.8007 33.0523 33.879 30.8832C34.4454 29.7433 33.6533 29.037 32.7137 28.5769C32.6606 28.5503 32.663 28.5322 32.721 28.5223L35.5222 28.0578C35.5679 28.0504 35.6149 28.0563 35.6576 28.0748C35.7002 28.0934 35.7367 28.1238 35.7626 28.1625C38.049 31.5998 33.789 34.2644 31.0852 35.158C29.1705 35.7921 26.5021 36.3952 25.592 37.7961C24.943 38.7929 25.4593 39.9372 26.5125 40.3692C26.5823 40.3987 26.5838 40.4312 26.5169 40.4666L24.9032 41.3263C24.8767 41.3407 24.8464 41.3467 24.8161 41.3435C24.7859 41.3403 24.7571 41.3282 24.7335 41.3086Z" fill="url(#paint11_linear_57705_5990)"/>
<path d="M30.1057 28.9496C30.1475 28.9556 30.1857 28.9764 30.2133 29.0081C30.2409 29.0397 30.2561 29.0802 30.2561 29.1221L30.262 32.1273C30.262 32.1506 30.2565 32.1734 30.2459 32.1939C30.2354 32.2145 30.2202 32.2321 30.2015 32.2453C29.4129 32.8027 28.6203 32.7992 27.8237 32.235C27.8018 32.2194 27.784 32.1989 27.7717 32.175C27.7593 32.1511 27.7529 32.1247 27.7529 32.0978V29.0734C27.753 29.0541 27.7598 29.0354 27.7722 29.0206C27.7846 29.0058 27.8018 28.9958 27.8208 28.9923C28.578 28.8518 29.3396 28.8375 30.1057 28.9496ZM30.9184 36.5437C30.826 36.4975 30.8279 36.4562 30.9243 36.4199L32.8611 35.7017C32.8833 35.6936 32.9072 35.691 32.9306 35.694C32.9539 35.6971 32.9762 35.7058 32.9953 35.7194C34.1798 36.5378 34.9749 37.8665 34.612 39.3219C33.9453 41.9983 31.1441 42.19 28.933 42.594C28.0671 42.7518 26.8074 42.9612 26.4091 43.7693C25.9681 44.6644 26.6068 45.2188 27.4432 45.7054C27.5022 45.7398 27.5017 45.7737 27.4417 45.8072L26.2498 46.4678C26.2272 46.4805 26.2017 46.4872 26.1757 46.4875C26.1497 46.4878 26.1239 46.4815 26.1008 46.4693C24.0992 45.3943 24.3499 42.8255 26.2734 41.8523C27.6482 41.1578 29.3416 40.9808 30.8388 40.6225C31.8374 40.3821 32.7932 39.6787 32.6826 38.5256C32.597 37.6512 31.653 36.9124 30.9184 36.5437Z" fill="url(#paint12_linear_57705_5990)"/>
<path d="M27.8193 39.6234C27.7989 39.6151 27.7814 39.6009 27.769 39.5825C27.7567 39.5641 27.7501 39.5424 27.75 39.5201V37.668C27.75 37.6401 27.7565 37.6125 27.769 37.5874C27.7815 37.5623 27.7998 37.5405 27.8223 37.5235C28.5821 36.9642 29.3681 36.9411 30.1801 37.4542C30.2021 37.4676 30.2203 37.4866 30.233 37.5093C30.2456 37.5321 30.2523 37.5578 30.2523 37.584L30.2553 39.5319C30.2554 39.5566 30.2479 39.5806 30.234 39.6009C30.22 39.6212 30.2002 39.6368 30.1771 39.6455C29.3887 39.9522 28.6028 39.9448 27.8193 39.6234Z" fill="url(#paint13_linear_57705_5990)"/>
<path d="M33.8204 54.7329C31.2701 54.6193 25.6486 53.8216 25.271 50.4433C24.9627 47.705 28.1267 46.7229 30.1003 45.9089C31.2701 45.4252 32.3159 44.7956 31.3645 43.3269C31.3598 43.3195 31.3569 43.3111 31.356 43.3024C31.3551 43.2936 31.3563 43.2848 31.3595 43.2767C31.3626 43.2685 31.3677 43.2612 31.3742 43.2553C31.3807 43.2494 31.3885 43.2451 31.3969 43.2428L32.8631 42.8462C32.8784 42.8419 32.8948 42.8433 32.9093 42.85C32.9239 42.8568 32.9357 42.8684 32.9428 42.883C34.6848 46.4456 29.9912 47.2301 27.9349 48.2417C26.1147 49.1383 26.1176 51.1938 27.8567 52.2069C29.7611 53.3158 31.9176 53.6476 34.0742 53.8968C34.1412 53.9044 34.2036 53.9345 34.2513 53.9821C34.299 54.0298 34.3291 54.0923 34.3367 54.1593C34.3829 54.5584 34.2108 54.7496 33.8204 54.7329Z" fill="url(#paint14_linear_57705_5990)"/>
<path d="M28.6479 45.0239C28.2673 44.8956 27.4797 44.5845 27.816 44.0404C27.8428 43.9973 27.8832 43.9642 27.931 43.946C28.6646 43.6609 29.3972 43.6639 30.1289 43.9548C30.1764 43.9738 30.2152 44.0089 30.238 44.0536C30.6083 44.7762 29.1612 45.1979 28.6479 45.0239ZM30.5139 48.4951C30.5028 48.4863 30.4942 48.4747 30.4891 48.4615C30.4839 48.4483 30.4823 48.4339 30.4844 48.4199C30.4864 48.4059 30.4922 48.3926 30.501 48.3815C30.5098 48.3704 30.5213 48.3618 30.5345 48.3565L31.5317 47.9628C31.6998 47.896 31.8414 47.9328 31.9565 48.0734C33.0195 49.3671 33.0623 50.7115 32.0848 52.1064C31.9176 52.3453 31.6915 52.4357 31.4063 52.3777L30.4947 52.1905C30.4855 52.1888 30.4769 52.1847 30.4699 52.1785C30.4629 52.1724 30.4576 52.1644 30.4546 52.1555C30.4516 52.1465 30.451 52.1368 30.4529 52.1274C30.4547 52.1181 30.459 52.1093 30.4652 52.102C30.7927 51.7333 31.2072 51.3735 31.3532 50.9149C31.6492 49.9899 31.3694 49.1833 30.5139 48.4951Z" fill="url(#paint15_linear_57705_5990)"/>
<path d="M29.9406 49.547L29.6974 49.3106C29.3079 48.9319 28.6851 48.9406 28.3064 49.33L28.0781 49.5647C27.6994 49.954 27.7081 50.5766 28.0975 50.9552L28.3407 51.1916C28.7302 51.5703 29.353 51.5616 29.7317 51.1722L29.96 50.9376C30.3388 50.5482 30.3301 49.9256 29.9406 49.547Z" fill="url(#paint16_linear_57705_5990)"/>
<path d="M23.9241 54.6948C23.7403 54.5837 23.6601 54.4215 23.6837 54.2082C23.7053 54.0234 23.8081 53.9187 23.992 53.8941C24.466 53.8312 24.9601 53.7614 25.4744 53.6847C26.0497 53.5992 26.5335 53.956 26.9525 54.3055C27.0449 54.3832 27.0311 54.4294 26.9112 54.4441L24.3254 54.7789C24.1859 54.797 24.0444 54.7673 23.9241 54.6948ZM28.2476 57.3742C27.8803 56.8595 27.8006 56.05 27.7623 55.5058C27.7605 55.4838 27.7655 55.4617 27.7766 55.4427C27.7877 55.4237 27.8043 55.4087 27.8242 55.3997C28.604 55.0438 29.3853 55.0458 30.1681 55.4056C30.1886 55.4151 30.2056 55.4307 30.2169 55.4502C30.2283 55.4697 30.2334 55.4922 30.2315 55.5147C30.202 55.9197 30.1071 56.4049 29.9469 56.9701C29.6887 57.877 28.8081 58.1601 28.2476 57.3742Z" fill="url(#paint17_linear_57705_5990)"/>
<defs>
<linearGradient id="paint0_linear_57705_5990" x1="29.006" y1="-0.590618" x2="29.006" y2="28.3792" gradientUnits="userSpaceOnUse">
<stop offset="0.47" stop-color="white"/>
<stop offset="1" stop-color="#211825" stop-opacity="0.8"/>
</linearGradient>
<linearGradient id="paint1_linear_57705_5990" x1="29.1291" y1="6.22531" x2="29.1291" y2="18.7324" gradientUnits="userSpaceOnUse">
<stop offset="0.47" stop-color="white"/>
<stop offset="1" stop-color="#211825" stop-opacity="0.8"/>
</linearGradient>
<linearGradient id="paint2_linear_57705_5990" x1="29.0707" y1="16.3278" x2="29.0707" y2="37.2111" gradientUnits="userSpaceOnUse">
<stop offset="0.47" stop-color="white"/>
<stop offset="1" stop-color="#211825" stop-opacity="0.8"/>
</linearGradient>
<linearGradient id="paint3_linear_57705_5990" x1="29.8944" y1="26.5146" x2="29.8944" y2="43.7365" gradientUnits="userSpaceOnUse">
<stop offset="0.47" stop-color="white"/>
<stop offset="1" stop-color="#211825" stop-opacity="0.8"/>
</linearGradient>
<linearGradient id="paint4_linear_57705_5990" x1="29.7296" y1="26.834" x2="29.7296" y2="49.6578" gradientUnits="userSpaceOnUse">
<stop offset="0.47" stop-color="white"/>
<stop offset="1" stop-color="#211825" stop-opacity="0.8"/>
</linearGradient>
<linearGradient id="paint5_linear_57705_5990" x1="29.0086" y1="36.7633" x2="29.0086" y2="40.3713" gradientUnits="userSpaceOnUse">
<stop offset="0.47" stop-color="white"/>
<stop offset="1" stop-color="#211825" stop-opacity="0.8"/>
</linearGradient>
<linearGradient id="paint6_linear_57705_5990" x1="29.8188" y1="41.4659" x2="29.8188" y2="56.8741" gradientUnits="userSpaceOnUse">
<stop offset="0.47" stop-color="white"/>
<stop offset="1" stop-color="#211825" stop-opacity="0.8"/>
</linearGradient>
<linearGradient id="paint7_linear_57705_5990" x1="28.2639" y1="42.1005" x2="28.2639" y2="60.3715" gradientUnits="userSpaceOnUse">
<stop offset="0.47" stop-color="white"/>
<stop offset="1" stop-color="#211825" stop-opacity="0.8"/>
</linearGradient>
<linearGradient id="paint8_linear_57705_5990" x1="29.006" y1="-0.590618" x2="29.006" y2="28.3792" gradientUnits="userSpaceOnUse">
<stop offset="0.47" stop-color="white"/>
<stop offset="1" stop-color="#211825" stop-opacity="0.8"/>
</linearGradient>
<linearGradient id="paint9_linear_57705_5990" x1="29.1213" y1="6.22531" x2="29.1213" y2="18.7324" gradientUnits="userSpaceOnUse">
<stop offset="0.47" stop-color="white"/>
<stop offset="1" stop-color="#211825" stop-opacity="0.8"/>
</linearGradient>
<linearGradient id="paint10_linear_57705_5990" x1="29.0707" y1="16.3278" x2="29.0707" y2="37.2111" gradientUnits="userSpaceOnUse">
<stop offset="0.47" stop-color="white"/>
<stop offset="1" stop-color="#211825" stop-opacity="0.8"/>
</linearGradient>
<linearGradient id="paint11_linear_57705_5990" x1="29.8944" y1="26.5146" x2="29.8944" y2="43.7365" gradientUnits="userSpaceOnUse">
<stop offset="0.47" stop-color="white"/>
<stop offset="1" stop-color="#211825" stop-opacity="0.8"/>
</linearGradient>
<linearGradient id="paint12_linear_57705_5990" x1="29.7296" y1="26.834" x2="29.7296" y2="49.6578" gradientUnits="userSpaceOnUse">
<stop offset="0.47" stop-color="white"/>
<stop offset="1" stop-color="#211825" stop-opacity="0.8"/>
</linearGradient>
<linearGradient id="paint13_linear_57705_5990" x1="29.0086" y1="36.7633" x2="29.0086" y2="40.3713" gradientUnits="userSpaceOnUse">
<stop offset="0.47" stop-color="white"/>
<stop offset="1" stop-color="#211825" stop-opacity="0.8"/>
</linearGradient>
<linearGradient id="paint14_linear_57705_5990" x1="29.8188" y1="41.4659" x2="29.8188" y2="56.8741" gradientUnits="userSpaceOnUse">
<stop offset="0.47" stop-color="white"/>
<stop offset="1" stop-color="#211825" stop-opacity="0.8"/>
</linearGradient>
<linearGradient id="paint15_linear_57705_5990" x1="30.2729" y1="42.7308" x2="30.2729" y2="53.9536" gradientUnits="userSpaceOnUse">
<stop offset="0.47" stop-color="white"/>
<stop offset="1" stop-color="#211825" stop-opacity="0.8"/>
</linearGradient>
<linearGradient id="paint16_linear_57705_5990" x1="30.0084" y1="49.242" x2="27.9358" y2="51.374" gradientUnits="userSpaceOnUse">
<stop offset="0.47" stop-color="white"/>
<stop offset="1" stop-color="#211825" stop-opacity="0.8"/>
</linearGradient>
<linearGradient id="paint17_linear_57705_5990" x1="26.9715" y1="53.1897" x2="26.9715" y2="58.5816" gradientUnits="userSpaceOnUse">
<stop offset="0.47" stop-color="white"/>
<stop offset="1" stop-color="#211825" stop-opacity="0.8"/>
</linearGradient>
</defs>
</svg>
