<svg width="58" height="64" viewBox="0 0 58 64" fill="none" xmlns="http://www.w3.org/2000/svg">
<path d="M47.9609 35.9295C46.1257 38.8167 43.6782 41.2632 40.791 43.0984C29.8998 50.0334 15.4527 46.8208 8.52344 35.9353H10.21C11.2676 37.4446 12.5083 38.8168 13.9033 40.0174C16.3044 39.3771 18.757 38.925 21.2324 38.6678C20.9466 37.8046 20.6836 36.89 20.4492 35.9353H21.8848C22.1249 36.8557 22.382 37.7307 22.6621 38.531C24.423 38.3881 26.2357 38.3074 28.0938 38.3074C30.0259 38.3074 31.941 38.3994 33.7988 38.5652C34.0847 37.7534 34.3478 36.8729 34.5879 35.9353L36.0234 35.9295C35.7891 36.8955 35.52 37.8273 35.2285 38.7019C37.6869 38.9706 40.1169 39.428 42.501 40.074C43.9301 38.8563 45.1938 37.4616 46.2686 35.9295H47.9609ZM28.0986 39.7029C26.441 39.7029 24.7947 39.7715 23.1885 39.8972C24.6292 43.3675 26.4642 45.4539 28.2422 45.4539C30.0088 45.4538 31.8436 43.3728 33.29 39.9197C31.5978 39.7768 29.8594 39.7029 28.0986 39.7029ZM21.7305 40.0291C19.558 40.2463 17.4023 40.6061 15.2812 41.1092C18.1112 43.1959 21.3869 44.5849 24.8457 45.1795C23.7253 44.0418 22.5936 42.2298 21.7305 40.0291ZM34.7363 40.0574C33.8789 42.2467 32.7475 44.0475 31.6328 45.1795C35.0629 44.5906 38.3103 43.219 41.123 41.1609C39.0248 40.6521 36.8917 40.2804 34.7363 40.0574ZM23.8789 12.8357C25.3997 12.8643 26.9095 12.9845 28.4131 13.1961H33.3066V19.2849L28.4131 19.2908V17.993C27.6928 17.6099 25.989 17.204 24.2168 17.2039C21.9356 17.2039 21.0488 17.8728 21.0488 18.7361C21.0494 22.3089 34.0957 18.2101 34.0957 27.1287C34.0957 30.8219 31.626 33.8405 24.2168 33.8406C22.6103 33.812 21.0092 33.6918 19.4199 33.4803H14.5254V27.3914H19.4199V28.6892C20.1403 29.0723 21.8154 29.4783 23.7363 29.4783C26.2803 29.4783 27.3096 28.9009 27.3096 27.8719C27.3094 24.516 14.3828 28.426 14.3828 19.4558C14.383 14.8996 18.242 12.8358 23.8789 12.8357ZM46.0713 12.8357C52.5432 12.8357 57.1748 16.6038 57.1748 23.3387C57.1746 30.0732 52.543 33.8406 46.0713 33.8406C39.5997 33.8405 34.969 30.0789 34.9688 23.3387C34.9688 16.5982 39.5938 12.8358 46.0713 12.8357ZM13.0693 18.2791H9.78223V28.49H13.0693V33.5262H0V28.49H3.28125V18.2791H0V13.242H13.0693V18.2791ZM46.0713 17.6092C43.5044 17.6093 41.875 19.2396 41.875 23.3387C41.8751 27.4374 43.5045 29.0671 46.0713 29.0672C48.6382 29.0672 50.2675 27.4376 50.2676 23.3387C50.2676 19.2394 48.6383 17.6092 46.0713 17.6092ZM15.6875 3.65994C26.5787 -3.27482 41.0258 -0.0623222 47.9551 10.823H46.2627C45.205 9.31376 43.9643 7.94728 42.5693 6.741C40.1625 7.3813 37.7157 7.83333 35.2402 8.09061C35.526 8.95378 35.7891 9.86841 36.0234 10.823H34.6055C34.3654 9.90265 34.1082 9.02766 33.8281 8.22733C32.0673 8.37026 30.2545 8.45096 28.3965 8.45096C26.4584 8.45096 24.5427 8.35895 22.6846 8.19315C22.3987 9.00494 22.1356 9.88548 21.8955 10.823H20.4609C20.6953 9.85693 20.9643 8.92521 21.2559 8.05057C18.7975 7.78186 16.3674 7.32453 13.9834 6.6785C12.5542 7.89619 11.2906 9.29094 10.2158 10.823H8.52344C10.3586 7.94166 12.8061 5.49512 15.6875 3.65994ZM28.2363 1.30448C26.464 1.30448 24.6341 3.38547 23.1934 6.83866C24.8856 6.98158 26.6239 7.05545 28.3848 7.05545C30.0427 7.05545 31.6893 6.98688 33.29 6.86112C31.8493 3.39095 30.0143 1.30448 28.2363 1.30448ZM31.6328 1.57889C32.7533 2.71663 33.8848 4.52937 34.748 6.73026C36.9206 6.513 39.0762 6.15232 41.1973 5.6492C38.3731 3.56825 35.0972 2.17353 31.6328 1.57889ZM24.8457 1.57889C21.4156 2.16778 18.1682 3.5394 15.3555 5.59744C17.4593 6.10624 19.5917 6.47799 21.7412 6.70096C22.5987 4.51151 23.731 2.71089 24.8457 1.57889Z" fill="url(#paint0_linear_57705_5964)"/>
<defs>
<linearGradient id="paint0_linear_57705_5964" x1="28.7241" y1="-5.41857" x2="28.7241" y2="51.1726" gradientUnits="userSpaceOnUse">
<stop offset="0.175" stop-color="white"/>
<stop offset="1" stop-color="#211825" stop-opacity="0.8"/>
</linearGradient>
</defs>
</svg>
