<svg width="58" height="64" viewBox="0 0 58 64" fill="none" xmlns="http://www.w3.org/2000/svg">
<path d="M30.2344 55.2119L17.1729 48.6807L4.11035 55.2119V37.7539C7.75463 40.4991 12.2703 42.1494 17.1729 42.1494C22.0753 42.1493 26.5902 40.499 30.2344 37.7539V55.2119ZM17.1738 3.44922C20.5704 3.44922 23.8907 4.4567 26.7148 6.34375C29.539 8.2308 31.7402 10.9128 33.04 14.0508C34.3399 17.1888 34.6802 20.6423 34.0176 23.9736C33.3549 27.3048 31.719 30.3649 29.3174 32.7666C26.9157 35.1683 23.8556 36.8042 20.5244 37.4668C17.1931 38.1294 13.7396 37.7891 10.6016 36.4893C7.46361 35.1894 4.78156 32.9881 2.89453 30.1641C1.00753 27.34 5.74053e-05 24.0196 0 20.623C0 16.0684 1.8097 11.7001 5.03027 8.47949C8.25094 5.25883 12.6191 3.44922 17.1738 3.44922ZM25.7607 13.4678C25.3813 13.4678 25.0174 13.6184 24.749 13.8867L14.3115 24.3232L9.59863 19.6113C9.32872 19.3506 8.96703 19.2057 8.5918 19.209C8.21683 19.2123 7.858 19.3629 7.59277 19.6279C7.32743 19.8933 7.17709 20.2527 7.17383 20.6279C7.17057 21.0032 7.31451 21.3649 7.5752 21.6348L13.2998 27.3594C13.5682 27.6276 13.9321 27.7783 14.3115 27.7783C14.6909 27.7783 15.0549 27.6275 15.3232 27.3594L26.7725 15.9102C27.0407 15.6418 27.1914 15.2779 27.1914 14.8984C27.1914 14.519 27.0406 14.1551 26.7725 13.8867C26.5041 13.6185 26.1402 13.4678 25.7607 13.4678Z" fill="#212121"/>
<path d="M30.2344 55.2119L17.1729 48.6807L4.11035 55.2119V37.7539C7.75463 40.4991 12.2703 42.1494 17.1729 42.1494C22.0753 42.1493 26.5902 40.499 30.2344 37.7539V55.2119ZM17.1738 3.44922C20.5704 3.44922 23.8907 4.4567 26.7148 6.34375C29.539 8.2308 31.7402 10.9128 33.04 14.0508C34.3399 17.1888 34.6802 20.6423 34.0176 23.9736C33.3549 27.3048 31.719 30.3649 29.3174 32.7666C26.9157 35.1683 23.8556 36.8042 20.5244 37.4668C17.1931 38.1294 13.7396 37.7891 10.6016 36.4893C7.46361 35.1894 4.78156 32.9881 2.89453 30.1641C1.00753 27.34 5.74053e-05 24.0196 0 20.623C0 16.0684 1.8097 11.7001 5.03027 8.47949C8.25094 5.25883 12.6191 3.44922 17.1738 3.44922ZM25.7607 13.4678C25.3813 13.4678 25.0174 13.6184 24.749 13.8867L14.3115 24.3232L9.59863 19.6113C9.32872 19.3506 8.96703 19.2057 8.5918 19.209C8.21683 19.2123 7.858 19.3629 7.59277 19.6279C7.32743 19.8933 7.17709 20.2527 7.17383 20.6279C7.17057 21.0032 7.31451 21.3649 7.5752 21.6348L13.2998 27.3594C13.5682 27.6276 13.9321 27.7783 14.3115 27.7783C14.6909 27.7783 15.0549 27.6275 15.3232 27.3594L26.7725 15.9102C27.0407 15.6418 27.1914 15.2779 27.1914 14.8984C27.1914 14.519 27.0406 14.1551 26.7725 13.8867C26.5041 13.6185 26.1402 13.4678 25.7607 13.4678Z" fill="url(#paint0_linear_41082_11367)"/>
<defs>
<linearGradient id="paint0_linear_41082_11367" x1="17.2562" y1="-2.03141" x2="17.1737" y2="63.0856" gradientUnits="userSpaceOnUse">
<stop offset="0.175" stop-color="white"/>
<stop offset="1" stop-color="#211825" stop-opacity="0.8"/>
</linearGradient>
</defs>
</svg>
