<svg width="24" height="24" viewBox="0 0 24 24" fill="none" xmlns="http://www.w3.org/2000/svg">
<path fill-rule="evenodd" clip-rule="evenodd" d="M16.86 10.2145C16.86 10.6984 16.2725 10.938 15.934 10.5921L9.00506 3.51033C9.94197 3.17981 10.95 3 12 3C13.7902 3 15.4583 3.52266 16.86 4.42371V10.2145ZM19.38 6.84737V10.2145C19.38 12.9568 16.0506 14.3146 14.1328 12.3545L6.68149 4.73884C4.4492 6.37667 3 9.0191 3 12C3 13.9165 3.599 15.693 4.62 17.1526V13.8035C4.62 11.0612 7.9494 9.70337 9.86722 11.6635L17.3082 19.2687C19.5464 17.6314 21 14.9855 21 12C21 10.0835 20.401 8.307 19.38 6.84737ZM8.06598 13.4259L14.9818 20.4943C14.0486 20.8219 13.0451 21 12 21C10.2098 21 8.54174 20.4773 7.14 19.5763V13.8035C7.14 13.3196 7.72754 13.08 8.06598 13.4259Z" fill="url(#paint0_radial_35932_48695)"/>
<path fill-rule="evenodd" clip-rule="evenodd" d="M16.86 10.2145C16.86 10.6984 16.2725 10.938 15.934 10.5921L9.00506 3.51033C9.94197 3.17981 10.95 3 12 3C13.7902 3 15.4583 3.52266 16.86 4.42371V10.2145ZM19.38 6.84737V10.2145C19.38 12.9568 16.0506 14.3146 14.1328 12.3545L6.68149 4.73884C4.4492 6.37667 3 9.0191 3 12C3 13.9165 3.599 15.693 4.62 17.1526V13.8035C4.62 11.0612 7.9494 9.70337 9.86722 11.6635L17.3082 19.2687C19.5464 17.6314 21 14.9855 21 12C21 10.0835 20.401 8.307 19.38 6.84737ZM8.06598 13.4259L14.9818 20.4943C14.0486 20.8219 13.0451 21 12 21C10.2098 21 8.54174 20.4773 7.14 19.5763V13.8035C7.14 13.3196 7.72754 13.08 8.06598 13.4259Z" fill="url(#paint1_linear_35932_48695)"/>
<path fill-rule="evenodd" clip-rule="evenodd" d="M16.86 10.2145C16.86 10.6984 16.2725 10.938 15.934 10.5921L9.00506 3.51033C9.94197 3.17981 10.95 3 12 3C13.7902 3 15.4583 3.52266 16.86 4.42371V10.2145ZM19.38 6.84737V10.2145C19.38 12.9568 16.0506 14.3146 14.1328 12.3545L6.68149 4.73884C4.4492 6.37667 3 9.0191 3 12C3 13.9165 3.599 15.693 4.62 17.1526V13.8035C4.62 11.0612 7.9494 9.70337 9.86722 11.6635L17.3082 19.2687C19.5464 17.6314 21 14.9855 21 12C21 10.0835 20.401 8.307 19.38 6.84737ZM8.06598 13.4259L14.9818 20.4943C14.0486 20.8219 13.0451 21 12 21C10.2098 21 8.54174 20.4773 7.14 19.5763V13.8035C7.14 13.3196 7.72754 13.08 8.06598 13.4259Z" fill="url(#paint2_linear_35932_48695)"/>
<defs>
<radialGradient id="paint0_radial_35932_48695" cx="0" cy="0" r="1" gradientUnits="userSpaceOnUse" gradientTransform="translate(12 12) rotate(135) scale(12.7279)">
<stop offset="0.34" stop-color="#FF006A"/>
<stop offset="0.613333" stop-color="#E300BD"/>
<stop offset="0.766667" stop-color="#FF4CE1"/>
</radialGradient>
<linearGradient id="paint1_linear_35932_48695" x1="14.1" y1="2.4" x2="12" y2="21" gradientUnits="userSpaceOnUse">
<stop offset="0.0851785" stop-color="#FFBA33"/>
<stop offset="0.553333" stop-color="#FF006A" stop-opacity="0"/>
</linearGradient>
<linearGradient id="paint2_linear_35932_48695" x1="12" y1="3" x2="12" y2="21" gradientUnits="userSpaceOnUse">
<stop offset="0.546667" stop-opacity="0"/>
<stop offset="1" stop-opacity="0.6"/>
</linearGradient>
</defs>
</svg>
