<svg width="16" height="16" viewBox="0 0 16 16" fill="none" xmlns="http://www.w3.org/2000/svg">
<path d="M7.33073 6.66927C8.80346 6.66927 9.9974 5.47536 9.9974 4.0026C9.9974 2.52984 8.80346 1.33594 7.33073 1.33594C5.85797 1.33594 4.66406 2.52984 4.66406 4.0026C4.66406 5.47536 5.85797 6.66927 7.33073 6.66927Z" stroke="#00D5FF" stroke-linecap="round" stroke-linejoin="round"/>
<path d="M5.33333 14.5699C4.22222 14.4688 3.11111 14.283 2 14.0052C2 11.0599 4.388 8.67188 7.33333 8.67188C7.8102 8.67188 8.27133 8.73628 8.7102 8.85514" stroke="#00D5FF" stroke-linecap="round" stroke-linejoin="round"/>
<path d="M10 15.3335L14.3333 11.0001C14.8856 10.4479 14.8856 9.5524 14.3333 9.00014C13.7811 8.44787 12.8856 8.44787 12.3333 9.00014L8 13.3335V15.3335H10Z" stroke="#00D5FF" stroke-linecap="round" stroke-linejoin="round"/>
</svg>
