<svg width="24" height="24" viewBox="0 0 24 24" fill="none" xmlns="http://www.w3.org/2000/svg">
<path d="M11.4579 9.342C11.6159 9.112 11.7889 9.082 11.9299 9.082C12.0699 9.082 12.3039 9.112 12.4619 9.342C14.5219 12.148 18.7939 19.55 19.1889 19.953C19.7739 20.55 20.5769 20.178 21.0429 19.501C21.5029 18.834 21.6299 18.366 21.6299 17.867C21.6299 17.527 14.9769 5.253 14.3059 4.231C13.6619 3.248 13.4519 3 12.3499 3H11.5249C10.4249 3 10.2659 3.248 9.62187 4.23C8.94987 5.254 2.29688 17.528 2.29688 17.868C2.29688 18.368 2.42388 18.835 2.88388 19.502C3.34987 20.179 4.15287 20.552 4.73787 19.954C5.13287 19.551 9.39888 12.149 11.4579 9.344V9.342Z" fill="#EDEEF0"/>
</svg>
