<svg width="24" height="24" viewBox="0 0 24 24" fill="none" xmlns="http://www.w3.org/2000/svg">
<path d="M4.66406 17.9598L11.6463 4.868C11.7934 4.59208 12.1913 4.59712 12.3311 4.87716L14.7474 9.70983L4.66406 17.9598Z" fill="#FF8F00"/>
<path d="M4.66406 17.9556L7.20598 2.28105C7.27244 1.87084 7.82335 1.78193 8.01585 2.15043L12.9141 11.5389L4.66406 17.9556Z" fill="#FFA000"/>
<path d="M4.67188 17.9529L4.76354 17.881L12.7977 11.308L10.5317 6.96484L4.67188 17.9529Z" fill="#FF6F00"/>
<path d="M4.66406 17.959L16.886 6.17388C17.1422 5.92684 17.5698 6.07259 17.6221 6.42459L19.3307 17.959L12.4557 21.9662C12.1766 22.123 11.8361 22.123 11.5569 21.9662L4.66406 17.959Z" fill="#FFC400"/>
</svg>
