<svg width="24" height="24" viewBox="0 0 24 24" fill="none" xmlns="http://www.w3.org/2000/svg">
<path d="M11.9817 2C6.46361 2.01109 1.96856 6.55216 2.00017 12.0834C2.01431 14.5561 2.93951 16.9363 4.59798 18.7666C6.25644 20.597 8.53116 21.7483 10.985 21.9994C11.0092 22.0019 11.0335 21.9965 11.0544 21.9842C11.0753 21.9718 11.0918 21.9531 11.1014 21.9308C11.1079 21.9161 11.1113 21.9003 11.1114 21.8843V12.0258H10.3339C10.3188 12.0259 10.3038 12.023 10.2898 12.0172C10.2758 12.0115 10.2631 12.003 10.2524 11.9923C10.2416 11.9816 10.2331 11.9689 10.2273 11.9549C10.2215 11.9409 10.2185 11.9259 10.2185 11.9107V10.355C10.2185 10.3398 10.2214 10.3247 10.2272 10.3106C10.2329 10.2966 10.2414 10.2838 10.2522 10.273C10.2629 10.2623 10.2756 10.2538 10.2897 10.248C10.3037 10.2422 10.3187 10.2392 10.3339 10.2393H12.7729C12.788 10.2393 12.803 10.2423 12.817 10.2481C12.8309 10.2539 12.8436 10.2625 12.8543 10.2732C12.865 10.284 12.8734 10.2967 12.8792 10.3107C12.8849 10.3248 12.8878 10.3398 12.8877 10.355V21.8843C12.8877 21.9004 12.891 21.9164 12.8975 21.9312C12.9039 21.946 12.9134 21.9592 12.9254 21.9701C12.9373 21.981 12.9514 21.9892 12.9667 21.9942C12.982 21.9993 12.9982 22.001 13.0142 21.9994C15.5669 21.7384 17.9218 20.5038 19.5919 18.5509C21.2619 16.598 22.1193 14.0763 21.9866 11.5074C21.8539 8.93852 20.7413 6.51907 18.879 4.74954C17.0167 2.98001 14.5471 1.99581 11.9812 2.00053L11.9817 2ZM14.8237 19.7661C14.8063 19.7723 14.7878 19.7742 14.7695 19.7717C14.7513 19.7691 14.7339 19.7623 14.7189 19.7516C14.7038 19.7409 14.6916 19.7268 14.6832 19.7104C14.6747 19.694 14.6703 19.6758 14.6704 19.6573V18.0118C14.6703 17.979 14.6796 17.947 14.697 17.9193C14.7145 17.8916 14.7394 17.8695 14.7689 17.8555C16.0965 17.2221 17.168 16.1524 17.8054 14.8241C18.4428 13.4958 18.6076 11.9889 18.2726 10.5537C17.9375 9.11848 17.1227 7.8414 15.9636 6.9346C14.8044 6.02779 13.3707 5.54586 11.9006 5.56885C8.47962 5.62166 5.67238 8.38729 5.56334 11.8157C5.52361 13.071 5.84956 14.3107 6.50134 15.3834C7.15313 16.456 8.10251 17.315 9.23344 17.8555C9.26305 17.8694 9.28809 17.8915 9.30563 17.9192C9.32317 17.9469 9.33248 17.979 9.33248 18.0118V19.6573C9.33244 19.6758 9.32798 19.694 9.31948 19.7104C9.31098 19.7268 9.29868 19.7409 9.28362 19.7516C9.26855 19.7622 9.25116 19.7691 9.2329 19.7716C9.21464 19.7742 9.19604 19.7723 9.17866 19.7661C7.58518 19.1798 6.21141 18.1141 5.2454 16.7149C4.27939 15.3157 3.76836 13.6514 3.78228 11.9498C3.82126 7.47369 7.46977 3.81928 11.9358 3.78654C16.4989 3.74957 20.2201 7.45995 20.2201 12.0258C20.2201 15.5762 17.9707 18.6091 14.8237 19.7661Z" fill="#E54B4D"/>
</svg>
