<svg width="24" height="24" viewBox="0 0 24 24" fill="none" xmlns="http://www.w3.org/2000/svg">
<path d="M12.0245 6.17861L10.4692 7.08201C10.4448 7.09616 10.4298 7.12224 10.4297 7.15052V21.0094C10.4299 21.0234 10.4374 21.0362 10.4494 21.0432L12.0837 21.9922C12.0959 21.9992 12.1107 21.9993 12.1229 21.9923C12.1351 21.9855 12.1427 21.9726 12.143 21.9585V6.24711C12.1428 6.21879 12.1277 6.19266 12.1033 6.17854C12.0789 6.16442 12.0489 6.16444 12.0245 6.17861Z" fill="#2AE9AA"/>
<path d="M13.9532 20.9164V19.1423C13.9529 19.1139 13.9677 19.0876 13.992 19.0733C14.0162 19.059 14.0462 19.0589 14.0705 19.0731L15.5327 19.9261C15.5565 19.9405 15.5712 19.9666 15.5712 19.9948C15.5712 20.0229 15.5565 20.049 15.5327 20.0634L14.0119 20.953C13.9994 20.9602 13.9839 20.96 13.9717 20.9524C13.9594 20.9447 13.9523 20.9309 13.9532 20.9164Z" fill="#2AE9AA"/>
<path d="M13.8595 16.9756V15.1606C13.8595 15.1324 13.8749 15.1065 13.8997 15.0925C13.9245 15.0785 13.955 15.0785 13.9798 15.0926L18.9586 17.9177C18.9837 17.9317 18.9992 17.9579 18.9992 17.9862C18.9992 18.0145 18.9837 18.0406 18.9586 18.0547L17.3595 18.9632C17.3471 18.97 17.3319 18.97 17.3194 18.9632L13.8795 17.0111C13.8663 17.0042 13.8585 16.9903 13.8595 16.9756Z" fill="#2AE9AA"/>
<path d="M13.9531 13.0086V11.1817C13.9528 11.1531 13.968 11.1267 13.9928 11.1124C14.0177 11.098 14.0483 11.098 14.0732 11.1122L20.8613 14.9963C20.8862 15.0108 20.9014 15.0372 20.9014 15.0657V16.9384C20.9015 16.9526 20.8939 16.9658 20.8815 16.973C20.8691 16.9802 20.8537 16.9802 20.8413 16.9731L13.9731 13.0434C13.9605 13.0363 13.9528 13.023 13.9531 13.0086Z" fill="#2AE9AA"/>
<path d="M13.9531 9.02425V7.19725C13.9528 7.16877 13.968 7.14234 13.9928 7.128C14.0176 7.11365 14.0483 7.11358 14.0732 7.12782L20.8613 11.012C20.8862 11.026 20.9014 11.0521 20.9014 11.0804V12.954C20.9015 12.9682 20.8939 12.9814 20.8815 12.9886C20.8691 12.9958 20.8537 12.9959 20.8413 12.9887L13.9731 9.05699C13.9609 9.0505 13.9533 9.03796 13.9531 9.02425Z" fill="#2AE9AA"/>
<path d="M8.59662 8.16905L7.03955 9.07244C7.01502 9.08643 6.9999 9.1126 7 9.14094V19.0207C7.00023 19.0346 7.00773 19.0474 7.01978 19.0544L8.65296 20.0035C8.66539 20.0104 8.68056 20.0104 8.69291 20.0033C8.70527 19.9961 8.71299 19.983 8.71327 19.9687V8.23854C8.71257 8.21088 8.69777 8.18552 8.67407 8.17141C8.65038 8.15729 8.62112 8.1564 8.59662 8.16905Z" fill="#2AE9AA"/>
<path d="M5.07618 10.1601L3.5239 11.0629C3.4994 11.0769 3.4843 11.103 3.48441 11.1313V17.0273C3.48383 17.0418 3.4915 17.0553 3.50415 17.0621L5.13839 18.0105C5.15066 18.0176 5.1658 18.0176 5.17804 18.0105C5.19029 18.0033 5.19777 17.9901 5.19763 17.9758V10.2296C5.1979 10.2004 5.18243 10.1734 5.15722 10.159C5.132 10.1445 5.10099 10.145 5.07618 10.1601Z" fill="#2AE9AA"/>
<path d="M3.48444 8.87751V7.00396C3.48412 6.97559 3.49952 6.94932 3.52457 6.9355L12.1548 2.01048C12.1797 1.99651 12.2103 1.99651 12.2351 2.01048L20.8624 6.93748C20.8875 6.9513 20.9029 6.97758 20.9025 7.00595V8.87751C20.9027 8.89176 20.8951 8.90498 20.8826 8.91216C20.8703 8.91933 20.8548 8.91937 20.8424 8.91224L12.2151 3.98624C12.2026 3.97936 12.1874 3.97936 12.1749 3.98624L3.54764 8.91224C3.53505 8.92104 3.51849 8.92192 3.50501 8.91452C3.49154 8.90711 3.48355 8.89273 3.48444 8.87751Z" fill="#2AE9AA"/>
</svg>
