<svg width="24" height="24" viewBox="0 0 24 24" fill="none" xmlns="http://www.w3.org/2000/svg">
<path d="M11.3768 10.5034C10.5449 11.9019 9.74784 13.2562 8.93418 14.6003C8.72522 14.9454 8.6218 15.2265 8.78873 15.6651C9.24962 16.8768 8.59945 18.056 7.37751 18.3761C6.22512 18.6781 5.10237 17.9207 4.87373 16.6869C4.67111 15.5949 5.51857 14.5244 6.72263 14.3537C6.82347 14.3393 6.9265 14.3376 7.09602 14.3249L8.92752 11.2537C7.7756 10.1083 7.08998 8.76949 7.2417 7.11033C7.34897 5.93756 7.81018 4.92403 8.65308 4.09335C10.2675 2.50257 12.7306 2.245 14.6315 3.466C16.4572 4.63885 17.2934 6.9234 16.5806 8.87871C16.0432 8.73302 15.502 8.58608 14.9071 8.42472C15.1309 7.33756 14.9654 6.36136 14.2322 5.52504C13.7478 4.97288 13.1261 4.68347 12.4193 4.57683C11.0023 4.36277 9.61109 5.27311 9.19827 6.66394C8.72969 8.24234 9.43891 9.53171 11.3768 10.5034Z" fill="#C73A63"/>
<path d="M13.7522 8.84725C14.3383 9.88124 14.9334 10.9308 15.5232 11.9708C18.5044 11.0485 20.7521 12.6987 21.5584 14.4656C22.5324 16.5998 21.8666 19.1276 19.9538 20.4443C17.9904 21.7959 15.5074 21.565 13.7679 19.8287C14.2112 19.4576 14.6567 19.0848 15.1327 18.6866C16.8509 19.7994 18.3536 19.747 19.4692 18.4293C20.4205 17.3051 20.3999 15.6289 19.421 14.5284C18.2912 13.2584 16.778 13.2196 14.9489 14.4387C14.1901 13.0926 13.4181 11.7572 12.6834 10.4013C12.4356 9.94436 12.1621 9.67918 11.6037 9.5825C10.6711 9.42082 10.0691 8.62002 10.033 7.72286C9.99743 6.83557 10.5202 6.03351 11.3372 5.72105C12.1466 5.41141 13.0963 5.6613 13.6407 6.34943C14.0856 6.91163 14.227 7.54439 13.9929 8.23777C13.9278 8.43113 13.8435 8.61814 13.7522 8.84725Z" fill="#5C5C5C"/>
<path d="M15.1498 17.302H11.561C11.217 18.7168 10.474 19.8591 9.19379 20.5854C8.19853 21.15 7.12589 21.3414 5.98424 21.1571C3.88223 20.8181 2.16348 18.9258 2.01215 16.7951C1.8409 14.3813 3.49998 12.2358 5.71137 11.7539C5.86404 12.3083 6.01835 12.8681 6.17101 13.4212C4.14208 14.4564 3.43984 15.7607 4.00768 17.3916C4.50755 18.8268 5.92747 19.6135 7.46924 19.3092C9.04371 18.9986 9.83754 17.6901 9.74062 15.5901C11.2332 15.5901 12.7271 15.5747 14.2199 15.5977C14.8028 15.6069 15.2528 15.5464 15.6919 15.0325C16.4148 14.187 17.7455 14.2633 18.5241 15.0619C19.3198 15.878 19.2817 17.1912 18.4396 17.973C17.6272 18.7273 16.3438 18.687 15.5836 17.8742C15.4275 17.7067 15.3044 17.5078 15.1498 17.302Z" fill="#5C5C5C"/>
</svg>
