<svg width="24" height="24" viewBox="0 0 24 24" fill="none" xmlns="http://www.w3.org/2000/svg">
<path d="M12 22C17.5228 22 22 17.5228 22 12C22 6.47715 17.5228 2 12 2C6.47715 2 2 6.47715 2 12C2 17.5228 6.47715 22 12 22Z" fill="#D81E00"/>
<path d="M12.0272 4.49219C11.9181 4.49219 11.81 4.51407 11.7092 4.5566C11.6084 4.59913 11.5168 4.66146 11.4396 4.74004C11.3624 4.81862 11.3012 4.91191 11.2595 5.01458C11.2177 5.11724 11.1962 5.22727 11.1963 5.33839C11.1966 5.39775 11.2031 5.4569 11.2156 5.51487C10.3338 5.70702 9.53885 6.20485 8.958 6.92863C8.37715 7.65242 8.04404 8.56028 8.01203 9.50683H8.00499V12.7894C7.81386 13.3693 7.34474 14.1595 6.19425 14.7093C5.98086 14.7524 5.78896 14.8678 5.65106 15.0359C5.51315 15.204 5.43771 15.4145 5.4375 15.6318C5.43768 15.8519 5.51513 16.065 5.65638 16.2341C5.79763 16.4032 5.99377 16.5176 6.21076 16.5575V16.5625H6.24465C6.29003 16.5696 6.33586 16.5733 6.38179 16.5737C6.42876 16.5735 6.47566 16.5698 6.52208 16.5625H17.4669C17.5124 16.5696 17.5583 16.5734 17.6044 16.5737C17.6512 16.5735 17.698 16.5697 17.7444 16.5625H17.7975V16.5528C18.0096 16.5085 18.2 16.3929 18.3367 16.2252C18.4735 16.0575 18.5482 15.8479 18.5485 15.6318C18.5483 15.4201 18.4767 15.2147 18.3452 15.0487C18.2137 14.8826 18.0301 14.7655 17.8238 14.7163C16.7528 14.2086 16.2701 13.4938 16.0504 12.9286V9.50669H16.0452C16.0138 8.55964 15.6809 7.65111 15.1 6.92674C14.5191 6.20238 13.7238 5.70412 12.8416 5.51186C12.8532 5.45514 12.8592 5.39735 12.8592 5.3394C12.8593 5.22828 12.8378 5.11824 12.796 5.01558C12.7543 4.91291 12.6931 4.81963 12.6159 4.74105C12.5387 4.66247 12.4471 4.60014 12.3463 4.55761C12.2455 4.51508 12.1374 4.49319 12.0282 4.49319L12.0272 4.49219ZM10.1605 16.9276C10.1944 17.3785 10.4023 17.8003 10.7424 18.1082C11.0825 18.4161 11.5297 18.5873 11.9942 18.5875C12.4584 18.587 12.9053 18.4156 13.2451 18.1077C13.5849 17.7998 13.7926 17.3783 13.8265 16.9276H10.1605Z" fill="#EEEEEE"/>
</svg>
