<svg width="24" height="24" viewBox="0 0 24 24" fill="none" xmlns="http://www.w3.org/2000/svg">
<circle cx="12" cy="12" r="10" fill="white"/>
<path fill-rule="evenodd" clip-rule="evenodd" d="M4.53455 18.6507C2.95832 16.8831 2 14.5526 2 11.9999C2 6.48084 6.48084 2 11.9999 2C17.519 2 21.9998 6.48084 21.9998 11.9999C21.9998 17.5192 17.519 22 11.9999 22C11.8222 22 11.6456 21.9953 11.4698 21.9862C12.2707 19.5887 13.8876 15.7609 16.4977 16.3724C16.6783 16.9011 17.175 17.2817 17.7682 17.2817C18.5098 17.2817 19.1095 16.6819 19.1095 15.9401C19.1031 15.5016 18.884 15.1083 18.555 14.8634C18.4325 14.7665 18.2778 14.6828 18.0907 14.6117L14.8985 13.3864C15.0727 13.3993 15.2401 13.4058 15.4014 13.4058C16.4786 13.4058 17.3685 13.1415 18.0649 12.6061C19.5739 11.4518 19.5354 9.49119 19.5354 9.41393C19.5289 9.16251 19.316 8.95606 19.0646 8.96897C18.8129 8.97543 18.6067 9.1881 18.6196 9.43976C18.6196 9.45268 18.6517 11.0069 17.5104 11.8774C17.2396 12.0839 16.9235 12.2386 16.5688 12.3418C17.5876 11.3679 17.6393 9.92347 17.6393 9.85242C17.6458 9.601 17.4458 9.38809 17.1943 9.38163C16.9427 9.37517 16.73 9.57516 16.7236 9.82658C16.7236 9.8395 16.6783 11.1617 15.7239 11.8516C15.5241 11.9934 15.2983 12.1032 15.0469 12.1741C15.782 11.3937 15.8207 10.3167 15.8207 10.2651C15.8272 10.0137 15.6272 9.80074 15.3758 9.79428C15.1241 9.78806 14.9115 9.98782 14.905 10.2395C14.905 10.2524 14.8598 11.226 14.1761 11.7227C13.7441 12.0387 13.125 12.0903 12.3317 11.9356C11.2741 11.7291 10.6036 11.3358 10.3325 10.7552C9.92633 9.89118 10.5132 8.80774 10.5261 8.78837C10.6679 8.53695 10.5777 8.21448 10.3261 8.07262C10.0747 7.93076 9.75218 8.01449 9.61032 8.27237C9.57803 8.3305 8.92041 9.51058 9.21059 10.7294C9.01706 10.5426 8.86874 10.3426 8.76564 10.1168C8.20442 8.9173 9.0106 7.45352 9.02352 7.42768C9.16538 7.17626 9.0752 6.85379 8.82354 6.71194C8.57212 6.56984 8.24964 6.6538 8.10778 6.91168C8.06902 6.98272 7.15976 8.61422 7.6693 10.2072C7.34037 9.91701 7.10162 9.59454 6.94685 9.23332C6.3342 7.82742 7.28223 6.30549 7.28869 6.28612C7.44347 6.04115 7.37265 5.71868 7.12745 5.55745C6.88249 5.40267 6.56002 5.47349 6.39879 5.71869C6.34712 5.80242 5.1412 7.71785 5.97321 9.63975C6.59877 11.0842 8.17213 12.0839 10.6485 12.619C10.8485 12.6707 11.6224 12.8513 11.7064 12.8704H11.6805L8.51397 13.0963C8.51397 13.0963 8.83645 14.9084 11.242 13.8249L4.53455 18.6507ZM13.4603 14.8954C13.1895 14.8954 12.9637 14.6763 12.9637 14.399C12.9637 14.128 13.1831 13.9024 13.4603 13.9024C13.7311 13.9024 13.957 14.1216 13.957 14.399C13.957 14.6698 13.7311 14.8954 13.4603 14.8954Z" fill="#15115F"/>
</svg>
