<svg width="24" height="24" viewBox="0 0 24 24" fill="none" xmlns="http://www.w3.org/2000/svg">
<path d="M20.6121 20.1894C20.5701 20.1932 20.528 20.1966 20.4859 20.1994C19.7644 20.246 19.0222 20.2132 18.2964 20.2248C17.178 20.2427 15.9678 20.3401 15.2293 19.3131C14.8765 18.8224 14.94 18.3382 14.8883 17.7633C14.8394 16.6653 14.8461 15.5537 14.8455 14.4524C14.8396 12.5285 14.8484 10.6045 14.8719 8.68077C14.8718 7.9256 14.8788 7.17045 14.8928 6.41542C14.9006 6.02544 14.9268 5.65223 14.9295 5.25897L14.935 3.92887C14.9381 3.27636 14.8998 2.6613 15.3817 2.14542C16.2252 1.25046 17.5193 1.27827 18.4032 2.09671C18.9937 2.64344 18.9815 3.3074 18.972 4.04637C18.9667 4.46351 18.9569 4.92698 18.977 5.34228C19.2119 5.93414 21.8026 4.87717 22.6978 6.72798C22.9248 7.2061 22.9562 7.75391 22.7854 8.25484C22.493 9.09147 21.449 9.75071 20.5726 9.66627C20.1745 9.69078 19.3466 9.71396 18.9521 9.69392C18.9794 9.91441 18.9711 10.2417 18.971 10.471L18.97 11.6878L18.9709 15.8931C20.1372 16.3437 21.0474 15.6015 22.1993 16.6216C22.4138 16.8116 22.6058 16.9951 22.7248 17.2616C22.9211 17.7013 22.9564 18.3483 22.7801 18.7991C22.6083 19.2386 22.2067 19.7166 21.7696 19.9093C21.4339 20.0573 20.9728 20.1547 20.6121 20.1894Z" fill="#F48F21"/>
<path d="M18.9717 15.8936C20.138 16.3442 21.0482 15.602 22.2001 16.6221C22.4146 16.8121 22.6066 16.9956 22.7256 17.2621C22.9219 17.7018 22.9572 18.3488 22.7809 18.7996C22.6091 19.2391 22.2075 19.7171 21.7704 19.9098C21.4347 20.0578 20.9736 20.1552 20.6129 20.1899C20.5169 20.1705 20.3764 20.1037 20.2827 20.0691C19.8233 19.8992 19.482 19.6592 19.2084 19.249C19.1145 19.1083 18.9883 18.8861 18.9722 18.7185C18.9332 18.314 18.9493 17.7653 18.9539 17.3603C18.9575 17.0517 18.9229 16.1511 18.9717 15.8936Z" fill="#E8252C"/>
<path d="M18.9761 5.34277C19.211 5.93463 21.8018 4.87766 22.697 6.72848C22.9239 7.20659 22.9553 7.7544 22.7845 8.25533C22.4921 9.09196 21.4481 9.7512 20.5717 9.66676C20.4749 9.62719 20.2158 9.52486 20.1354 9.47788C19.877 9.32688 19.4016 8.96526 19.2336 8.73689C19.1072 8.56434 19.0206 8.36589 18.9801 8.15585C18.9338 7.9192 18.9456 7.16384 18.9499 6.88132C18.9557 6.50213 18.9233 5.69747 18.9761 5.34277Z" fill="#E8252C"/>
<path d="M7.9243 20.1593C7.75434 20.1812 7.58321 20.1927 7.41186 20.194C6.5423 20.2056 5.99655 20.1976 5.14582 19.9758C4.51415 19.8111 4.13886 19.6917 3.59105 19.2989C3.27872 19.075 2.95928 18.8997 2.69138 18.6099C2.1414 18.0479 1.44875 17.0981 1.22001 16.3261C0.924028 15.3272 0.784311 13.9597 1.0105 12.9356C1.05514 12.7335 1.08256 12.4256 1.1449 12.247C1.32422 11.7333 1.60701 11.2185 1.94497 10.7925C2.07468 10.6289 2.26524 10.2655 2.4348 10.1425C2.75442 9.91049 3.11771 9.49902 3.43388 9.29728C4.20344 8.80629 5.2052 8.41255 6.11264 8.30391C6.38488 8.27132 6.73395 8.28681 7.01064 8.28736L8.34051 8.2883C8.33988 8.39461 8.50627 8.42112 8.59226 8.45546C9.20083 8.69856 9.86979 9.44512 9.8645 10.1309C9.86148 10.5222 9.94223 12.3134 9.772 12.5735C9.7128 12.4712 9.76468 12.3501 9.71407 12.2533C9.54725 11.9553 9.19547 12.1212 8.92137 12.1104C8.7147 12.1022 8.34696 11.9349 8.13692 11.9848C8.08008 11.9983 8.02697 12.2063 8.00668 12.2735C7.77891 12.1857 7.62811 12.0896 7.40974 11.9946C7.30612 11.9496 7.16426 11.9677 7.08079 11.9015C7.03217 11.8153 7.05533 11.5446 7.05888 11.4343C6.66985 11.4032 6.17278 11.4351 5.81326 11.5827C5.62447 11.6602 5.48356 11.6096 5.31168 11.5205C5.19104 11.6794 5.03654 11.7817 4.91084 11.9279C4.82924 12.0279 4.78032 12.2036 4.68705 12.2899C4.56302 12.411 4.3189 12.4906 4.20899 12.6216C4.08923 12.7642 3.88647 13.0691 3.83297 13.2458C3.79864 13.3591 3.85888 13.5723 3.82827 13.7066C3.7825 13.9073 3.61905 14.0646 3.67772 14.2754C3.74375 14.4475 3.83364 14.5551 3.94353 14.7117C4.14343 14.9966 4.5308 15.5094 4.92651 15.4559C4.98451 15.4481 4.97357 15.3456 4.99657 15.2833L5.03034 15.2928C5.05924 15.3495 5.10348 15.4605 5.14004 15.5027C5.44565 15.8551 5.95054 16.0694 6.39307 16.1867C6.50932 16.2175 6.74177 16.2257 6.86839 16.239C7.07928 16.5135 7.43856 17.1695 7.30812 17.4662C7.04851 18.057 7.01168 18.0925 7.35373 18.6694C7.42325 18.7866 7.47412 19.1497 7.54924 19.3002C7.70957 19.6214 7.84458 19.7932 7.9243 20.1593Z" fill="#0A7540"/>
<path d="M8.34375 8.28865C8.8275 8.24039 9.7106 8.26721 10.2241 8.26708L11.3757 8.26749C12.2494 8.26847 12.4877 8.26239 13.1865 8.81346C13.988 9.4455 13.98 10.0745 13.8932 11.0138C13.8677 11.2897 13.8833 11.7259 13.8834 12.0204L13.8845 16.5104L13.8844 17.7332C13.8841 18.5123 13.8638 18.9111 13.3385 19.5475C12.6633 20.3657 11.2833 20.3211 10.5035 19.6775C10.1151 19.3523 10.0202 19.0493 9.92011 18.5792C10.1248 17.958 10.536 18.278 10.6126 17.7726C10.6479 17.5401 10.5143 17.0133 10.4606 16.7639C10.7325 15.8764 11.7121 15.8324 11.947 14.4953C11.6796 14.5098 11.1515 14.7138 11.0521 14.6641C10.9602 14.5748 10.9456 14.3899 10.861 14.3016C10.7297 14.1647 10.5569 14.0633 10.4239 13.9244C10.0495 13.5336 9.97474 13.0124 9.77525 12.5739C9.94547 12.3137 9.86473 10.5226 9.86775 10.1312C9.87303 9.44548 9.20408 8.69892 8.5955 8.45582C8.50951 8.42148 8.34312 8.39497 8.34375 8.28865Z" fill="#129647"/>
</svg>
