<svg width="24" height="24" viewBox="0 0 24 24" fill="none" xmlns="http://www.w3.org/2000/svg">
<path d="M9.69015 20.0575L7.6331 19.481L5.6875 17.2625L8.12112 17.1953L9.69015 20.0575Z" fill="#995B80"/>
<path d="M4.9391 18.5953L3.78151 18.2711L2.6875 17.0233L4.01684 16.8047L4.9391 18.5953Z" fill="#995B80"/>
<path d="M2 16.8632L3.18319 17.1038L3.35494 16.8017V6.55086L3.18319 6.35156L2 7.02534V16.8632Z" fill="#7B3F65"/>
<path d="M7.75754 7.42285L3.1875 6.35156V17.1038L3.87217 17.0401L4.94174 18.5921L5.76664 16.8641L7.75754 16.679V7.42285Z" fill="#C17B9D"/>
<path d="M4.64062 17.4194L6.66887 17.828L6.80241 17.5132V4.91412L6.66887 4.62891L4.64062 5.65677V17.4194Z" fill="#7B3F65"/>
<path d="M18.2449 8.34416L6.67188 4.62891V17.8283L8.01203 17.6558L9.69553 20.0575L11.0283 17.2677L18.2449 16.339V8.34416Z" fill="#C17B9D"/>
<path d="M16.1477 21.9604L13.2243 21.1413L10.4609 17.9895L14.0433 17.9531L16.1477 21.9604Z" fill="#995B80"/>
<path d="M8.96875 18.2607L11.9516 18.8379L12.1833 18.6382V2.32039L11.9516 2L8.96875 3.49089V18.2607Z" fill="#7B3F65"/>
<path d="M21.9201 6.98311L11.9531 2V18.8379L13.7116 18.4855L16.1483 21.9605L18.2418 17.5784L18.2404 17.5783L21.9201 16.8411V6.98311Z" fill="#C17B9D"/>
</svg>
