<svg width="24" height="24" viewBox="0 0 24 24" fill="none" xmlns="http://www.w3.org/2000/svg">
<path d="M8.99876 3.52246H14.3234L8.7959 19.8999C8.7391 20.0682 8.63094 20.2144 8.48667 20.318C8.34237 20.4216 8.16925 20.4773 7.99162 20.4774H3.84773C3.71316 20.4774 3.58051 20.4454 3.46077 20.384C3.34102 20.3225 3.23763 20.2335 3.15913 20.1242C3.08063 20.0148 3.02929 19.8884 3.00935 19.7553C2.98942 19.6222 3.00146 19.4863 3.04447 19.3588L8.19428 4.09996C8.25107 3.9316 8.35925 3.78529 8.50356 3.68165C8.64789 3.57802 8.8211 3.52247 8.99876 3.52246Z" fill="url(#paint0_linear_35938_49241)"/>
<path d="M16.7333 14.5078H8.28966C8.21115 14.5077 8.13445 14.5313 8.06952 14.5754C8.00461 14.6195 7.95449 14.6822 7.92568 14.7552C7.89689 14.8283 7.89075 14.9083 7.90807 14.9848C7.92539 15.0614 7.96537 15.131 8.02279 15.1845L13.4485 20.2486C13.6064 20.396 13.8144 20.4779 14.0305 20.4779H18.8116L16.7333 14.5078Z" fill="#0078D4"/>
<path d="M8.99769 3.52247C8.81806 3.52178 8.64293 3.57854 8.49786 3.68446C8.35279 3.79038 8.24539 3.93991 8.19136 4.11121L3.04973 19.3449C3.00382 19.4729 2.9894 19.61 3.00771 19.7447C3.02601 19.8795 3.0765 20.0078 3.15489 20.1189C3.23328 20.23 3.33728 20.3206 3.45808 20.383C3.57888 20.4454 3.71293 20.4778 3.8489 20.4774H8.09975C8.25807 20.4491 8.40604 20.3793 8.52856 20.2751C8.65107 20.1709 8.74373 20.0361 8.79708 19.8844L9.82242 16.8625L13.4849 20.2786C13.6384 20.4056 13.8309 20.4758 14.0301 20.4774H18.7934L16.7043 14.5074L10.6142 14.5088L14.3416 3.52247H8.99769Z" fill="url(#paint1_linear_35938_49241)"/>
<path d="M15.8078 4.09914C15.7511 3.93105 15.6431 3.78499 15.499 3.68153C15.3549 3.57808 15.182 3.52244 15.0046 3.52246H9.07031C9.24771 3.52247 9.42061 3.57812 9.56472 3.68157C9.70881 3.78502 9.81684 3.93107 9.87357 4.09914L15.0236 19.3586C15.0666 19.4861 15.0787 19.6221 15.0588 19.7552C15.0389 19.8883 14.9875 20.0148 14.909 20.1242C14.8305 20.2335 14.7271 20.3226 14.6074 20.3841C14.4876 20.4455 14.3549 20.4776 14.2203 20.4776H20.1548C20.2894 20.4776 20.422 20.4455 20.5418 20.384C20.6615 20.3225 20.7649 20.2334 20.8433 20.1241C20.9218 20.0147 20.9731 19.8883 20.9931 19.7552C21.0129 19.622 21.0009 19.4861 20.9578 19.3586L15.8078 4.09914Z" fill="url(#paint2_linear_35938_49241)"/>
<defs>
<linearGradient id="paint0_linear_35938_49241" x1="10.9394" y1="4.77889" x2="5.40966" y2="21.1152" gradientUnits="userSpaceOnUse">
<stop stop-color="#114A8B"/>
<stop offset="1" stop-color="#0669BC"/>
</linearGradient>
<linearGradient id="paint1_linear_35938_49241" x1="12.6657" y1="12.3921" x2="11.3866" y2="12.8246" gradientUnits="userSpaceOnUse">
<stop stop-opacity="0.3"/>
<stop offset="0.071" stop-opacity="0.2"/>
<stop offset="0.321" stop-opacity="0.1"/>
<stop offset="0.623" stop-opacity="0.05"/>
<stop offset="1" stop-opacity="0"/>
</linearGradient>
<linearGradient id="paint2_linear_35938_49241" x1="11.9715" y1="4.3024" x2="18.0415" y2="20.4741" gradientUnits="userSpaceOnUse">
<stop stop-color="#3CCBF4"/>
<stop offset="1" stop-color="#2892DF"/>
</linearGradient>
</defs>
</svg>
