<svg width="24" height="24" viewBox="0 0 24 24" fill="none" xmlns="http://www.w3.org/2000/svg">
<path d="M6.99453 3.61192L7.02611 3.61005C7.76734 3.5684 8.52465 3.59865 9.2676 3.59844L13.4262 3.59808L16.8677 3.59829C17.9964 3.59739 19.1706 3.52396 20.2781 3.78056C20.854 3.91405 21.4626 4.32437 21.8984 4.7163C22.8239 5.54873 23.32 6.63094 23.3854 7.87183C23.4061 8.26547 23.3808 8.65433 23.3269 9.04447C23.1357 10.4189 22.7808 11.7877 22.5087 13.1495C22.263 14.378 22.1395 15.6819 21.7003 16.8606C21.4414 17.5552 21.0222 18.2007 20.5267 18.7497C19.5231 19.8619 18.0177 20.6168 16.5203 20.6954C13.5847 20.6585 10.6461 20.6865 7.7105 20.6871C6.48411 20.6874 4.63189 20.8248 3.47498 20.5897C2.76188 20.4448 1.99079 20.0473 1.45281 19.5577C0.578954 18.7497 0.0587748 17.6294 0.00595283 16.4401C-0.0106976 16.0689 0.00767191 15.6969 0.0599198 15.3291C0.159822 14.5935 0.360201 13.8712 0.490534 13.1402L1.04632 10.1667C1.20708 9.30385 1.33396 8.39093 1.63711 7.56431C1.91443 6.83081 2.32897 6.15711 2.85891 5.57929C3.96014 4.37509 5.36968 3.68475 6.99453 3.61192Z" fill="#BBBABC"/>
<path d="M6.8756 4.127C7.39578 4.05702 7.99691 4.10925 8.52284 4.10956L11.9827 4.1128L16.6867 4.10873C17.63 4.10651 18.6291 4.0356 19.5621 4.17596C20.2315 4.28039 20.8648 4.55031 21.404 4.96127C22.2009 5.56241 22.7153 6.51766 22.8525 7.5006C22.9105 7.89177 22.9145 8.28897 22.8646 8.68128C22.7159 9.87621 22.3237 11.2083 22.0889 12.4076C21.8311 13.723 21.7289 15.108 21.3127 16.388C21.1312 16.929 20.8602 17.4356 20.5117 17.8869C19.5621 19.1384 18.2874 19.9199 16.7338 20.1306C13.9394 20.1943 11.1352 20.1495 8.33969 20.1499C7.00938 20.1502 4.69899 20.2859 3.44561 20.0417C2.87605 19.9307 2.33577 19.598 1.89827 19.2255C1.09159 18.5382 0.594949 17.5954 0.511122 16.5359C0.48873 16.2157 0.500212 15.894 0.544995 15.5762C0.650065 14.7866 0.865374 14.0229 1.00604 13.2411L1.56699 10.2734C1.71914 9.45437 1.83569 8.6066 2.11071 7.81726C2.33405 7.17619 2.69519 6.55874 3.135 6.04268C4.08349 4.93881 5.42644 4.25103 6.8756 4.127Z" fill="white"/>
<path d="M4.06907 18.8724C3.75271 18.8102 3.45531 18.7159 3.17397 18.5555C2.5292 18.1868 2.05552 17.5797 1.854 16.8648C1.76098 16.5228 1.72768 16.1356 1.765 15.7831C1.79945 15.4558 1.9516 15.1816 2.01016 14.8658L2.55331 12.023C2.80364 10.6435 2.9535 8.74942 3.64822 7.54117C4.19596 6.5889 5.10829 5.81996 6.17507 5.53375C7.30442 5.23082 8.65999 5.37272 9.83069 5.37508L13.8417 5.37329L17.1821 5.37094C17.8539 5.37088 18.5446 5.33923 19.2129 5.40587C19.5907 5.44735 19.9559 5.56695 20.2854 5.75711C20.8866 6.10352 21.3246 6.67548 21.5032 7.34625C21.6123 7.75792 21.6111 8.20395 21.5669 8.62511C21.5267 9.0076 21.4188 9.36648 21.343 9.74116L20.8372 12.2386C20.6041 13.393 20.4715 14.5885 20.1511 15.7235C20.0403 16.1143 19.8692 16.4994 19.6648 16.8497C19.1193 17.7781 18.2328 18.4565 17.1942 18.7401C16.922 18.8434 16.6803 18.8959 16.3898 18.9116C15.2266 18.9747 4.57433 19.0226 4.06907 18.8724Z" fill="#F57920"/>
<path d="M4.07031 18.8718L4.0795 18.8622C4.1507 18.7886 4.2127 18.7405 4.31777 18.7249C5.20943 18.5923 6.89974 18.6954 7.85513 18.6953L14.8822 18.6992C15.6521 18.701 16.4278 18.7517 17.1954 18.7395C16.9233 18.8428 16.6816 18.8953 16.391 18.911C15.2278 18.9741 4.57557 19.022 4.07031 18.8718Z" fill="#FB8D40"/>
<path d="M5.36563 9.63574C5.94839 9.80315 10.3866 13.4495 11.2576 14.0804C12.2991 13.6615 13.297 13.1036 14.2971 12.594L18.7669 10.3503C18.6354 11.3937 18.4339 12.4034 18.1962 13.4273C18.0653 14.2197 17.9637 15.6558 17.3442 16.2269C17.1357 16.4186 16.7195 16.4516 16.4462 16.4735C14.9046 16.5968 12.9186 16.4942 11.3339 16.4907C9.39158 16.4864 7.41248 16.5711 5.47414 16.4978C5.1285 16.4847 4.66229 16.4328 4.41713 16.1623C4.26612 15.9955 4.28392 15.7554 4.29827 15.5444C4.3287 15.0955 4.46478 14.6639 4.54975 14.224C4.70764 13.4104 4.84314 12.5926 5.00276 11.7794C5.1463 11.0485 5.32544 10.3852 5.36563 9.63574Z" fill="white"/>
<path d="M7.39844 7.8818C7.57011 7.83636 7.74351 7.79793 7.91862 7.76668L7.63212 7.79006C8.71555 7.59422 9.85352 7.63012 10.9553 7.62966L14.6511 7.62892C15.5152 7.6276 17.7211 7.5532 18.471 7.65098C18.5513 7.79017 18.5611 7.90099 18.4509 8.03445L18.3165 8.04341C17.9272 8.09597 12.4671 10.978 11.8171 11.3497C11.2384 10.9153 7.65623 8.225 7.39844 7.8818Z" fill="white"/>
<path d="M7.39844 7.8818C7.57011 7.83636 7.74351 7.79793 7.91862 7.76668L7.63212 7.79006C8.71555 7.59422 9.85352 7.63012 10.9553 7.62966L14.6511 7.62892C15.5152 7.6276 17.7211 7.5532 18.471 7.65098C18.5513 7.79017 18.5611 7.90099 18.4509 8.03445L18.3165 8.04341C18.3091 8.00434 18.2631 7.95327 18.2367 7.91737C17.9158 7.83274 15.5462 7.86968 15.084 7.87043L7.39844 7.8818Z" fill="#FB8D40"/>
</svg>
