<svg width="24" height="24" viewBox="0 0 24 24" fill="none" xmlns="http://www.w3.org/2000/svg">
<circle cx="12.4993" cy="10.4993" r="7.77273" fill="white"/>
<path d="M12.502 1C7.26344 1 3 5.26344 3 10.502C3 15.7406 7.26344 20.0041 12.502 20.0041C13.1143 20.8885 16.3119 22.2265 17.6046 22.0451C17.5138 20.8431 17.5592 19.6185 17.7406 18.4166C22.1175 15.5138 23.3194 9.6176 20.4166 5.24076C18.6704 2.61013 15.6996 1 12.502 1ZM8.98696 15.9674C8.1252 15.9674 7.42219 15.2644 7.42219 14.4026C7.42219 13.5409 8.1252 12.8379 8.98696 12.8379C9.84872 12.8379 10.5517 13.5409 10.5517 14.4026C10.5517 15.2644 9.84872 15.9674 8.98696 15.9674ZM8.98696 12.1348C8.1252 12.1348 7.42219 11.4318 7.42219 10.5701C7.42219 9.70831 8.1252 9.00529 8.98696 9.00529C9.84872 9.00529 10.5517 9.70831 10.5517 10.5701C10.5517 11.4545 9.84872 12.1348 8.98696 12.1348ZM8.98696 8.25692C8.1252 8.25692 7.42219 7.55391 7.42219 6.69215C7.42219 5.83039 8.1252 5.12738 8.98696 5.12738C9.84872 5.12738 10.5517 5.83039 10.5517 6.69215C10.5517 7.55391 9.84872 8.25692 8.98696 8.25692ZM12.5247 15.9674C11.663 15.9674 10.9599 15.2644 10.9599 14.4026C10.9599 13.5409 11.663 12.8379 12.5247 12.8379C13.3865 12.8379 14.0895 13.5409 14.0895 14.4026C14.0895 15.2644 13.3865 15.9674 12.5247 15.9674ZM12.5247 12.1348C11.663 12.1348 10.9599 11.4318 10.9599 10.5701C10.9599 9.70831 11.663 9.00529 12.5247 9.00529C13.3865 9.00529 14.0895 9.70831 14.0895 10.5701C14.0895 11.4318 13.3865 12.1348 12.5247 12.1348ZM12.5247 8.25692C11.663 8.25692 10.9599 7.55391 10.9599 6.69215C10.9599 5.83039 11.663 5.12738 12.5247 5.12738C13.3865 5.12738 14.0895 5.83039 14.0895 6.69215C14.0895 7.55391 13.3865 8.25692 12.5247 8.25692ZM16.0398 15.9674C15.178 15.9674 14.475 15.2644 14.475 14.4026C14.475 13.5409 15.178 12.8379 16.0398 12.8379C16.9015 12.8379 17.6046 13.5409 17.6046 14.4026C17.6046 15.2644 16.9015 15.9674 16.0398 15.9674C16.0171 15.9674 16.0171 15.9674 16.0398 15.9674ZM16.0398 12.1348C15.178 12.1348 14.475 11.4318 14.475 10.5701C14.475 9.70831 15.178 9.00529 16.0398 9.00529C16.9015 9.00529 17.6046 9.70831 17.6046 10.5701C17.5819 11.4318 16.9015 12.1348 16.0398 12.1348ZM16.0398 8.25692C15.178 8.25692 14.475 7.55391 14.475 6.69215C14.475 5.83039 15.178 5.12738 16.0398 5.12738C16.9015 5.12738 17.6046 5.83039 17.6046 6.69215C17.6046 7.55391 16.9015 8.25692 16.0398 8.25692C16.0171 8.25692 16.0171 8.25692 16.0398 8.25692Z" fill="#F2783A"/>
</svg>
