<svg width="24" height="24" viewBox="0 0 24 24" fill="none" xmlns="http://www.w3.org/2000/svg">
<path d="M10.6858 4.85308C7.11462 2.94545 2.68738 4.36394 0.828419 8.05693C-1.03053 11.7254 0.339223 16.2744 3.93483 18.182C5.7204 19.1359 7.70166 19.2581 9.48723 18.6712C9.48723 18.6712 9.85413 18.6223 10.7592 18.0842C10.7592 18.0842 10.0009 17.6195 9.12033 16.1521C9.12033 16.1521 9.12033 16.1521 9.12033 16.1277C7.84842 16.6413 6.35636 16.6413 5.05998 15.932C2.66292 14.6603 1.73344 11.6276 2.9809 9.18193C4.22835 6.73626 7.16354 5.75798 9.56061 7.0542C11.0038 7.81236 11.9088 9.23084 12.1289 10.7716L14.5994 12.0923C14.8195 9.18193 13.3764 6.29603 10.6858 4.85308Z" fill="#29C3EC"/>
<path d="M13.3236 18.182C16.9192 20.0896 21.322 18.6222 23.181 14.9292C25.0399 11.2363 23.6213 6.71172 20.0256 4.82854C18.2401 3.87472 16.2588 3.7769 14.4732 4.36386C14.4732 4.36386 14.1063 4.41277 13.2013 4.95082C13.2013 4.95082 13.9596 5.4155 14.8401 6.85846C14.8401 6.85846 14.8401 6.85846 14.8401 6.88292C16.1121 6.34486 17.5796 6.36932 18.9005 7.05411C21.2976 8.32587 22.227 11.3341 21.004 13.8042C19.7566 16.2744 16.8214 17.2282 14.4243 15.9809C12.9812 15.2227 12.0762 13.8287 11.8316 12.2879L9.36111 10.9917C9.16543 13.8776 10.633 16.7635 13.3236 18.182Z" fill="#8DC63F"/>
</svg>
