<svg width="24" height="24" viewBox="0 0 24 24" fill="none" xmlns="http://www.w3.org/2000/svg">
<path d="M15.1349 6.59686C16.713 8.51414 18.3439 10.7274 19.1061 13.1072C19.7754 15.1784 19.5862 17.4318 18.5808 19.3621C17.7106 21.0481 16.0709 22.2808 14.2679 22.8294C12.3648 23.4231 10.0832 23.2241 8.31557 22.2732C5.72568 20.8801 4.45505 18.3219 4.50121 15.4445C4.5789 10.6015 8.39406 7.50733 10.8666 3.75482C11.2553 3.16494 11.6153 2.53378 11.8552 1.87085C11.8852 1.78822 11.9272 1.73959 12.0078 1.71484L12.0335 1.78697C12.1625 2.03943 12.2504 2.33642 12.3993 2.63521C12.7819 3.40282 13.2036 4.04714 13.6953 4.74819C13.9879 5.15722 14.2945 5.55597 14.6147 5.94376C14.7218 6.07611 15.083 6.48594 15.1349 6.59686ZM8.99481 19.3813C9.92345 20.1638 11.1205 20.553 12.3314 20.466C14.739 20.2755 16.8816 17.9408 16.6703 15.4803C16.4212 12.5798 13.9326 10.7798 12.6308 8.38554C12.4274 8.01313 12.2551 7.47275 12.3086 7.0538C12.3247 6.9274 12.3964 6.70099 12.3287 6.63616C11.767 6.93429 11.4086 7.40165 11.2276 8.01301C10.9742 8.86915 10.8354 9.74093 10.9406 10.6332C11.0546 11.8589 11.9711 13.314 11.2913 14.461C11.1806 14.6477 11.009 14.855 10.8158 14.957C10.563 15.091 10.2672 15.1181 9.9943 15.0324C9.09507 14.7444 8.55045 13.4283 8.84062 12.5721C8.88107 12.4527 9.0565 12.1922 9.03257 12.1414C8.87704 12.2218 8.75021 12.3956 8.63325 12.5241C7.25944 14.0335 6.82924 16.1507 7.83996 17.9831C8.17864 18.597 8.44212 18.9574 8.99481 19.3813Z" fill="#EEAA22"/>
<path d="M11.9384 1.84082C12.0641 2.08684 12.1497 2.37624 12.2948 2.6674C12.6676 3.41542 13.0786 4.04329 13.5577 4.72644C13.8429 5.12503 14.1417 5.51361 14.4537 5.8915C14.558 6.02047 14.91 6.41984 14.9606 6.52793L14.928 6.5419C14.5952 6.49063 13.5898 4.60512 13.1431 4.54971C12.8842 4.67811 12.6852 5.02765 12.4135 5.17611C12.2549 5.26281 12.1244 5.49797 11.9829 5.62142L11.9272 5.59273L11.8987 5.48424C11.8459 5.75599 11.9576 6.21023 11.8573 6.46202C11.6762 6.27253 11.8721 3.33775 11.7531 2.8804C11.6904 2.63929 11.9171 2.22076 11.9384 1.84082Z" fill="#EEAA22"/>
</svg>
