<svg width="24" height="24" viewBox="0 0 24 24" fill="none" xmlns="http://www.w3.org/2000/svg">
<path d="M17.2335 12.8575C17.1829 13.2478 17.0024 13.6091 16.7208 13.8765C16.4392 14.1656 16.071 14.3535 15.6739 14.4041C13.9916 14.5631 12.3021 14.6499 10.6126 14.6715C9.94835 14.6788 9.3202 14.9462 8.85089 15.416L6.63431 17.6348V15.8785C6.63431 15.1558 6.07836 14.5559 5.35635 14.5053C4.92314 14.4764 4.48271 14.4403 4.04951 14.3969C3.6524 14.3463 3.27695 14.1584 3.00259 13.8693C2.721 13.6019 2.5405 13.2405 2.48996 12.8502C2.29501 10.2845 2.29501 7.71155 2.48996 5.14582C2.53328 4.75554 2.721 4.39417 3.00259 4.12676C3.28417 3.83766 3.6524 3.64974 4.04951 3.59915C7.91227 3.23778 11.8039 3.23778 15.6667 3.59915C16.0638 3.64974 16.4392 3.83766 16.7136 4.12676C17.0024 4.39417 17.1829 4.75554 17.2262 5.14582C17.4284 7.71878 17.4284 10.2917 17.2335 12.8575Z" fill="#5E34F1" stroke="#5E34F1" stroke-width="0.51079"/>
<path d="M17.7638 21.9972C17.5183 21.9972 17.2801 21.896 17.1068 21.7225L14.2187 18.8316C13.9949 18.6075 13.6916 18.4774 13.374 18.4774C12.3704 18.463 11.9011 18.4557 11.1285 18.3979C10.7675 18.3618 10.5004 18.0293 10.5437 17.6679C10.5798 17.3282 10.8758 17.0681 11.2224 17.0753C11.966 17.1259 12.4209 17.1403 13.3956 17.1476C14.0599 17.1548 14.6952 17.4222 15.1573 17.892L17.3739 20.1108V18.3618C17.3739 17.639 17.9299 17.0464 18.6519 16.9886C19.0851 16.9597 19.5255 16.9235 19.9587 16.8801C20.3558 16.8296 20.7313 16.6416 21.0129 16.3525C21.3017 16.0851 21.4822 15.7238 21.5255 15.3335C21.7204 12.7678 21.7204 10.1948 21.5255 7.62906C21.4172 6.928 20.9118 6.34258 20.2331 6.13299C19.8865 6.01012 19.706 5.63429 19.8215 5.28738C19.9371 4.96215 20.2764 4.77423 20.6158 4.86096C21.8215 5.22956 22.6951 6.27031 22.8468 7.52065C23.0489 10.1514 23.0489 12.7967 22.8468 15.4347C22.6735 16.8801 21.5327 18.0221 20.0887 18.2028H20.0815C19.641 18.2461 19.1934 18.2823 18.7457 18.3112C18.7169 18.3112 18.7024 18.3401 18.7024 18.3618V21.0576C18.7024 21.578 18.2836 21.9972 17.7638 21.9972Z" fill="#FF3964"/>
<path d="M18.5521 5.04455C18.3788 3.59906 17.2381 2.45713 15.794 2.27645H15.7868C11.8374 1.90785 7.86634 1.90785 3.91693 2.27645H3.90971C2.46569 2.45713 1.32491 3.59906 1.15162 5.04455C0.949459 7.67532 0.949459 10.3206 1.15162 12.9586C1.32491 14.404 2.46569 15.546 3.90971 15.7194H3.91693C4.35736 15.7628 4.80501 15.7989 5.25266 15.8278C5.28154 15.8278 5.29598 15.8568 5.29598 15.8784V18.5887C5.29598 18.9645 5.52702 19.3042 5.87359 19.4488C5.98911 19.4921 6.10463 19.5211 6.22737 19.5211C6.47286 19.5211 6.71112 19.4199 6.8844 19.2464L9.77246 16.3554C9.99628 16.1314 10.2995 16.0013 10.6172 16.0013C12.3212 15.9796 14.0612 15.8929 15.7868 15.7267H15.794C17.2381 15.546 18.3788 14.4113 18.5521 12.9586C18.7543 10.3278 18.7543 7.68255 18.5521 5.04455ZM17.2309 12.8574C17.1803 13.2477 16.9998 13.609 16.7182 13.8764C16.4366 14.1655 16.0684 14.3535 15.6713 14.404C13.989 14.563 12.2995 14.6498 10.61 14.6715C9.94574 14.6787 9.31759 14.9461 8.84828 15.4159L6.6317 17.6347V15.8784C6.6317 15.1557 6.07575 14.5558 5.35374 14.5052C4.92053 14.4763 4.4801 14.4402 4.04689 14.3968C3.64979 14.3462 3.27434 14.1583 2.99998 13.8692C2.71839 13.6018 2.53789 13.2404 2.48735 12.8502C2.2924 10.2844 2.2924 7.71146 2.48735 5.14573C2.53067 4.75545 2.71839 4.39408 2.99998 4.12667C3.28156 3.83757 3.64979 3.64966 4.04689 3.59906C7.90966 3.23769 11.8013 3.23769 15.6641 3.59906C16.0612 3.64966 16.4366 3.83757 16.711 4.12667C16.9998 4.39408 17.1803 4.75545 17.2236 5.14573C17.4258 7.71869 17.4258 10.2916 17.2309 12.8574Z" fill="#5E34F1"/>
<path d="M7.43469 11.6983C7.31917 11.6983 7.20365 11.6622 7.10256 11.5972L4.59718 9.87703C4.33004 9.69634 4.26505 9.32774 4.44556 9.06756C4.48888 9.00974 4.53942 8.95915 4.59718 8.91578L7.10256 7.19566C7.36971 7.01498 7.73072 7.08002 7.91122 7.34743C8.09172 7.61485 8.02674 7.97622 7.7596 8.15691L5.95456 9.39279L7.7596 10.6287C8.02674 10.8094 8.09172 11.178 7.91122 11.4454C7.81014 11.6044 7.62963 11.6983 7.43469 11.6983Z" fill="white"/>
<path d="M21.0031 16.3543C21.2919 16.0869 21.4724 15.7256 21.5157 15.3353C21.7107 12.7696 21.7107 10.1966 21.5157 7.63087C21.4074 6.92981 20.902 6.34439 20.2233 6.13479C20.0934 6.09865 19.9851 6.01915 19.8984 5.91797C20.115 8.88843 20.115 11.8661 19.884 14.8294C19.8262 15.2919 19.6096 15.7111 19.2775 16.0291C18.9454 16.3688 18.5122 16.5929 18.0428 16.6507C16.0501 16.8386 14.0429 16.9398 12.079 16.9687C11.8263 16.9759 11.5736 17.012 11.3281 17.0771C12.0068 17.1205 12.4617 17.1349 13.3859 17.1421C14.0501 17.1494 14.6855 17.4168 15.1476 17.8866L17.3642 20.1054V18.3563C17.3642 17.6336 17.9201 17.041 18.6349 16.9831C19.0681 16.9542 19.5085 16.9181 19.9417 16.8747C20.3533 16.8314 20.7215 16.6434 21.0031 16.3543Z" fill="#FF3964"/>
<path d="M12.2809 11.7003C11.956 11.7003 11.696 11.4401 11.696 11.1149C11.696 10.9198 11.7899 10.7391 11.9487 10.6307L13.7538 9.39477L11.9487 8.15889C11.6816 7.9782 11.6166 7.6096 11.7971 7.34941C11.9776 7.08923 12.3459 7.01696 12.6058 7.19764L15.1112 8.91776C15.3783 9.09845 15.4433 9.46705 15.2628 9.72724C15.2195 9.78505 15.1689 9.83564 15.1112 9.87901L12.6058 11.5991C12.5191 11.6714 12.4036 11.7003 12.2809 11.7003Z" fill="white"/>
<path d="M8.99889 13.4191C8.67399 13.4191 8.41406 13.1589 8.41406 12.8337C8.41406 12.7831 8.42128 12.7397 8.4285 12.6891L10.1469 5.8231C10.2263 5.51232 10.544 5.31718 10.8545 5.39668C11.1649 5.47618 11.3599 5.79419 11.2805 6.10497L9.56206 12.9782C9.5043 13.2384 9.26604 13.4191 8.99889 13.4191Z" fill="white"/>
</svg>
