<svg width="24" height="24" viewBox="0 0 24 24" fill="none" xmlns="http://www.w3.org/2000/svg">
<path d="M11.672 3.89724C11.858 3.88374 12.0603 3.88995 12.2479 3.89108C16.9005 3.91922 20.5844 7.4577 20.5026 12.1772C20.4766 14.306 19.5984 16.3353 18.0644 17.8114C16.4127 19.4016 14.191 20.1586 11.9186 20.1153C11.2024 20.0952 10.6039 20.017 9.90951 19.8524C9.6648 19.7943 9.40591 19.7056 9.1741 19.6559C9.11558 19.6434 8.73291 19.7475 8.64344 19.7681C7.8766 19.9492 7.11178 20.1389 6.34912 20.3368C6.33003 20.0143 6.16399 17.9533 6.09498 17.7932C6.03819 17.6612 5.70572 17.3651 5.58804 17.2313C5.49404 17.1243 5.40856 17.0092 5.32279 16.8956C4.3707 15.6371 3.8158 14.1231 3.72909 12.5474C3.59184 10.3353 4.23105 8.30154 5.70978 6.62859C6.83422 5.35648 8.38022 4.4948 10.0296 4.11503C10.5306 3.99967 11.1582 3.9277 11.672 3.89724Z" fill="#FEFEFE"/>
<path d="M11.9094 7.23043C11.9126 7.23013 11.9158 7.22982 11.9191 7.22952C13.0988 7.1819 14.2313 7.56694 15.1079 8.3523C16.1094 9.24955 16.6007 10.43 16.6841 11.745C16.7686 13.0254 16.3421 14.2872 15.498 15.2537C14.8644 15.9591 14.0252 16.4476 13.0989 16.6503C12.8353 16.7057 12.5766 16.725 12.3086 16.7412C12.295 16.7423 12.2814 16.7432 12.2678 16.7439C11.0885 16.8033 9.93341 16.3953 9.05313 15.6084C8.07031 14.7209 7.57877 13.5245 7.52095 12.2138C7.40421 9.56794 9.21779 7.36318 11.9094 7.23043Z" fill="black"/>
<path d="M8.9375 12.8583C11.0121 12.8628 13.1217 12.8344 15.1923 12.8614C15.0455 13.5358 14.7689 14.0666 14.2844 14.5572C14.1318 14.7002 13.9919 14.8241 13.8178 14.9422C12.8151 15.6216 11.4491 15.652 10.4187 15.0175C9.82116 14.6478 9.3598 14.0941 9.10406 13.4397C9.02913 13.2449 8.98568 13.0608 8.9375 12.8583Z" fill="#FEB3B3"/>
</svg>
