<svg width="24" height="24" viewBox="0 0 24 24" fill="none" xmlns="http://www.w3.org/2000/svg">
<path d="M2 12C2 6.47715 6.47715 2 12 2C17.5228 2 22 6.47715 22 12C22 17.5228 17.5228 22 12 22C6.47715 22 2 17.5228 2 12Z" fill="#FF4342"/>
<path d="M13.3725 11.0311C13.5849 10.7486 13.8008 10.4688 14.0202 10.1917C14.3032 9.8274 15.0112 8.77066 15.5118 9.40826C15.6401 10.174 15.3727 10.7852 15.1747 11.5159C15.1691 11.5368 15.1811 11.5554 15.1925 11.5713C15.302 11.4695 15.3938 11.3863 15.5155 11.2962C16.4582 10.5985 17.6091 11.3381 17.7316 12.4098C17.7325 12.4173 17.7252 12.4278 17.7215 12.4343C17.8053 12.9281 17.7576 13.2213 17.6452 13.7097C17.6402 13.6792 17.6346 13.6487 17.6283 13.6184C17.4846 12.9292 17.2256 12.661 16.6631 12.2927C16.0245 12.8955 15.6612 13.7241 15.2292 14.4679C14.8197 15.1732 14.1306 15.6657 13.2903 15.627C12.9671 15.6131 12.6146 15.5046 12.3802 15.2658C12.299 15.1831 12.2244 15.0527 12.2473 14.9335C12.2 14.5533 12.4962 13.8357 12.6256 13.4496L13.1531 11.8497C13.2314 11.6109 13.3211 11.3579 13.3866 11.1144C13.3984 11.0707 13.3909 11.071 13.3725 11.0311Z" fill="#FEFEFE"/>
<path d="M13.3725 11.0311C13.5849 10.7486 13.8008 10.4688 14.0202 10.1917C14.3032 9.8274 15.0112 8.77066 15.5118 9.40826C15.6401 10.174 15.3727 10.7852 15.1747 11.5159C15.1691 11.5368 15.1811 11.5554 15.1925 11.5713C15.0405 11.7558 14.8712 12.0083 14.7343 12.2062C14.5291 12.4976 14.3289 12.7925 14.1341 13.0909C14.0341 13.242 13.9363 13.3946 13.8409 13.5486C13.5359 14.0494 13.2683 14.5515 12.8018 14.9258C12.6449 15.0516 12.3408 15.2342 12.2473 14.9335C12.2 14.5533 12.4962 13.8357 12.6256 13.4496L13.1531 11.8497C13.2314 11.6109 13.3211 11.3579 13.3866 11.1144C13.3984 11.0707 13.3909 11.071 13.3725 11.0311Z" fill="#AA3049"/>
<path d="M16.6641 12.2924C17.0373 11.9658 17.5482 11.8548 17.7224 12.434C17.8063 12.9278 17.7586 13.221 17.6462 13.7094C17.6412 13.6789 17.6356 13.6484 17.6293 13.6181C17.4856 12.9289 17.2266 12.6607 16.6641 12.2924Z" fill="#AA3049"/>
<path d="M6.14062 15.3529C6.58481 15.26 7.28414 14.9817 7.66361 14.7249C8.36806 14.2483 9.1401 13.5485 9.69395 12.9045C10.0343 12.5086 10.3611 12.0612 10.678 11.6488L11.8158 10.1814C12.3399 9.50809 13.0416 8.49825 13.9888 8.40685C14.5055 8.357 15.2696 8.72655 15.4636 9.22361C15.4869 9.28341 15.5301 9.34383 15.5064 9.40928C15.0057 8.77168 14.2978 9.82841 14.0148 10.1927C13.7953 10.4698 13.5794 10.7496 13.367 11.0321C13.1332 11.2971 12.8389 11.694 12.6156 11.9815L11.522 13.3758C11.2987 13.661 11.0114 14.0554 10.7625 14.3043C10.3119 14.7547 9.75845 15.1452 9.1681 15.3879C8.8906 15.4996 8.59987 15.5752 8.30308 15.6127C7.69337 15.6869 6.7159 15.5932 6.14062 15.3529Z" fill="#FEFEFE"/>
<path d="M16.9505 13.8933C17.4282 13.856 17.846 14.2118 17.8853 14.6892C17.9245 15.1667 17.5704 15.586 17.0932 15.6272C16.6132 15.6686 16.1909 15.312 16.1514 14.8319C16.1119 14.3517 16.4703 13.9309 16.9505 13.8933Z" fill="#FEFEFE"/>
</svg>
