<svg width="24" height="24" viewBox="0 0 24 24" fill="none" xmlns="http://www.w3.org/2000/svg">
<path d="M19.9453 6.99088C19.1429 6.99088 18.4255 7.3921 17.9878 8L15.0334 12.1337C14.924 12.2918 14.7416 12.3891 14.5471 12.3891C14.2188 12.3891 13.9514 12.1216 13.9514 11.7933C13.9514 11.6717 13.9878 11.5502 14.0486 11.465L16.541 7.73252C16.7964 7.35562 16.9422 6.89362 16.9422 6.39514C16.9422 5.06991 15.8723 4 14.5471 4H2V6.39514H12.7477C12.7477 7.05167 12.2128 7.59878 11.5441 7.59878H2C2 8.44985 2.18237 9.26444 2.49848 9.99392H10.3404C10.3404 10.6505 9.80547 11.1976 9.13678 11.1976H3.20365C4.29787 12.6565 6.03647 13.5927 8.00608 13.5927H10.9605C11.2888 13.5927 11.5562 13.8602 11.5562 14.1885C11.5562 14.5167 11.2888 14.7842 10.9605 14.7842H7.99392L3.98176 20.7781H11.2401C14.5593 20.7781 17.3799 18.614 18.3647 15.6231L19.7143 11.5258C20.152 10.2006 20.9544 9.03343 22 8.1459C21.5866 7.45289 20.8207 6.99088 19.9453 6.99088ZM19.9453 8.63222C19.7021 8.63222 19.4954 8.42553 19.4954 8.18237C19.4954 7.93921 19.7021 7.73252 19.9453 7.73252C20.1884 7.73252 20.3951 7.93921 20.3951 8.18237C20.3951 8.43769 20.1884 8.63222 19.9453 8.63222Z" fill="#2481D7"/>
</svg>
