<svg width="24" height="24" viewBox="0 0 24 24" fill="none" xmlns="http://www.w3.org/2000/svg">
<path d="M9.45436 10.045C8.93374 10.2471 8.40627 10.3806 7.95074 10.7232C7.25544 11.2472 6.98486 11.9665 6.72455 12.7679C6.69715 12.8056 6.62522 12.8056 6.60125 12.7679C6.40601 12.2473 6.26901 11.7267 5.9265 11.278C5.34423 10.5142 4.79279 10.4217 3.96391 10.0861C3.89883 10.0587 3.82348 10.0416 3.87828 9.94909C3.90226 9.90799 4.63524 9.66823 4.75169 9.61685C5.46754 9.31202 5.99158 8.78113 6.29641 8.06528C6.41286 7.78785 6.48822 7.48644 6.61152 7.21586L6.67317 7.19531L6.73825 7.25011C6.98143 8.02076 7.24859 8.7092 7.89936 9.22297C8.3549 9.5826 8.88921 9.72988 9.42353 9.92854C9.46463 9.95251 9.46121 10.0039 9.45093 10.045H9.45436Z" fill="#E6E6E6"/>
<path fill-rule="evenodd" clip-rule="evenodd" d="M7.28969 0.890625L9.01253 1.63045L19.329 6.29544C19.329 6.29544 19.3632 6.31256 19.3769 6.32283L19.4831 6.38792C19.603 6.48725 19.8427 6.77838 19.829 7.14144V12.4435C19.8222 12.6695 19.716 13.1456 19.3735 13.3648C19.3598 13.3785 19.3393 13.3888 19.3221 13.3957L11.7903 16.8721V22.3557C11.7903 22.551 11.6327 22.7085 11.4375 22.7085H7.17666C6.98143 22.7085 6.82389 22.551 6.82389 22.3557V14.1663C6.82389 14.1458 6.82388 14.1252 6.8273 14.1081C6.83758 13.9814 6.93692 13.6868 7.24175 13.5087C7.25203 13.5018 7.26572 13.495 7.27942 13.4881L15.1367 9.8644L6.85814 6.1276C6.75196 6.07966 6.70059 5.96663 6.72456 5.86045V5.68577L6.7725 1.66469C6.70743 1.00022 7.09104 0.876925 7.29312 0.897475V0.890625H7.28969Z" fill="#E6E6E6"/>
</svg>
