<svg width="24" height="24" viewBox="0 0 24 24" fill="none" xmlns="http://www.w3.org/2000/svg">
<path d="M11.8438 21.8163C17.3673 21.8163 21.8438 17.3458 21.8438 11.8295C21.8438 6.31332 17.3673 1.84277 11.8438 1.84277C6.32022 1.84277 1.84375 6.31332 1.84375 11.8295C1.84375 17.3458 6.32022 21.8163 11.8438 21.8163Z" fill="#007AFF"/>
<path d="M16.8628 8.30763C16.5069 7.64818 15.9893 7.12535 15.3304 6.77728C14.6701 6.42187 13.9069 6.23535 12.7305 6.23535H10.6672C9.48927 6.23535 8.72599 6.42334 8.06719 6.77728C7.4069 7.13269 6.88336 7.64965 6.53484 8.30763C6.17895 8.96701 5.99219 9.72922 5.99219 10.9042V11.5753C5.99219 12.7517 6.18042 13.5139 6.53484 14.1719C6.89072 14.8313 7.40837 15.3542 8.06719 15.7022C8.72751 16.0576 9.49073 16.2441 10.6672 16.2441H12.9701C12.9701 16.2441 13.0348 16.2309 13.0731 16.2764C13.1054 16.3088 13.1113 16.3543 13.0922 16.3998C12.8922 16.8257 12.6849 17.1239 12.5687 17.2457C12.4525 17.3691 12.3157 17.491 12.3157 17.491C12.2775 17.5233 12.2451 17.5497 12.2054 17.5821C12.0496 17.7054 11.8819 17.8215 11.7275 17.9434C11.6172 18.0271 11.5922 18.1314 11.6363 18.2474C11.6628 18.312 11.701 18.3634 11.7657 18.3898C11.7716 18.3898 11.7848 18.3957 11.7922 18.3957H11.8304C12.0701 18.3957 14.204 18.4471 15.7628 16.7361C16.5849 15.8314 17.2437 14.4436 17.3863 12.2979C17.4055 12.0718 17.4128 11.8324 17.4128 11.5739V10.9027C17.4128 9.72631 17.2246 8.9641 16.8701 8.30611H16.8643L16.8628 8.30763Z" fill="white"/>
<path d="M11.8244 11.8086H8.14356C8.00092 11.8086 7.89062 11.9247 7.89062 12.0612V13.0761C7.89062 13.2185 8.0068 13.3286 8.14356 13.3286H11.8244C11.9671 13.3286 12.0774 13.2126 12.0774 13.0761V12.0612C12.0774 11.9188 11.9612 11.8086 11.8244 11.8086Z" fill="#007AFF"/>
<path d="M15.2524 9.14746H8.14356C8.00092 9.14746 7.89062 9.26352 7.89062 9.4001V10.4149C7.89062 10.5574 8.0068 10.6675 8.14356 10.6675H15.2524C15.3951 10.6675 15.5053 10.5515 15.5053 10.4149V9.4001C15.5053 9.25763 15.3892 9.14746 15.2524 9.14746Z" fill="#007AFF"/>
</svg>
