<svg width="24" height="24" viewBox="0 0 24 24" fill="none" xmlns="http://www.w3.org/2000/svg">
<path d="M1.67824 5.00058L1.72198 4.99922C2.5645 4.97585 3.524 4.99715 4.37577 4.99744L12.5488 4.9972C13.0545 4.99715 13.5907 4.9762 14.0934 5.00688C14.7519 5.04708 14.9005 5.50212 14.9046 6.05648L14.9025 10.9793L14.9044 12.5691C14.9048 13.0607 15.0187 13.9649 14.3018 14.0969C13.9545 14.1608 13.4417 14.1255 13.0766 14.1252L10.7817 14.1239C9.83279 14.1238 8.7928 14.1032 7.85478 14.1443C7.706 14.287 7.50496 14.4142 7.35081 14.5488C6.91433 14.9453 6.42254 15.271 5.9586 15.6282C5.55702 15.9574 5.1535 16.2754 4.70964 16.5472C4.56046 16.6385 4.2399 16.9196 4.07654 16.8588C4.04181 16.7221 5.04219 15.3146 4.39007 14.5826C3.46696 13.5464 1.93442 14.6338 0.936487 13.8006C0.920022 13.7265 0.906358 13.6517 0.895526 13.5766C0.845604 13.233 0.861787 12.6761 0.862202 12.3163L0.861991 7.42479C0.861961 6.89594 0.855616 6.35487 0.870827 5.82717C0.874736 5.69156 0.902004 5.42435 0.988743 5.32359C1.16183 5.12248 1.42636 5.03318 1.67824 5.00058Z" fill="#00AFEF"/>
<path d="M15.5001 8.64604C15.708 8.69367 17.0268 8.67607 17.3393 8.67663C18.981 8.67958 20.6296 8.67072 22.2716 8.67414C22.5109 8.68532 22.7433 8.67093 22.9146 8.86985C23.0921 9.07589 23.1533 9.23969 23.1564 9.50437C23.1588 9.71416 23.1597 9.92329 23.1587 10.1336L23.1569 11.445C23.1562 12.7575 23.1926 14.0783 23.1593 15.3895C23.121 16.8937 21.1895 15.7284 20.5058 16.3995C20.2035 16.6962 20.2184 17.3004 20.3578 17.6741C20.429 17.865 20.627 18.132 20.6188 18.3316C20.618 18.3523 20.5992 18.3601 20.5844 18.3732C20.5047 18.3754 20.4671 18.3449 20.3982 18.3043C19.5198 17.7089 18.5426 16.911 17.7625 16.1864L13.2176 16.1911C13.1038 16.1901 12.7164 16.1767 12.6296 16.1211C12.2202 15.8583 12.2985 15.2386 12.3028 14.8324C12.9613 14.8617 14.354 14.8798 14.9518 14.7411C15.0916 14.5936 15.3386 14.4443 15.4118 14.2525C15.5569 13.8717 15.488 10.3033 15.4871 9.65554C15.4866 9.32927 15.4502 8.96648 15.5001 8.64604Z" fill="#00AFEF"/>
</svg>
