<svg width="24" height="24" viewBox="0 0 24 24" fill="none" xmlns="http://www.w3.org/2000/svg">
<path d="M9.65864 9.85124L9.0748 10.644L1.7867 6.93708C1.12946 6.6903 0.954253 6.19371 1.00955 5.80927C1.08501 5.33103 1.50623 5 2.03167 5H3.48871L3.66417 5.47557L3.48871 6.00868H2.1682L9.65864 9.85124Z" fill="url(#paint0_linear_35932_48639)"/>
<path d="M22.5848 5.75699C22.4907 5.47419 22.1964 5 21.272 5H3.49137V6.00868H6.69193C6.84009 6.00868 6.98351 6.01153 7.12185 6.01824C7.45598 6.03168 7.76177 6.06097 8.0406 6.10163C8.04448 6.10257 8.04827 6.10257 8.0524 6.10344C9.6091 6.28364 10.8454 6.72122 11.041 7.42299C11.041 7.42497 11.0418 7.42592 11.0428 7.42695C11.0786 7.52171 11.0835 7.62447 11.0592 7.73869C11.0582 7.74248 11.0582 7.74636 11.0574 7.75127C11.0002 8.00882 10.8008 8.32443 10.4987 8.73678L3.32279 18.2372C3.0518 18.5701 2.99383 19.0106 3.17377 19.3892C3.35501 19.7609 3.74306 20 4.16342 20C4.36757 20 4.56982 19.9447 4.75192 19.8385C4.7694 19.8307 4.7868 19.8209 4.80231 19.8083L4.87673 19.758C4.89138 19.7484 4.90585 19.7376 4.91756 19.7251L22.0591 7.00582C22.7436 6.54016 22.6556 5.97871 22.5848 5.75699ZM21.4714 6.17217L4.24086 18.9584C4.18461 18.9981 4.0995 18.9981 4.08116 18.9613C4.07246 18.9449 4.08495 18.9099 4.1169 18.8712L11.2346 9.4339C11.556 9.0088 11.8893 8.56932 12.0584 8.10271C12.3181 7.38638 12.1428 6.73276 11.5646 6.26236C11.4553 6.17321 11.3372 6.08802 11.2075 6.00868H21.2915C21.482 6.00868 21.572 6.03564 21.6107 6.0533C21.5905 6.07932 21.55 6.11894 21.4714 6.17217Z" fill="url(#paint1_linear_35932_48639)"/>
<defs>
<linearGradient id="paint0_linear_35932_48639" x1="3.73743" y1="6.61802" x2="10.8313" y2="10.7222" gradientUnits="userSpaceOnUse">
<stop stop-color="#01D468"/>
<stop offset="0.0954" stop-color="#15D875"/>
<stop offset="0.4067" stop-color="#50E59B"/>
<stop offset="0.6721" stop-color="#7BEFB7"/>
<stop offset="0.8783" stop-color="#96F5C9"/>
<stop offset="1" stop-color="#A0F7CF"/>
</linearGradient>
<linearGradient id="paint1_linear_35932_48639" x1="10.4089" y1="8.78893" x2="22.3078" y2="1.91681" gradientUnits="userSpaceOnUse">
<stop stop-color="#01D468"/>
<stop offset="0.2562" stop-color="#22DE7B"/>
<stop offset="0.7595" stop-color="#5EF29D"/>
<stop offset="1" stop-color="#75F9AB"/>
</linearGradient>
</defs>
</svg>
