<svg width="24" height="24" viewBox="0 0 24 24" fill="none" xmlns="http://www.w3.org/2000/svg">
<path d="M0.0550751 6.43728C-0.00209312 6.43474 -0.0209075 6.36527 0.0283006 6.33813C0.196548 6.24623 0.351409 6.16084 0.510248 6.08051C0.899571 5.88368 1.28853 5.68576 1.68437 5.49979C2.11711 5.29644 2.57987 5.16727 3.05712 5.08586C3.42762 5.02254 3.80175 4.99468 4.17949 5.00083C4.89626 5.01241 5.58373 5.14918 6.24476 5.40065C6.88411 5.64379 7.44133 6.00019 7.95225 6.42787C8.46346 6.8559 8.54889 7.46557 8.18381 7.9989C7.87771 8.44611 7.6038 8.9125 7.31469 9.36985C7.02522 9.82719 6.73325 10.2834 6.44593 10.7419C6.38767 10.8349 6.35118 10.8457 6.28747 10.7448C5.97922 10.2552 5.66369 9.7693 5.35542 9.27939C5.17848 8.99825 4.97116 8.73775 4.74357 8.49098C4.17407 7.87262 3.48914 7.38669 2.69892 7.02958C2.00928 6.71769 1.28166 6.52555 0.513867 6.45645C0.365521 6.44306 0.21681 6.44487 0.0550751 6.43728Z" fill="#34A873"/>
<path d="M7.32354 12.4458C7.27796 12.3753 7.27754 12.2873 7.32247 12.2165L10.687 6.8886C11.376 5.79481 12.647 5.12109 14.0223 5.12109H23.9316C23.9833 5.12109 24.0155 5.17283 23.9891 5.21408L22.2965 7.85575C22.2708 7.89591 22.2237 7.92051 22.1731 7.92051L15.2984 7.91111C14.2817 7.90858 13.3421 8.40898 12.8388 9.22091L9.27013 14.9771C9.20104 15.0886 9.0266 15.0889 8.95679 14.9783L7.32354 12.4458Z" fill="#34A873"/>
<path d="M10.1631 16.7909C10.103 16.6979 10.1019 16.5825 10.1598 16.4884L13.3703 11.284C14.0892 10.1276 15.4272 9.41406 16.8764 9.41406H21.1741C21.2294 9.41406 21.2638 9.46906 21.2359 9.51284L19.5401 12.1755C19.4937 12.25 19.4073 12.296 19.3136 12.296H17.8576C16.9436 12.296 16.1003 12.7461 15.6472 13.4755L12.0829 19.2737C12.0138 19.3859 11.8387 19.3877 11.7671 19.2766L10.1631 16.7909Z" fill="#2776B2"/>
</svg>
