<svg width="24" height="24" viewBox="0 0 24 24" fill="none" xmlns="http://www.w3.org/2000/svg">
<path d="M12 3C16.968 3 21 7.032 21 12C21 16.968 16.968 21 12 21C7.032 21 3 16.968 3 12C3 7.032 7.032 3 12 3ZM12 5.376C8.328 5.376 5.376 8.328 5.376 12C5.376 15.672 8.328 18.624 12 18.624C15.672 18.624 18.624 15.672 18.624 12C18.624 8.328 15.672 5.376 12 5.376ZM14.232 12.36C15.2659 12.36 16.104 13.1981 16.104 14.232C16.104 15.2659 15.2659 16.104 14.232 16.104C13.1981 16.104 12.36 15.2659 12.36 14.232C12.36 13.1981 13.1981 12.36 14.232 12.36ZM9.768 12.36C10.8019 12.36 11.64 13.1981 11.64 14.232C11.64 15.2659 10.8019 16.104 9.768 16.104C8.73412 16.104 7.896 15.2659 7.896 14.232C7.896 13.1981 8.73412 12.36 9.768 12.36ZM14.232 7.896C15.2659 7.896 16.104 8.73412 16.104 9.768C16.104 10.8019 15.2659 11.64 14.232 11.64C13.1981 11.64 12.36 10.8019 12.36 9.768C12.36 8.73412 13.1981 7.896 14.232 7.896ZM9.768 7.896C10.8019 7.896 11.64 8.73412 11.64 9.768C11.64 10.8019 10.8019 11.64 9.768 11.64C8.73412 11.64 7.896 10.8019 7.896 9.768C7.896 8.73412 8.73412 7.896 9.768 7.896Z" fill="#F12E45"/>
</svg>
