<svg width="68" height="68" viewBox="0 0 68 68" fill="none" xmlns="http://www.w3.org/2000/svg">
<path d="M35.5079 40.5968C35.0459 40.8513 34.5271 40.9848 33.9996 40.9848C33.4722 40.9848 32.9533 40.8513 32.4913 40.5968L10.5977 28.5188V51.1278C10.5989 52.3688 11.0924 53.5586 11.9699 54.436C12.8474 55.3135 14.0372 55.807 15.2781 55.8083H52.7219C53.9628 55.807 55.1526 55.3135 56.0301 54.436C56.9076 53.5586 57.4011 52.3688 57.4023 51.1278V28.5188L35.5079 40.5968Z" fill="white"/>
<path d="M52.7219 16.8047H15.2781C14.0372 16.8059 12.8474 17.2994 11.9699 18.1769C11.0924 19.0544 10.5989 20.2442 10.5977 21.4852V25.3855C10.5976 25.5251 10.635 25.6621 10.7059 25.7823C10.7769 25.9025 10.8788 26.0015 11.001 26.0689L33.6232 38.5501C33.7386 38.6138 33.8682 38.6472 34 38.6472C34.1318 38.6472 34.2614 38.6138 34.3768 38.5501L56.999 26.0689C57.1213 26.0015 57.2231 25.9025 57.2941 25.7823C57.365 25.6621 57.4024 25.5251 57.4023 25.3855V21.4852C57.4011 20.2442 56.9076 19.0544 56.0301 18.1769C55.1526 17.2994 53.9628 16.8059 52.7219 16.8047Z" fill="white"/>
</svg>
