<svg width="68" height="68" viewBox="0 0 68 68" fill="none" xmlns="http://www.w3.org/2000/svg">
<path d="M19.2784 40.7114C19.2784 43.6713 16.8861 46.0635 13.9263 46.0635C10.9664 46.0635 8.57422 43.6713 8.57422 40.7114C8.57422 37.7516 10.9664 35.3594 13.9263 35.3594H19.2784V40.7114ZM21.9544 40.7114C21.9544 37.7516 24.3466 35.3594 27.3065 35.3594C30.2663 35.3594 32.6585 37.7516 32.6585 40.7114V54.0916C32.6585 57.0515 30.2663 59.4437 27.3065 59.4437C24.3466 59.4437 21.9544 57.0515 21.9544 54.0916V40.7114Z" fill="#E01E5A"/>
<path d="M27.2728 19.2354C24.3129 19.2354 21.9207 16.8432 21.9207 13.8833C21.9207 10.9235 24.3129 8.53125 27.2728 8.53125C30.2326 8.53125 32.6249 10.9235 32.6249 13.8833V19.2354H27.2728ZM27.2728 21.952C30.2326 21.952 32.6249 24.3442 32.6249 27.304C32.6249 30.2639 30.2326 32.6561 27.2728 32.6561H13.8521C10.8922 32.6561 8.5 30.2639 8.5 27.304C8.5 24.3442 10.8922 21.952 13.8521 21.952H27.2728Z" fill="#36C5F0"/>
<path d="M48.7532 27.304C48.7532 24.3442 51.1454 21.952 54.1053 21.952C57.0651 21.952 59.4574 24.3442 59.4574 27.304C59.4574 30.2639 57.0651 32.6561 54.1053 32.6561H48.7532V27.304ZM46.0772 27.304C46.0772 30.2639 43.685 32.6561 40.7251 32.6561C37.7653 32.6561 35.373 30.2639 35.373 27.304V13.8833C35.373 10.9235 37.7653 8.53125 40.7251 8.53125C43.685 8.53125 46.0772 10.9235 46.0772 13.8833V27.304Z" fill="#2EB67D"/>
<path d="M40.7251 48.7395C43.685 48.7395 46.0772 51.1318 46.0772 54.0916C46.0772 57.0515 43.685 59.4437 40.7251 59.4437C37.7653 59.4437 35.373 57.0515 35.373 54.0916V48.7395H40.7251ZM40.7251 46.0635C37.7653 46.0635 35.373 43.6713 35.373 40.7114C35.373 37.7516 37.7653 35.3594 40.7251 35.3594H54.1458C57.1057 35.3594 59.4979 37.7516 59.4979 40.7114C59.4979 43.6713 57.1057 46.0635 54.1458 46.0635H40.7251Z" fill="#ECB22E"/>
</svg>
