<svg width="68" height="68" viewBox="0 0 68 68" fill="none" xmlns="http://www.w3.org/2000/svg">
<path d="M52.6875 25.6037C51.8931 25.6037 51.1528 25.4557 50.4667 25.1596C49.7806 24.8634 49.1797 24.4568 48.664 23.9397C48.1469 23.4241 47.7403 22.8232 47.4442 22.1371C47.1481 21.4524 47 20.7121 47 19.9162C47 19.1362 47.1481 18.3996 47.4442 17.7062C47.7403 17.0129 48.1469 16.4084 48.664 15.8927C49.1797 15.3756 49.7806 14.969 50.4667 14.6729C51.1513 14.3768 51.8916 14.2287 52.6875 14.2287C53.4675 14.2287 54.2042 14.3768 54.8975 14.6729C55.5908 14.969 56.1953 15.3756 56.711 15.8927C57.2281 16.4084 57.6347 17.0129 57.9308 17.7062C58.2269 18.3996 58.375 19.1362 58.375 19.9162C58.375 20.7107 58.2269 21.4509 57.9308 22.1371C57.6347 22.8232 57.2281 23.4241 56.711 23.9397C56.1953 24.4568 55.5908 24.8634 54.8975 25.1596C54.2042 25.4557 53.4675 25.6037 52.6875 25.6037ZM52.6875 17.4787C52.0101 17.4787 51.4344 17.7156 50.9607 18.1894C50.4869 18.6632 50.25 19.2388 50.25 19.9162C50.25 20.5937 50.4869 21.1693 50.9607 21.6431C51.4344 22.1168 52.0101 22.3537 52.6875 22.3537C53.3649 22.3537 53.9406 22.1168 54.4143 21.6431C54.8881 21.1693 55.125 20.5937 55.125 19.9162C55.125 19.2388 54.8881 18.6632 54.4143 18.1894C53.9406 17.7156 53.3649 17.4787 52.6875 17.4787ZM60 29.6662V41.7519C60 42.8699 59.7884 43.9243 59.3652 44.9152C58.9419 45.9047 58.362 46.767 57.6253 47.5022C56.8887 48.2389 56.0256 48.8188 55.0362 49.2421C54.0453 49.6653 52.9916 49.8769 51.875 49.8769C51.2322 49.8769 50.5764 49.8011 49.9077 49.6494C49.2389 49.4963 48.625 49.2587 48.066 48.9366C47.6428 50.3088 47.0253 51.5575 46.2135 52.6827C45.4003 53.8094 44.4477 54.7743 43.3557 55.5774C42.2637 56.3819 41.0576 57.0038 39.7373 57.4429C38.4171 57.8834 37.0463 58.1037 35.625 58.1037C33.9668 58.1037 32.4053 57.8163 30.9407 57.2414C29.476 56.6651 28.1724 55.8692 27.0298 54.8537C25.8887 53.8383 24.9412 52.6365 24.1872 51.2484C23.4332 49.8603 22.9464 48.3537 22.7268 46.7287H10.1602C9.5665 46.7287 9.05806 46.5171 8.63483 46.0939C8.21161 45.6707 8 45.1629 8 44.5707V22.8867C8 22.2945 8.21161 21.7868 8.63483 21.3636C9.05806 20.9403 9.56578 20.7287 10.158 20.7287H28.7697C28.2786 19.6959 28.033 18.6126 28.033 17.4787C28.033 16.4286 28.2316 15.4428 28.6288 14.5212C29.0275 13.5982 29.5692 12.7937 30.2538 12.1076C30.9399 11.4229 31.7445 10.8812 32.6675 10.4826C33.5891 10.0853 34.5749 9.88672 35.625 9.88672C36.6751 9.88672 37.6609 10.0853 38.5825 10.4826C39.5055 10.8812 40.3101 11.4229 40.9962 12.1076C41.6808 12.7937 42.2225 13.5982 42.6212 14.5212C43.0184 15.4428 43.217 16.4286 43.217 17.4787C43.217 18.5288 43.0184 19.5147 42.6212 20.4362C42.2225 21.3592 41.6808 22.1631 40.9962 22.8477C40.3101 23.5338 39.5055 24.0755 38.5825 24.4727C37.6609 24.8714 36.6751 25.0707 35.625 25.0707C35.3534 25.0707 35.0826 25.0534 34.8125 25.0187C34.5409 24.9855 34.2701 24.9436 34 24.8931V27.2287H57.5625C58.2399 27.2287 58.8156 27.4656 59.2893 27.9394C59.7631 28.4132 60 28.9888 60 29.6662ZM35.625 13.1367C35.0328 13.1367 34.4694 13.2508 33.935 13.4791C33.4034 13.7073 32.9427 14.0207 32.5527 14.4194C32.1627 14.8166 31.8536 15.2781 31.6253 15.8039C31.3971 16.3282 31.283 16.8865 31.283 17.4787C31.283 18.0709 31.3971 18.6343 31.6253 19.1687C31.855 19.7003 32.1641 20.1611 32.5527 20.5511C32.9427 20.9411 33.4042 21.2502 33.9372 21.4784C34.4702 21.7066 35.0328 21.8207 35.625 21.8207C36.2172 21.8207 36.7755 21.7066 37.2998 21.4784C37.8256 21.2487 38.2878 20.9396 38.6865 20.5511C39.0823 20.1611 39.395 19.6996 39.6247 19.1666C39.8529 18.6336 39.967 18.0709 39.967 17.4787C39.967 16.8865 39.8529 16.3282 39.6247 15.8039C39.395 15.2781 39.0816 14.8159 38.6843 14.4172C38.2871 14.02 37.8256 13.7073 37.2998 13.4791C36.7755 13.2508 36.2172 13.1367 35.625 13.1367ZM23.0302 29.2589H27.9052V25.1986H14.097V29.2611H18.972V42.2611H23.0345L23.0302 29.2589ZM45.375 45.1037V30.4787H34V44.5707C34 45.1629 33.7884 45.6707 33.3652 46.0939C32.9419 46.5171 32.4342 46.7287 31.842 46.7287H26.0028C26.2224 47.8973 26.6239 48.9806 27.2075 49.9787C27.7925 50.9768 28.5039 51.8363 29.3417 52.5571C30.1794 53.2749 31.1313 53.8376 32.1973 54.2449C33.2633 54.6508 34.4059 54.8537 35.625 54.8537C36.9626 54.8537 38.2236 54.5995 39.408 54.0911C40.5924 53.5841 41.6296 52.8864 42.5193 51.9981C43.4077 51.1083 44.1053 50.0755 44.6123 48.8997C45.1208 47.7225 45.375 46.4572 45.375 45.1037ZM56.75 41.7519V30.4787H48.625V45.3312C49.0656 45.7718 49.5646 46.0982 50.1222 46.3106C50.6812 46.5214 51.2654 46.6269 51.875 46.6269C52.5524 46.6269 53.1873 46.4998 53.7795 46.2456C54.3717 45.9928 54.8881 45.6461 55.3287 45.2056C55.7678 44.765 56.1144 44.2486 56.3687 43.6564C56.6229 43.0642 56.75 42.4293 56.75 41.7519Z" fill="#7A7FD8"/>
</svg>
