<svg width="68" height="68" viewBox="0 0 68 68" fill="none" xmlns="http://www.w3.org/2000/svg">
<g clip-path="url(#clip0_42002_40591)">
<path d="M34 60C48.3594 60 60 48.3594 60 34C60 19.6406 48.3594 8 34 8C19.6406 8 8 19.6406 8 34C8 48.3594 19.6406 60 34 60Z" fill="url(#paint0_linear_42002_40591)"/>
<path d="M25.6035 35.9022L28.6882 44.4402C28.6882 44.4402 29.0739 45.239 29.4868 45.239C29.8998 45.239 36.0421 38.8491 36.0421 38.8491L42.8725 25.6562L25.7136 33.6983L25.6035 35.9022Z" fill="#C8DAEA"/>
<path d="M29.6943 38.0977L29.1022 44.391C29.1022 44.391 28.8543 46.3193 30.7822 44.391C32.7101 42.4626 34.5554 40.9756 34.5554 40.9756" fill="#A9C6D8"/>
<path d="M25.6559 36.2007L19.3106 34.1333C19.3106 34.1333 18.5523 33.8256 18.7965 33.128C18.8468 32.9841 18.9482 32.8617 19.2515 32.6513C20.6574 31.6713 45.2745 22.8233 45.2745 22.8233C45.2745 22.8233 45.9695 22.5891 46.3795 22.7449C46.4809 22.7763 46.5721 22.834 46.6439 22.9123C46.7156 22.9905 46.7653 23.0864 46.7879 23.1901C46.8322 23.3734 46.8507 23.5619 46.8429 23.7502C46.841 23.9131 46.8212 24.0642 46.8063 24.301C46.6564 26.7201 42.1696 44.7745 42.1696 44.7745C42.1696 44.7745 41.9012 45.8309 40.9394 45.8671C40.703 45.8747 40.4676 45.8347 40.247 45.7494C40.0264 45.6641 39.8253 45.5352 39.6556 45.3705C37.7683 43.747 31.2449 39.363 29.8034 38.3988C29.7709 38.3767 29.7435 38.3478 29.7231 38.3142C29.7027 38.2805 29.6897 38.2429 29.6851 38.2038C29.6649 38.1022 29.7754 37.9763 29.7754 37.9763C29.7754 37.9763 41.1344 27.8797 41.4366 26.8197C41.46 26.7376 41.3716 26.6971 41.2529 26.7331C40.4985 27.0106 27.42 35.2697 25.9766 36.1812C25.8727 36.2127 25.7629 36.2194 25.6559 36.2007Z" fill="white"/>
</g>
<defs>
<linearGradient id="paint0_linear_42002_40591" x1="34" y1="60" x2="34" y2="8" gradientUnits="userSpaceOnUse">
<stop stop-color="#1D93D2"/>
<stop offset="1" stop-color="#38B0E3"/>
</linearGradient>
<clipPath id="clip0_42002_40591">
<rect width="52" height="52" fill="white" transform="translate(8 8)"/>
</clipPath>
</defs>
</svg>
