<svg width="68" height="68" viewBox="0 0 68 68" fill="none" xmlns="http://www.w3.org/2000/svg">
<path d="M23.5381 51.462L24.3092 51.9191C27.549 53.8418 31.2635 54.8586 35.0514 54.8606H35.0596C46.6926 54.8606 56.1604 45.395 56.1648 33.7613C56.1666 28.1231 53.9736 22.8222 49.9888 18.8338C46.0037 14.8461 40.7054 12.6485 35.0672 12.6462C23.4254 12.6462 13.9576 22.1103 13.9532 33.744C13.9516 37.7306 15.0668 41.6133 17.1799 44.9722L17.6821 45.7706L15.5495 53.5564L23.5381 51.462ZM9.45312 59.5875L13.0555 46.4335C10.8335 42.5837 9.66459 38.2166 9.66642 33.7428C9.67183 19.7464 21.0622 8.35938 35.0601 8.35938C41.8525 8.3623 48.228 11.0058 53.0223 15.8041C57.8161 20.6023 60.4553 26.9803 60.4531 33.7633C60.4472 47.7591 49.0544 59.1483 35.0601 59.1483C35.0591 59.1483 35.0607 59.1483 35.0601 59.1483H35.0493C30.7996 59.1468 26.6238 58.0808 22.9149 56.058L9.45312 59.5875Z" fill="white"/>
<path d="M10.559 33.7511C10.5575 38.0696 11.6859 42.2857 13.8315 46.0026L10.3535 58.7013L23.3486 55.2938C26.9291 57.2449 30.9602 58.2749 35.0629 58.2762H35.0734C48.5839 58.2762 59.5808 47.2823 59.5866 33.7704C59.5892 27.2222 57.0416 21.0658 52.4131 16.4333C47.7853 11.8014 41.6307 9.24917 35.0723 9.24609C21.5612 9.24609 10.5649 20.2385 10.559 33.7511ZM35.0734 58.2762C35.0729 58.2762 35.0732 58.2762 35.0734 58.2762V58.2762Z" fill="url(#paint0_linear_42002_39504)"/>
<path d="M9.66642 33.7437C9.66488 38.2173 10.8338 42.5849 13.0558 46.4343L9.45312 59.5875L22.9145 56.058C26.6235 58.0806 30.7991 59.1465 35.0489 59.1483H35.0597C49.054 59.1483 60.4468 47.7591 60.4527 33.7633C60.455 26.9799 57.8158 20.6021 53.0219 15.8041C48.2273 11.0061 41.8523 8.3623 35.0597 8.35938C21.0625 8.35938 9.67185 19.7464 9.66599 33.7428M17.6824 45.7711L17.1799 44.9729C15.0669 41.6136 13.9517 37.731 13.9532 33.7448C13.9578 22.1118 23.4254 12.6469 35.0672 12.6469C40.7048 12.6491 46.0033 14.8469 49.9888 18.8345C53.9739 22.8224 56.1667 28.1238 56.1651 33.7613C56.16 45.395 46.6922 54.8606 35.0592 54.8606H35.0509C31.2631 54.8584 27.5484 53.8417 24.3088 51.9193L23.5377 51.4622L15.5492 53.5566L17.6824 45.7711ZM35.0597 59.1483C35.0592 59.1483 35.0595 59.1483 35.0597 59.1483V59.1483Z" fill="url(#paint1_linear_42002_39504)"/>
<path fill-rule="evenodd" clip-rule="evenodd" d="M28.7224 23.1267C28.247 22.0701 27.7468 22.0489 27.2947 22.0303C26.9247 22.0146 26.5015 22.0156 26.0788 22.0156C25.6555 22.0156 24.9682 22.1744 24.3869 22.8094C23.8051 23.4443 22.166 24.9792 22.166 28.1007C22.166 31.2226 24.4399 34.2391 24.7567 34.6628C25.074 35.0858 29.1462 41.6967 35.5948 44.2397C40.9546 46.3532 42.0453 45.9329 43.2086 45.8269C44.3719 45.7213 46.9625 44.2926 47.4911 42.811C48.0199 41.3296 48.0199 40.0597 47.8614 39.7945C47.7028 39.5301 47.2796 39.3713 46.6451 39.0542C46.0104 38.7369 42.8912 37.2018 42.3097 36.9901C41.7279 36.7786 41.3049 36.673 40.8817 37.3082C40.4588 37.9426 39.2436 39.3713 38.8733 39.7945C38.5033 40.2185 38.133 40.2715 37.4986 39.9541C36.8639 39.6357 34.8203 38.9664 32.3962 36.8052C30.5099 35.1234 29.2366 33.0466 28.8663 32.4113C28.4963 31.7769 28.8268 31.4332 29.1449 31.1169C29.43 30.8326 29.7796 30.376 30.097 30.0058C30.4136 29.6352 30.5192 29.3708 30.7307 28.9476C30.9424 28.5241 30.8365 28.1535 30.678 27.8362C30.5192 27.5188 29.2865 24.3814 28.7224 23.1267Z" fill="white"/>
<defs>
<linearGradient id="paint0_linear_42002_39504" x1="34.9703" y1="58.6962" x2="34.9703" y2="9.2409" gradientUnits="userSpaceOnUse">
<stop stop-color="#20B038"/>
<stop offset="1" stop-color="#60D66A"/>
</linearGradient>
<linearGradient id="paint1_linear_42002_39504" x1="34.9533" y1="59.589" x2="34.9533" y2="8.36091" gradientUnits="userSpaceOnUse">
<stop stop-color="#F9F9F9"/>
<stop offset="1" stop-color="white"/>
</linearGradient>
</defs>
</svg>
