<svg width="24" height="24" viewBox="0 0 24 24" fill="none" xmlns="http://www.w3.org/2000/svg">
<path d="M22.1357 6.74934C22.1357 5.66883 21.2598 4.79297 20.1794 4.79297C19.099 4.79297 18.2231 5.66883 18.2231 6.74934V17.1831C18.2231 18.2635 19.099 19.1393 20.1794 19.1393C21.2598 19.1393 22.1357 18.2635 22.1357 17.1831V6.74934ZM13.9516 6.74934C13.9516 5.66883 13.0758 4.79297 11.9954 4.79297C10.9149 4.79297 10.0391 5.66883 10.0391 6.74934V17.1831C10.0391 18.2635 10.9149 19.1393 11.9954 19.1393C13.0758 19.1393 13.9516 18.2635 13.9516 17.1831V6.74934Z" stroke="#4F46E5" stroke-miterlimit="10"/>
<path d="M21.7177 7.95094C22.3835 7.10006 22.2334 5.87047 21.3824 5.20472C20.5315 4.53896 19.302 4.68897 18.6361 5.53994L10.4668 15.9811C9.80101 16.8321 9.9511 18.0617 10.8021 18.7274C11.653 19.3932 12.8825 19.2431 13.5484 18.3922L21.7177 7.95094ZM13.5259 7.95126C14.1916 7.10037 14.0416 5.87079 13.1907 5.20503C12.3397 4.53927 11.1101 4.68928 10.4444 5.54025L2.275 15.9815C1.60925 16.8324 1.75933 18.062 2.6103 18.7278C3.46119 19.3935 4.69077 19.2434 5.35652 18.3925L13.5259 7.95126Z" stroke="#4F46E5" stroke-miterlimit="10"/>
</svg>
