<svg width="24" height="24" viewBox="0 0 24 24" fill="none" xmlns="http://www.w3.org/2000/svg">
<path d="M4.64602 4.11396C5.0522 4.01367 5.47186 3.97924 5.88896 4.012C8.41658 4.01501 10.9431 4.01501 13.4686 4.012C13.8978 4.00314 14.3201 4.12169 14.682 4.35268C15.044 4.58366 15.3293 4.91673 15.5021 5.3098C15.6365 5.63813 15.6868 5.99485 15.6483 6.34755C15.6099 6.70026 15.4839 7.03776 15.2819 7.32942C15.0799 7.62108 14.8082 7.85764 14.4915 8.01762C14.1748 8.1776 13.8232 8.25593 13.4686 8.24549C10.7474 8.24248 8.02614 8.24248 5.30492 8.24549C4.77304 8.25805 4.25572 8.07108 3.85478 7.72138C3.45384 7.37167 3.19831 6.88456 3.13848 6.35591C3.08225 5.86401 3.2031 5.36816 3.47937 4.95731C3.75564 4.54645 4.16925 4.24746 4.64602 4.11396Z" fill="#F75D3C"/>
<path d="M18.4862 4.10076C19.0042 3.96588 19.5539 4.0287 20.0282 4.27697C20.5024 4.52524 20.8672 4.94117 21.0515 5.44373C21.1433 5.7035 21.1824 5.97896 21.1666 6.25402C21.1508 6.52908 21.0803 6.79824 20.9593 7.04576C20.8383 7.29328 20.6692 7.51422 20.4619 7.69567C20.2545 7.87712 20.0131 8.01545 19.7518 8.10257C19.4481 8.21412 19.123 8.25522 18.8012 8.22276C18.4793 8.1903 18.169 8.08514 17.8937 7.91521C17.6184 7.74528 17.3854 7.51502 17.2121 7.24183C17.0388 6.96863 16.9299 6.65964 16.8935 6.33819C16.8424 5.83549 16.9757 5.33136 17.2688 4.91972C17.5618 4.50808 17.9945 4.21701 18.4862 4.10076Z" fill="#F75D3C"/>
<path d="M10.1815 10.0944C10.593 10.0261 11.0105 10.0021 11.4271 10.0228C13.9588 10.0286 16.4924 10.0228 19.0241 10.0273C19.3037 10.021 19.5817 10.0707 19.8417 10.1735C20.1018 10.2762 20.3386 10.43 20.5384 10.6257C20.7381 10.8214 20.8967 11.0551 21.0047 11.313C21.1128 11.5709 21.1681 11.8478 21.1675 12.1274C21.1669 12.407 21.1104 12.6837 21.0012 12.9411C20.892 13.1986 20.7325 13.4316 20.5319 13.6264C20.3313 13.8212 20.0938 13.974 19.8333 14.0756C19.5728 14.1773 19.2946 14.2257 19.0151 14.2182C16.2401 14.2182 13.4651 14.224 10.6901 14.2182C10.1733 14.2154 9.67629 14.0189 9.2973 13.6675C8.91831 13.3161 8.68485 12.8354 8.64303 12.3203C8.59411 11.8271 8.72194 11.3326 9.00372 10.9249C9.2855 10.5173 9.70292 10.223 10.1815 10.0944Z" fill="#F75D3C"/>
<path d="M4.76033 15.85C5.04175 15.8075 5.32642 15.7905 5.6109 15.799C8.28393 15.8093 10.9557 15.7945 13.6274 15.8061C13.907 15.8126 14.1825 15.8749 14.4377 15.9893C14.6929 16.1036 14.9227 16.2678 15.1136 16.4722C15.3045 16.6766 15.4527 16.917 15.5495 17.1794C15.6462 17.4418 15.6896 17.7209 15.6771 18.0003C15.6439 18.5307 15.4137 19.0295 15.0316 19.3988C14.6495 19.7682 14.1431 19.9813 13.6119 19.9964C10.7961 19.9994 7.98019 19.9994 5.16432 19.9964C4.65373 19.9822 4.16586 19.7822 3.79224 19.4339C3.41862 19.0857 3.18494 18.613 3.13504 18.1047C3.08514 17.5963 3.22245 17.0873 3.52122 16.673C3.81998 16.2587 4.25966 15.9677 4.75775 15.8545L4.76033 15.85Z" fill="#F75D3C"/>
<path d="M18.3459 15.9004C18.8688 15.7295 19.437 15.7635 19.9357 15.9955C20.4345 16.2276 20.8265 16.6404 21.0325 17.1504C21.137 17.4435 21.1761 17.7558 21.1471 18.0656C21.1181 18.3754 21.0217 18.6751 20.8646 18.9437C20.7075 19.2122 20.4935 19.4432 20.2377 19.6203C19.9819 19.7974 19.6905 19.9164 19.3838 19.969C19.0771 20.0215 18.7627 20.0064 18.4625 19.9245C18.1623 19.8427 17.8837 19.6962 17.6461 19.4953C17.4086 19.2943 17.2179 19.0439 17.0873 18.7614C16.9568 18.479 16.8897 18.1714 16.8906 17.8603C16.8914 17.4208 17.0332 16.9932 17.2952 16.6404C17.5571 16.2876 17.9255 16.0282 18.3459 15.9004Z" fill="#F75D3C"/>
<path d="M4.64349 10.0722C5.02898 9.95564 5.43949 9.95006 5.828 10.0561C6.21651 10.1621 6.56731 10.3753 6.84023 10.6715C7.11314 10.9676 7.29712 11.3346 7.3711 11.7305C7.44508 12.1263 7.40607 12.535 7.25853 12.9097C7.111 13.2844 6.8609 13.61 6.53689 13.8492C6.21289 14.0883 5.82807 14.2314 5.42652 14.262C5.02497 14.2926 4.62293 14.2094 4.26645 14.0221C3.90996 13.8347 3.61345 13.5508 3.41087 13.2027C3.25004 12.9225 3.15429 12.6097 3.13073 12.2875C3.10718 11.9652 3.1564 11.6418 3.27477 11.3412C3.39314 11.0406 3.57762 10.7704 3.81455 10.5507C4.05147 10.3311 4.33478 10.1675 4.64349 10.0722Z" fill="#F93748"/>
</svg>
