<svg width="24" height="24" viewBox="0 0 24 24" fill="none" xmlns="http://www.w3.org/2000/svg">
<g clip-path="url(#clip0_35932_48739)">
<path d="M11.9985 13.9033C13.0505 13.9033 13.9033 13.0505 13.9033 11.9985C13.9033 10.9465 13.0505 10.0938 11.9985 10.0938C10.9465 10.0938 10.0938 10.9465 10.0938 11.9985C10.0938 13.0505 10.9465 13.9033 11.9985 13.9033Z" fill="#149ECA"/>
<path d="M12.0004 16.2863C17.2602 16.2863 21.5242 14.3675 21.5242 12.0006C21.5242 9.63362 17.2602 7.71484 12.0004 7.71484C6.74052 7.71484 2.47656 9.63362 2.47656 12.0006C2.47656 14.3675 6.74052 16.2863 12.0004 16.2863Z" stroke="#149ECA" stroke-width="0.952381"/>
<path d="M8.29196 14.1429C10.9219 18.6981 14.7156 21.4314 16.7654 20.248C18.8152 19.0645 18.345 14.4124 15.715 9.85724C13.0851 5.30207 9.29141 2.56876 7.24159 3.75223C5.19176 4.9357 5.66203 9.58778 8.29196 14.1429Z" stroke="#149ECA" stroke-width="0.952381"/>
<path d="M8.29158 9.85668C5.66166 14.4118 5.19139 19.0639 7.24122 20.2474C9.29104 21.4309 13.0847 18.6976 15.7147 14.1424C18.3446 9.58722 18.8149 4.93514 16.765 3.75167C14.7152 2.56821 10.9215 5.30151 8.29158 9.85668Z" stroke="#149ECA" stroke-width="0.952381"/>
</g>
<defs>
<clipPath id="clip0_35932_48739">
<rect width="20" height="20" fill="white" transform="translate(2 2)"/>
</clipPath>
</defs>
</svg>
