<svg width="24" height="19" viewBox="0 0 24 19" fill="none" xmlns="http://www.w3.org/2000/svg">
<g clip-path="url(#clip0_2511_8354)">
<path d="M15.3785 0C15.144 0.416405 14.9334 0.847175 14.742 1.28751C12.9232 1.0147 11.0709 1.0147 9.24729 1.28751C9.06062 0.847175 8.84523 0.416405 8.61072 0C6.902 0.291974 5.23636 0.8041 3.65689 1.52682C0.526643 6.16476 -0.320532 10.683 0.100668 15.1391C1.93381 16.4936 3.98715 17.5274 6.17448 18.1879C6.66747 17.5274 7.10303 16.8238 7.47636 16.0915C6.76798 15.8283 6.08354 15.498 5.42782 15.1151C5.60012 14.9907 5.76765 14.8615 5.93038 14.737C9.77378 16.5463 14.225 16.5463 18.0732 14.737C18.236 14.871 18.4035 15.0003 18.5758 15.1151C17.9201 15.5028 17.2356 15.8283 16.5225 16.0963C16.8958 16.8286 17.3313 17.5322 17.8243 18.1927C20.0116 17.5322 22.0649 16.5032 23.8982 15.1486C24.3959 9.97943 23.0462 5.49945 20.3323 1.53162C18.7577 0.808894 17.092 0.29675 15.3833 0.00957013L15.3785 0ZM8.01242 12.3965C6.83022 12.3965 5.84902 11.3244 5.84902 9.99859C5.84902 8.6728 6.79192 7.59586 8.00765 7.59586C9.22337 7.59586 10.1902 8.67757 10.171 9.99859C10.1519 11.3196 9.21858 12.3965 8.01242 12.3965ZM15.9864 12.3965C14.7994 12.3965 13.8278 11.3244 13.8278 9.99859C13.8278 8.6728 14.7707 7.59586 15.9864 7.59586C17.2021 7.59586 18.1642 8.67757 18.145 9.99859C18.1259 11.3196 17.1925 12.3965 15.9864 12.3965Z" fill="#5865F2"/>
</g>
<defs>
<clipPath id="clip0_2511_8354">
<rect width="24" height="18.1927" fill="white"/>
</clipPath>
</defs>
</svg>
