<svg width="24" height="24" viewBox="0 0 24 24" fill="none" xmlns="http://www.w3.org/2000/svg">
<path d="M12.6171 13.76C12.4276 13.8644 12.2147 13.9191 11.9984 13.9191C11.782 13.9191 11.5691 13.8644 11.3796 13.76L2.39844 8.80535V18.08C2.39895 18.589 2.6014 19.0771 2.96136 19.4371C3.32132 19.797 3.80939 19.9995 4.31845 20H19.6786C20.1876 19.9995 20.6757 19.797 21.0357 19.4371C21.3956 19.0771 21.5981 18.589 21.5986 18.08V8.80535L12.6171 13.76Z" fill="#E6E6E6"/>
<path d="M19.6786 4H4.31845C3.80939 4.00051 3.32132 4.20296 2.96136 4.56292C2.6014 4.92288 2.39895 5.41095 2.39844 5.92002V7.52003C2.39842 7.57728 2.41375 7.63349 2.44285 7.6828C2.47195 7.7321 2.51375 7.7727 2.56388 7.80035L11.844 12.9204C11.8913 12.9465 11.9445 12.9602 11.9985 12.9602C12.0526 12.9602 12.1057 12.9465 12.1531 12.9204L21.4331 7.80035C21.4833 7.7727 21.5251 7.7321 21.5542 7.6828C21.5833 7.63349 21.5986 7.57728 21.5986 7.52003V5.92002C21.5981 5.41095 21.3956 4.92288 21.0357 4.56292C20.6757 4.20296 20.1876 4.00051 19.6786 4Z" fill="#E6E6E6"/>
</svg>
