<svg width="24" height="24" viewBox="0 0 24 24" fill="none" xmlns="http://www.w3.org/2000/svg">
<path d="M12.0078 0.281375C18.6378 0.281375 24.0078 5.65137 24.0078 12.2814C24.0061 17.4371 20.7172 22.0177 15.8332 23.6659C15.2332 23.7859 15.0078 23.4105 15.0078 23.0959C15.0078 22.6905 15.0232 21.4005 15.0232 19.7959C15.0232 18.6714 14.6487 17.9514 14.2132 17.5759C16.8832 17.2759 19.6887 16.2559 19.6887 11.6514C19.6887 10.3314 19.2232 9.26595 18.4587 8.4268C18.5787 8.1268 18.9987 6.8968 18.3387 5.2468C18.3387 5.2468 17.3332 4.9168 15.0387 6.4768C14.0787 6.2068 13.0587 6.07223 12.0387 6.07223C11.0187 6.07223 9.99867 6.2068 9.03867 6.4768C6.7441 4.93223 5.73867 5.2468 5.73867 5.2468C5.07867 6.8968 5.49867 8.1268 5.61867 8.4268C4.8541 9.2668 4.38867 10.3468 4.38867 11.6514C4.38867 16.2414 7.17867 17.2768 9.84867 17.5768C9.50324 17.8768 9.18867 18.4022 9.08324 19.1814C8.39324 19.4968 6.66781 20.0068 5.58867 18.1914C5.36324 17.8314 4.68867 16.9468 3.7441 16.9614C2.73867 16.9768 3.33953 17.5314 3.75867 17.7559C4.26867 18.0405 4.85324 19.1059 4.98867 19.4514C5.22867 20.1259 6.00867 21.4168 9.02324 20.8614C9.02324 21.8668 9.03867 22.8114 9.03867 23.0959C9.03867 23.4114 8.81324 23.7705 8.21324 23.6659C3.31124 22.0339 0.00524257 17.4474 0.007814 12.2805C0.007814 5.65052 5.37781 0.281375 12.0078 0.281375Z" fill="white"/>
</svg>
