<svg width="24" height="24" viewBox="0 0 24 24" fill="none" xmlns="http://www.w3.org/2000/svg">
<path d="M6.78906 2L6.78969 6.79284" stroke="#7E916F" stroke-width="0.125352"/>
<path d="M6.78719 6.79422L2 6.79297" stroke="#1375EB" stroke-width="0.125352"/>
<path d="M16.7398 2.03711C16.7331 2.03962 16.7274 2.04233 16.7228 2.04526C16.7157 2.04902 16.7122 2.05487 16.7122 2.06281L16.7109 6.79547" stroke="#F3801D" stroke-width="0.125352"/>
<path d="M16.7069 6.79492C16.7059 6.79492 16.7046 6.79492 16.7031 6.79492" stroke="#7EB426" stroke-width="0.125352"/>
<path d="M6.79131 6.79522C6.79081 6.79472 6.79006 6.79397 6.78906 6.79297" stroke="#91A080" stroke-width="0.125352"/>
<path d="M21.4687 6.78027L16.7109 6.79532" stroke="#75783E" stroke-width="0.125352"/>
<path d="M6.79033 13.4192L2 13.418" stroke="#138495" stroke-width="0.125352"/>
<path d="M6.7975 18.2098L6.79688 15.8105" stroke="#00983A" stroke-width="0.125352"/>
<path d="M6.78657 2L6.78719 6.79284L2 6.79158V3.26982C2.03552 3.02078 2.10927 2.81165 2.22125 2.64243C2.49744 2.22375 2.89898 2.01295 3.42588 2.01003C4.53984 2.00418 5.66007 2.00084 6.78657 2Z" fill="#0066DA"/>
<path d="M6.78906 2L16.6555 2.00125C16.6763 2.00125 16.6965 2.0076 16.7132 2.01943L16.7364 2.03635C16.7297 2.03886 16.724 2.04158 16.7195 2.0445C16.7123 2.04826 16.7088 2.05411 16.7088 2.06205L16.7075 6.79472C16.7067 6.79472 16.7057 6.79472 16.7044 6.79472H6.79157C6.79115 6.7943 6.79052 6.79367 6.78969 6.79284L6.78906 2Z" fill="#FBBC04"/>
<path d="M16.7398 2.03711L21.4687 6.78043L16.7109 6.79547L16.7122 2.06281C16.7122 2.05487 16.7157 2.04902 16.7228 2.04526C16.7274 2.04233 16.7331 2.03962 16.7398 2.03711Z" fill="#EA4335"/>
<path d="M2 6.79297L6.78719 6.79422C6.78803 6.79506 6.78866 6.79568 6.78908 6.7961L6.79033 13.4197L2 13.4185V6.79297Z" fill="#2684FC"/>
<path d="M21.4693 6.78027L21.4988 6.80158V16.9488C21.3876 17.556 21.073 17.9481 20.5549 18.1253C20.3702 18.1888 20.098 18.2201 19.7382 18.2193C17.4029 18.2155 15.0438 18.212 12.6608 18.2086C12.3149 18.2082 11.9639 18.2107 11.6079 18.2161C11.5882 18.2166 11.5715 18.2237 11.5577 18.2375C10.392 19.3978 9.22202 20.5682 8.04789 21.7486C7.86801 21.9297 7.66431 22.0306 7.40609 21.9924C7.16541 21.9569 6.98804 21.8328 6.87397 21.6201C6.82592 21.5298 6.80147 21.3652 6.80064 21.1262C6.79771 20.1572 6.79667 19.1851 6.7975 18.2099L6.79688 15.8106L9.16478 13.4427C9.17509 13.4324 9.18738 13.4242 9.20093 13.4186C9.21448 13.413 9.22903 13.4101 9.24375 13.4101L16.6583 13.4126C16.6721 13.4126 16.6854 13.4072 16.6951 13.3974C16.7049 13.3877 16.7103 13.3744 16.7103 13.3606L16.7085 6.79532C16.7097 6.79532 16.7108 6.79532 16.7116 6.79532L21.4693 6.78027Z" fill="#00AC47"/>
<path d="M6.79033 13.4192V15.8109L6.79096 18.2102C5.78939 18.216 4.7964 18.2179 3.81196 18.2158C3.40164 18.215 3.10602 18.1828 2.9251 18.1193C2.41784 17.9421 2.10947 17.5494 2 16.941V13.418L6.79033 13.4192Z" fill="#00832D"/>
</svg>
