<svg width="24" height="24" viewBox="0 0 24 24" fill="none" xmlns="http://www.w3.org/2000/svg">
<g clip-path="url(#clip0_2511_8324)">
<path d="M18.7143 0H5.28571C2.3665 0 0 2.3665 0 5.28572V18.7143C0 21.6335 2.3665 24 5.28571 24H18.7143C21.6335 24 24 21.6335 24 18.7143V5.28572C24 2.3665 21.6335 0 18.7143 0Z" fill="url(#paint0_linear_2511_8324)"/>
<path d="M11.9964 4.1543C9.66017 4.15431 7.41959 4.92734 5.76759 6.30334C4.1156 7.67934 3.18752 9.54559 3.1875 11.4915C3.18963 12.7573 3.58484 14.001 4.33472 15.102C5.0846 16.2029 6.16365 17.1235 7.467 17.7743C7.11987 18.5514 6.59925 19.2802 5.92669 19.9304C7.23094 19.7014 8.45526 19.2204 9.50438 18.5249C10.3133 18.7251 11.1526 18.8274 11.9964 18.8288C14.3327 18.8288 16.5733 18.0557 18.2253 16.6797C19.8773 15.3038 20.8054 13.4375 20.8054 11.4915C20.8054 9.54559 19.8773 7.67934 18.2253 6.30334C16.5733 4.92734 14.3327 4.15431 11.9964 4.1543Z" fill="white"/>
</g>
<defs>
<linearGradient id="paint0_linear_2511_8324" x1="12.1905" y1="22.4069" x2="12.1905" y2="2.97851" gradientUnits="userSpaceOnUse">
<stop stop-color="#0CBD2A"/>
<stop offset="1" stop-color="#5BF675"/>
</linearGradient>
<clipPath id="clip0_2511_8324">
<rect width="24" height="24" fill="white"/>
</clipPath>
</defs>
</svg>
