<svg width="24" height="24" viewBox="0 0 24 24" fill="none" xmlns="http://www.w3.org/2000/svg">
<g clip-path="url(#clip0_2511_8362)">
<path fill-rule="evenodd" clip-rule="evenodd" d="M11.9952 1.33008C5.85849 1.33008 1.10156 5.82523 1.10156 11.8969C1.10156 15.0728 2.40313 17.8171 4.52277 19.7127C4.70071 19.8719 4.80812 20.095 4.81542 20.3338L4.87475 22.2716C4.8937 22.8897 5.53216 23.2919 6.09776 23.0422L8.25999 22.0877C8.44329 22.0069 8.64867 21.9918 8.84182 22.045C9.83543 22.3182 10.8929 22.4637 11.9952 22.4637C18.1319 22.4637 22.8888 17.9686 22.8888 11.8969C22.8888 5.82523 18.1319 1.33008 11.9952 1.33008Z" fill="url(#paint0_radial_2511_8362)"/>
<path fill-rule="evenodd" clip-rule="evenodd" d="M5.45129 14.9868L8.65129 9.90989C9.16031 9.10224 10.2503 8.90114 11.0141 9.47393L13.5592 11.3828C13.7927 11.5579 14.114 11.557 14.3466 11.3805L17.7839 8.77183C18.2427 8.42367 18.8415 8.97271 18.5345 9.45994L15.3345 14.5369C14.8254 15.3445 13.7354 15.5456 12.9717 14.9728L10.4265 13.0639C10.193 12.8888 9.87171 12.8897 9.63919 13.0662L6.20186 15.6749C5.74308 16.023 5.1442 15.474 5.45129 14.9868Z" fill="white"/>
</g>
<defs>
<radialGradient id="paint0_radial_2511_8362" cx="0" cy="0" r="1" gradientUnits="userSpaceOnUse" gradientTransform="translate(5.29505 23.0008) scale(23.7393 23.7393)">
<stop stop-color="#0099FF"/>
<stop offset="0.609754" stop-color="#A033FF"/>
<stop offset="0.934823" stop-color="#FF5280"/>
<stop offset="1" stop-color="#FF7061"/>
</radialGradient>
<clipPath id="clip0_2511_8362">
<rect width="24" height="24" fill="white"/>
</clipPath>
</defs>
</svg>
