<svg width="24" height="24" viewBox="0 0 24 24" fill="none" xmlns="http://www.w3.org/2000/svg">
<path d="M5.06318 15.1488C5.06318 16.5423 3.93687 17.6686 2.54331 17.6686C1.14974 17.6686 0.0234375 16.5423 0.0234375 15.1488C0.0234375 13.7552 1.14974 12.6289 2.54331 12.6289H5.06318V15.1488ZM6.32312 15.1488C6.32312 13.7552 7.44942 12.6289 8.84299 12.6289C10.2366 12.6289 11.3629 13.7552 11.3629 15.1488V21.4485C11.3629 22.842 10.2366 23.9683 8.84299 23.9683C7.44942 23.9683 6.32312 22.842 6.32312 21.4485V15.1488Z" fill="#E01E5A"/>
<path d="M8.84645 5.03974C7.45289 5.03974 6.32658 3.91344 6.32658 2.51987C6.32658 1.12631 7.45289 0 8.84645 0C10.24 0 11.3663 1.12631 11.3663 2.51987V5.03974H8.84645ZM8.84645 6.31877C10.24 6.31877 11.3663 7.44508 11.3663 8.83864C11.3663 10.2322 10.24 11.3585 8.84645 11.3585H2.52768C1.13412 11.3585 0.0078125 10.2322 0.0078125 8.83864C0.0078125 7.44508 1.13412 6.31877 2.52768 6.31877H8.84645Z" fill="#36C5F0"/>
<path d="M18.9481 8.83864C18.9481 7.44508 20.0744 6.31877 21.468 6.31877C22.8616 6.31877 23.9879 7.44508 23.9879 8.83864C23.9879 10.2322 22.8616 11.3585 21.468 11.3585H18.9481V8.83864ZM17.6882 8.83864C17.6882 10.2322 16.5619 11.3585 15.1683 11.3585C13.7747 11.3585 12.6484 10.2322 12.6484 8.83864V2.51987C12.6484 1.12631 13.7747 0 15.1683 0C16.5619 0 17.6882 1.12631 17.6882 2.51987V8.83864Z" fill="#2EB67D"/>
<path d="M15.1683 18.9286C16.5619 18.9286 17.6882 20.0549 17.6882 21.4485C17.6882 22.842 16.5619 23.9683 15.1683 23.9683C13.7747 23.9683 12.6484 22.842 12.6484 21.4485V18.9286H15.1683ZM15.1683 17.6686C13.7747 17.6686 12.6484 16.5423 12.6484 15.1488C12.6484 13.7552 13.7747 12.6289 15.1683 12.6289H21.4871C22.8806 12.6289 24.0069 13.7552 24.0069 15.1488C24.0069 16.5423 22.8806 17.6686 21.4871 17.6686H15.1683Z" fill="#ECB22E"/>
</svg>
