<svg width="24" height="24" viewBox="0 0 24 24" fill="none" xmlns="http://www.w3.org/2000/svg">
<g clip-path="url(#clip0_2511_8283)">
<path d="M12 24C18.6274 24 24 18.6274 24 12C24 5.37258 18.6274 0 12 0C5.37258 0 0 5.37258 0 12C0 18.6274 5.37258 24 12 24Z" fill="url(#paint0_linear_2511_8283)"/>
<path d="M8.125 12.8773L9.5487 16.8179C9.5487 16.8179 9.7267 17.1866 9.9173 17.1866C10.1079 17.1866 12.9428 14.2374 12.9428 14.2374L16.0953 8.14844L8.1758 11.8601L8.125 12.8773Z" fill="#C8DAEA"/>
<path d="M10.0125 13.8877L9.73916 16.7923C9.73916 16.7923 9.62476 17.6823 10.5146 16.7923C11.4044 15.9023 12.2561 15.216 12.2561 15.216" fill="#A9C6D8"/>
<path d="M8.1492 13.0183L5.2206 12.0641C5.2206 12.0641 4.8706 11.9221 4.9833 11.6001C5.0065 11.5337 5.0533 11.4772 5.1933 11.3801C5.8422 10.9278 17.2039 6.84408 17.2039 6.84408C17.2039 6.84408 17.5247 6.73598 17.7139 6.80788C17.7607 6.82237 17.8028 6.84903 17.8359 6.88514C17.8691 6.92124 17.892 6.9655 17.9024 7.01338C17.9228 7.09795 17.9314 7.18495 17.9278 7.27188C17.9269 7.34708 17.9178 7.41678 17.9109 7.52608C17.8417 8.64258 15.7709 16.9754 15.7709 16.9754C15.7709 16.9754 15.647 17.463 15.2031 17.4797C15.094 17.4832 14.9853 17.4647 14.8835 17.4253C14.7817 17.386 14.6889 17.3265 14.6106 17.2505C13.7395 16.5012 10.7287 14.4778 10.0634 14.0328C10.0484 14.0226 10.0358 14.0092 10.0263 13.9937C10.0169 13.9782 10.0109 13.9608 10.0088 13.9428C9.9995 13.8959 10.0505 13.8378 10.0505 13.8378C10.0505 13.8378 15.2931 9.17778 15.4326 8.68858C15.4434 8.65068 15.4026 8.63198 15.3478 8.64858C14.9996 8.77668 8.9634 12.5886 8.2972 13.0093C8.24924 13.0238 8.19856 13.0269 8.1492 13.0183Z" fill="white"/>
</g>
<defs>
<linearGradient id="paint0_linear_2511_8283" x1="12" y1="24" x2="12" y2="0" gradientUnits="userSpaceOnUse">
<stop stop-color="#1D93D2"/>
<stop offset="1" stop-color="#38B0E3"/>
</linearGradient>
<clipPath id="clip0_2511_8283">
<rect width="24" height="24" fill="white"/>
</clipPath>
</defs>
</svg>
