<svg width="24" height="24" viewBox="0 0 24 24" fill="none" xmlns="http://www.w3.org/2000/svg">
<path d="M7.43133 19.5017L7.76244 19.698C9.15372 20.5237 10.7488 20.9603 12.3754 20.9612H12.379C17.3745 20.9612 21.4403 16.8964 21.4422 11.9005C21.443 9.47932 20.5012 7.20296 18.79 5.49022C17.0787 3.77779 14.8035 2.83406 12.3822 2.83306C7.38292 2.83306 3.31715 6.89725 3.31527 11.8931C3.31461 13.6051 3.79351 15.2724 4.7009 16.7148L4.91657 17.0577L4.00076 20.4011L7.43133 19.5017ZM1.38281 22.991L2.92978 17.3423C1.97559 15.6891 1.47362 13.8137 1.47441 11.8926C1.47673 5.88211 6.3681 0.992188 12.3792 0.992188C15.2961 0.993445 18.0339 2.12865 20.0927 4.18916C22.1513 6.24965 23.2846 8.98856 23.2837 11.9014C23.2812 17.9116 18.3888 22.8024 12.3792 22.8024C12.3794 22.8024 12.3788 22.8024 12.3792 22.8024H12.3746C10.5496 22.8018 8.75638 22.344 7.16371 21.4754L1.38281 22.991Z" fill="white"/>
<path d="M1.85389 11.8972C1.85323 13.7517 2.33779 15.5622 3.25916 17.1583L1.76562 22.6115L7.34611 21.1483C8.88366 21.9861 10.6148 22.4284 12.3765 22.429H12.3811C18.1829 22.429 22.9052 17.7079 22.9078 11.9055C22.9089 9.09351 21.8149 6.44977 19.8272 4.46042C17.8399 2.47136 15.1969 1.37534 12.3806 1.37402C6.57853 1.37402 1.8564 6.09449 1.85389 11.8972ZM12.3811 22.429C12.381 22.429 12.3809 22.429 12.3811 22.429Z" fill="url(#paint0_linear_2511_8263)"/>
<path d="M1.47441 11.8939C1.47375 13.815 1.97572 15.6906 2.92991 17.3436L1.38281 22.992L7.16352 21.4763C8.75629 22.3449 10.5494 22.8026 12.3744 22.8034H12.379C18.3886 22.8034 23.281 17.9125 23.2835 11.9024C23.2845 8.98938 22.1511 6.25053 20.0925 4.19014C18.0336 2.12976 15.2959 0.994421 12.379 0.993164C6.36823 0.993164 1.47674 5.88309 1.47422 11.8936M4.91669 17.0588L4.7009 16.7161C3.79351 15.2735 3.31461 13.6062 3.31527 11.8944C3.31725 6.89885 7.38292 2.83434 12.3822 2.83434C14.8032 2.83529 17.0785 3.7791 18.79 5.4915C20.5013 7.20403 21.443 9.48058 21.4423 11.9015C21.4401 16.8973 17.3743 20.9622 12.3788 20.9622H12.3753C10.7487 20.9612 9.15345 20.5246 7.76225 19.6991L7.43115 19.5028L4.00063 20.4022L4.91669 17.0588ZM12.379 22.8034C12.3789 22.8034 12.3788 22.8034 12.379 22.8034Z" fill="url(#paint1_linear_2511_8263)"/>
<path fill-rule="evenodd" clip-rule="evenodd" d="M9.65923 7.33652C9.45509 6.88276 9.24031 6.87368 9.04615 6.8657C8.88725 6.85894 8.70552 6.85938 8.52399 6.85938C8.34225 6.85938 8.04707 6.92758 7.79747 7.20023C7.54764 7.4729 6.84375 8.13201 6.84375 9.4725C6.84375 10.8131 7.82023 12.1085 7.95626 12.2904C8.09254 12.4721 9.84123 15.311 12.6104 16.403C14.9121 17.3106 15.3805 17.1301 15.88 17.0846C16.3796 17.0393 17.4921 16.4258 17.7191 15.7895C17.9462 15.1534 17.9462 14.608 17.8781 14.4942C17.81 14.3806 17.6283 14.3124 17.3558 14.1763C17.0832 14.04 15.7437 13.3808 15.494 13.2898C15.2442 13.199 15.0626 13.1537 14.8808 13.4264C14.6992 13.6989 14.1774 14.3124 14.0184 14.4942C13.8595 14.6762 13.7004 14.699 13.428 14.5627C13.1554 14.426 12.2779 14.1385 11.2369 13.2104C10.4269 12.4883 9.88007 11.5964 9.72106 11.3236C9.56216 11.0511 9.70409 10.9036 9.8407 10.7677C9.96312 10.6456 10.1133 10.4496 10.2495 10.2906C10.3855 10.1314 10.4308 10.0179 10.5217 9.83615C10.6126 9.6543 10.5671 9.49518 10.499 9.35888C10.4308 9.22261 9.90151 7.8753 9.65923 7.33652Z" fill="white"/>
<defs>
<linearGradient id="paint0_linear_2511_8263" x1="12.3368" y1="22.6093" x2="12.3368" y2="1.37179" gradientUnits="userSpaceOnUse">
<stop stop-color="#20B038"/>
<stop offset="1" stop-color="#60D66A"/>
</linearGradient>
<linearGradient id="paint1_linear_2511_8263" x1="12.3333" y1="22.9927" x2="12.3333" y2="0.993825" gradientUnits="userSpaceOnUse">
<stop stop-color="#F9F9F9"/>
<stop offset="1" stop-color="white"/>
</linearGradient>
</defs>
</svg>
