<svg width="24" height="24" viewBox="0 0 24 24" fill="none" xmlns="http://www.w3.org/2000/svg">
<g clip-path="url(#clip0_2511_8344)">
<path d="M8.00086 0.03125H15.9909C16.1687 0.115473 16.8786 0.169089 17.1182 0.181585C19.3089 0.29585 21.34 1.61554 22.5948 3.42723C22.9606 3.96421 23.262 4.54239 23.4926 5.14981C23.727 5.74923 23.8386 6.2752 23.8544 6.9228C23.8605 7.17795 23.8829 7.45528 23.9205 7.707C23.9333 7.78218 23.9565 7.79086 24.0078 7.83774V16.0253L23.9964 16.0446C23.8208 16.346 23.8708 17.5558 23.762 17.9988C23.6511 18.4501 23.5757 18.6512 23.3987 19.0881C22.4747 21.3373 20.5609 23.0317 18.2162 23.6762C17.3545 23.9145 15.5858 23.8531 14.6173 23.8534L10.6143 23.8536L8.20622 23.8526C7.73971 23.8524 7.23356 23.8676 6.77236 23.8225C4.5825 23.6087 2.68244 22.3082 1.37087 20.588C1.12203 20.2616 0.902347 19.7405 0.715002 19.3704C0.556177 19.0566 0.399613 18.7762 0.325191 18.4269C0.203921 17.9929 0.17841 16.6426 0.0078125 16.3449V7.83146C0.0993223 7.70511 0.185689 6.60013 0.207706 6.38425C0.277434 5.70055 0.494865 5.05056 0.767307 4.42678C0.999809 3.89443 1.38064 3.37257 1.7509 2.93885C2.11309 2.51457 2.39966 2.09038 2.88919 1.79638C3.80271 1.06011 4.7886 0.562077 5.93166 0.304885C6.34612 0.211625 7.74172 0.15528 8.00086 0.03125Z" fill="#4993FC"/>
<path d="M5.87875 7.88616C7.13062 7.84043 8.60765 7.87752 9.87311 7.87673L11.5007 7.87657C12.0738 7.87708 12.699 7.87082 13.2614 7.97721C13.6751 8.05545 14.035 8.2279 14.3462 8.50582C14.9923 9.0828 15.1821 9.78566 15.2107 10.6294C15.2447 11.6351 15.2252 12.6642 15.2187 13.6742C15.2152 14.2139 15.2276 14.8488 15.1668 15.3792C15.152 15.5091 15.0262 15.7054 14.9367 15.8032C14.7003 16.0612 14.4358 16.0792 14.1134 16.0953C12.7071 16.1198 11.2833 16.0936 9.87524 16.0983C8.76269 16.0686 7.61996 16.1809 6.52037 15.9821C6.44427 15.9625 6.36274 15.9458 6.28978 15.9161C5.02402 15.402 4.69175 14.2979 4.70861 13.0463C4.72187 11.602 4.65498 10.1408 4.73665 8.70006C4.76961 8.11885 5.38876 7.90542 5.87875 7.88616Z" fill="#FEFEFE"/>
<path d="M18.6932 7.9698C19.3257 7.96128 19.2952 8.71807 19.2901 9.15922C19.2877 9.37025 19.2901 9.58338 19.2901 9.79448L19.2918 11.9185L19.2908 14.1584C19.2901 14.6281 19.4539 15.9865 18.7812 16.003C18.2973 16.0149 17.7165 15.3819 17.3524 15.0661C16.9915 14.7682 16.0412 14.0918 15.9077 13.6657C15.6751 12.9235 15.8219 11.6201 15.7923 10.8207C15.7762 10.3873 16.1546 9.8672 16.4944 9.63159C17.1945 9.1461 17.9029 8.2709 18.6932 7.9698Z" fill="#FEFEFE"/>
</g>
<defs>
<clipPath id="clip0_2511_8344">
<rect width="24" height="24" fill="white"/>
</clipPath>
</defs>
</svg>
