<svg width="136" height="136" viewBox="0 0 136 136" fill="none" xmlns="http://www.w3.org/2000/svg">
<g filter="url(#filter0_d_932_13653)">
<path d="M83.1835 95.8744C83.3966 95.8191 83.6228 95.8464 83.8186 95.9509C84.0143 96.0553 84.1657 96.2293 84.2429 96.4396C84.3635 96.7559 84.4658 97.0795 84.5483 97.4079C85.1432 99.7501 84.7997 102.229 83.5931 104.298C82.3864 106.368 80.415 107.858 78.1136 108.443C75.8125 109.027 73.3694 108.658 71.3216 107.415C69.2737 106.172 67.788 104.158 67.1931 101.816C67.1089 101.488 67.0444 101.155 66.9994 100.819C66.9686 100.598 67.0196 100.373 67.1415 100.189C67.2635 100.004 67.4487 99.8712 67.6617 99.8167L83.1835 95.8744ZM56.5799 23.6631C57.9606 23.3125 59.4264 23.5348 60.6551 24.2805C61.8838 25.0262 62.7745 26.2343 63.1315 27.6395L64.1507 31.6527C66.9085 31.4627 69.6793 31.7839 72.329 32.5962C68.0664 36.8497 66.0915 43.1775 67.6814 49.4373C70.0794 58.879 79.6776 64.589 89.1193 62.1911C90.9913 61.7156 92.7159 60.9556 94.2604 59.9715C96.6121 68.6194 100.849 76.6384 106.661 83.4298L106.66 83.427C106.861 83.6621 107.001 83.9452 107.064 84.2492C107.128 84.5535 107.115 84.869 107.025 85.165C106.935 85.4611 106.772 85.7285 106.551 85.9413C106.33 86.1541 106.058 86.305 105.762 86.3806L43.2856 102.249C42.9901 102.323 42.6803 102.32 42.3853 102.238C42.09 102.157 41.8188 102 41.5987 101.783C41.3785 101.567 41.2158 101.297 41.1265 100.999C41.0372 100.702 41.0244 100.387 41.0885 100.084C43.0198 91.0392 42.8428 81.6435 40.5707 72.6446L39.8815 69.9309C38.5633 65.0672 38.3388 59.9735 39.225 55.0285C40.1112 50.0835 42.085 45.4144 44.9999 41.3681C47.3286 38.3583 50.3261 35.952 53.75 34.3437L52.7189 30.2841C52.3621 28.879 52.5685 27.3921 53.2922 26.1505C54.0162 24.9088 55.1991 24.0138 56.5799 23.6631Z" fill="url(#paint0_linear_932_13653)"/>
<circle cx="84.7583" cy="45.0986" r="13.2291" transform="rotate(-14.2509 84.7583 45.0986)" fill="url(#paint1_linear_932_13653)"/>
</g>
<circle cx="84.7788" cy="45.3125" r="13.0589" transform="rotate(-15 84.7788 45.3125)" fill="url(#paint2_linear_932_13653)" stroke="url(#paint3_linear_932_13653)" stroke-width="1.74118"/>
<path d="M86.1123 42.1766C85.9228 41.4695 85.5201 40.9879 84.9042 40.7319C84.2978 40.4593 83.5691 40.4371 82.7179 40.6651C81.6965 40.9388 80.7662 41.4477 79.927 42.1919L79.4639 40.4634C80.2839 39.7524 81.2963 39.2356 82.501 38.9128C83.8759 38.5443 85.0623 38.5984 86.0601 39.0749C87.0676 39.5347 87.7221 40.3277 88.0239 41.4539C88.2379 42.2527 88.1816 43.0116 87.855 43.7307C87.538 44.4332 87.0348 45.0171 86.3455 45.4825C87.2205 45.5007 88.0059 45.7604 88.7016 46.2617C89.4104 46.7595 89.8859 47.4601 90.128 48.3637C90.4368 49.516 90.2424 50.5716 89.5449 51.5304C88.8606 52.4856 87.8178 53.151 86.4167 53.5264C85.1203 53.8738 83.8913 53.9224 82.7295 53.6723L82.2664 51.9438C83.5137 52.1991 84.707 52.1741 85.8462 51.8688C86.7105 51.6372 87.3531 51.2335 87.7742 50.6575C88.1918 50.0684 88.3059 49.4203 88.1164 48.7132C87.8883 47.862 87.3838 47.2885 86.6027 46.9925C85.8348 46.693 84.8681 46.6994 83.7027 47.0117L83.2902 47.1222L82.8902 45.6294L83.4598 45.4768C84.4026 45.2242 85.1287 44.791 85.6379 44.1774C86.1472 43.5637 86.3053 42.8968 86.1123 42.1766Z" fill="black"/>
<defs>
<filter id="filter0_d_932_13653" x="29.4092" y="21.1785" width="86.9785" height="103.785" filterUnits="userSpaceOnUse" color-interpolation-filters="sRGB">
<feFlood flood-opacity="0" result="BackgroundImageFix"/>
<feColorMatrix in="SourceAlpha" type="matrix" values="0 0 0 0 0 0 0 0 0 0 0 0 0 0 0 0 0 0 127 0" result="hardAlpha"/>
<feOffset dy="6.96458"/>
<feGaussianBlur stdDeviation="4.64305"/>
<feComposite in2="hardAlpha" operator="out"/>
<feColorMatrix type="matrix" values="0 0 0 0 0 0 0 0 0 0 0 0 0 0 0 0 0 0 0.25 0"/>
<feBlend mode="normal" in2="BackgroundImageFix" result="effect1_dropShadow_932_13653"/>
<feBlend mode="normal" in="SourceGraphic" in2="effect1_dropShadow_932_13653" result="shape"/>
</filter>
<linearGradient id="paint0_linear_932_13653" x1="56.5803" y1="23.663" x2="78.1131" y2="108.443" gradientUnits="userSpaceOnUse">
<stop stop-color="white"/>
<stop offset="1" stop-color="white" stop-opacity="0.6"/>
</linearGradient>
<linearGradient id="paint1_linear_932_13653" x1="87.7626" y1="24.4127" x2="64.1218" y2="42.4513" gradientUnits="userSpaceOnUse">
<stop stop-color="#FFDF66"/>
<stop offset="1" stop-color="#FFB433"/>
</linearGradient>
<linearGradient id="paint2_linear_932_13653" x1="87.9422" y1="23.5314" x2="63.0498" y2="42.5251" gradientUnits="userSpaceOnUse">
<stop stop-color="#FFDF66"/>
<stop offset="1" stop-color="#FFB433"/>
</linearGradient>
<linearGradient id="paint3_linear_932_13653" x1="90.512" y1="26.9511" x2="82.2795" y2="47.176" gradientUnits="userSpaceOnUse">
<stop stop-color="white" stop-opacity="0.5"/>
<stop offset="1" stop-color="white" stop-opacity="0"/>
</linearGradient>
</defs>
</svg>
