<svg width="129" height="129" viewBox="0 0 129 129" fill="none" xmlns="http://www.w3.org/2000/svg">
<g clip-path="url(#clip0_932_13685)">
<path d="M101.522 58.0532C97.5586 77.0137 78.7231 91.434 56.1031 91.434C55.5484 91.434 55.0101 91.347 54.4609 91.3307C60.0887 94.7944 67.288 96.8715 75.1343 96.8715C77.9074 96.8715 80.5881 96.5833 83.1601 96.0939L97.9718 107.203C98.4503 107.562 99.0213 107.746 99.6031 107.746C100.016 107.746 100.435 107.649 100.821 107.458C101.74 106.996 102.322 106.055 102.322 105.028L102.322 85.9149C105.753 82.0434 107.759 77.3998 107.759 72.4027C107.759 67.0359 105.427 62.0878 101.522 58.0532Z" fill="url(#paint0_linear_932_13685)"/>
<path d="M56.1016 20.7563C36.5809 20.7563 20.7578 34.1434 20.7578 50.6626C20.7578 56.5079 22.7697 61.9399 26.1953 66.5509L26.1953 83.2876C26.1953 84.3152 26.7771 85.2559 27.6961 85.7181C28.0767 85.9084 28.4954 86.0063 28.9141 86.0063C29.4904 86.0063 30.0668 85.8214 30.5453 85.4626L40.9581 77.6543C45.5528 79.5031 50.6749 80.5688 56.1016 80.5688C75.6222 80.5688 91.4453 67.1817 91.4453 50.6626C91.4453 34.1434 75.6222 20.7563 56.1016 20.7563Z" fill="url(#paint1_linear_932_13685)"/>
</g>
<defs>
<linearGradient id="paint0_linear_932_13685" x1="81.1101" y1="58.0532" x2="81.1101" y2="107.746" gradientUnits="userSpaceOnUse">
<stop stop-color="white"/>
<stop offset="1" stop-color="white" stop-opacity="0.6"/>
</linearGradient>
<linearGradient id="paint1_linear_932_13685" x1="56.1016" y1="20.7563" x2="56.1016" y2="86.0063" gradientUnits="userSpaceOnUse">
<stop stop-color="white"/>
<stop offset="1" stop-color="white" stop-opacity="0.6"/>
</linearGradient>
<clipPath id="clip0_932_13685">
<rect width="87" height="87" fill="white" transform="translate(20.7578 20.7563)"/>
</clipPath>
</defs>
</svg>
