<svg width="20" height="20" viewBox="0 0 20 20" fill="none" xmlns="http://www.w3.org/2000/svg">
<g clip-path="url(#clip0_2159_1231)">
<path d="M2.63654 18.9996C3.54037 18.9996 4.27308 18.2669 4.27308 17.3631C4.27308 16.4593 3.54037 15.7266 2.63654 15.7266C1.7327 15.7266 1 16.4593 1 17.3631C1 18.2669 1.7327 18.9996 2.63654 18.9996Z" stroke="white" stroke-width="1.5" stroke-miterlimit="10" stroke-linecap="square"/>
<path d="M10.0037 18.9996C10.9076 18.9996 11.6403 18.2669 11.6403 17.3631C11.6403 16.4593 10.9076 15.7266 10.0037 15.7266C9.09989 15.7266 8.36719 16.4593 8.36719 17.3631C8.36719 18.2669 9.09989 18.9996 10.0037 18.9996Z" stroke="white" stroke-width="1.5" stroke-miterlimit="10" stroke-linecap="square"/>
<path d="M17.3631 18.9996C18.2669 18.9996 18.9996 18.2669 18.9996 17.3631C18.9996 16.4593 18.2669 15.7266 17.3631 15.7266C16.4593 15.7266 15.7266 16.4593 15.7266 17.3631C15.7266 18.2669 16.4593 18.9996 17.3631 18.9996Z" stroke="white" stroke-width="1.5" stroke-miterlimit="10" stroke-linecap="square"/>
<path d="M10 15.7281V11.6367" stroke="white" stroke-width="1.5" stroke-miterlimit="10"/>
<path d="M16.2098 16.2076L14.0938 14.0915V11.6367" stroke="white" stroke-width="1.5" stroke-miterlimit="10"/>
<path d="M3.79688 16.2076L5.91292 14.0915V11.6367" stroke="white" stroke-width="1.5" stroke-miterlimit="10"/>
<path d="M15.3197 4.27227C15.0939 4.27399 14.8687 4.29673 14.6471 4.34018C14.3201 3.36697 13.6957 2.52102 12.862 1.92171C12.0284 1.3224 11.0277 1 10.001 1C8.97427 1 7.97349 1.3224 7.13987 1.92171C6.30624 2.52102 5.68186 3.36697 5.35483 4.34018C5.13321 4.29673 4.90804 4.27399 4.68221 4.27227C3.70563 4.27227 2.76904 4.66021 2.07849 5.35076C1.38795 6.04131 1 6.9779 1 7.95448C1 8.93106 1.38795 9.86765 2.07849 10.5582C2.76904 11.2487 3.70563 11.6367 4.68221 11.6367H15.3197C16.2963 11.6367 17.2329 11.2487 17.9234 10.5582C18.614 9.86765 19.0019 8.93106 19.0019 7.95448C19.0019 6.9779 18.614 6.04131 17.9234 5.35076C17.2329 4.66021 16.2963 4.27227 15.3197 4.27227Z" stroke="white" stroke-width="1.5" stroke-miterlimit="10" stroke-linecap="square"/>
</g>
<defs>
<clipPath id="clip0_2159_1231">
<rect width="20" height="20" fill="white"/>
</clipPath>
</defs>
</svg>
