<svg width="20" height="20" viewBox="0 0 20 20" fill="none" xmlns="http://www.w3.org/2000/svg">
<path d="M15.2188 8.29011C16.8659 8.29011 18.2012 6.95482 18.2012 5.30765C18.2012 3.66049 16.8659 2.3252 15.2188 2.3252C13.5716 2.3252 12.2363 3.66049 12.2363 5.30765C12.2363 6.95482 13.5716 8.29011 15.2188 8.29011Z" stroke="white" stroke-width="1.5" stroke-linecap="round" stroke-linejoin="round"/>
<path d="M15.2199 11.2713V16.4906C15.2199 17.0839 14.9842 17.6528 14.5647 18.0723C14.1452 18.4918 13.5763 18.7274 12.983 18.7274H4.03567C3.44242 18.7274 2.87347 18.4918 2.45398 18.0723C2.03449 17.6528 1.79883 17.0839 1.79883 16.4906V7.54324C1.79883 6.94999 2.03449 6.38104 2.45398 5.96155C2.87347 5.54206 3.44242 5.3064 4.03567 5.3064H9.25497" stroke="white" stroke-width="1.5" stroke-linecap="round" stroke-linejoin="round"/>
</svg>
