<svg width="20" height="20" viewBox="0 0 20 20" fill="none" xmlns="http://www.w3.org/2000/svg">
<g clip-path="url(#clip0_2159_1585)">
<path d="M3.33594 19.166C4.71665 19.166 5.83594 18.0467 5.83594 16.666C5.83594 15.2853 4.71665 14.166 3.33594 14.166C1.95523 14.166 0.835938 15.2853 0.835938 16.666C0.835938 18.0467 1.95523 19.166 3.33594 19.166Z" stroke="white" stroke-width="1.5" stroke-linecap="round" stroke-linejoin="round"/>
<path d="M16.6719 5.83398C18.0526 5.83398 19.1719 4.7147 19.1719 3.33398C19.1719 1.95327 18.0526 0.833984 16.6719 0.833984C15.2912 0.833984 14.1719 1.95327 14.1719 3.33398C14.1719 4.7147 15.2912 5.83398 16.6719 5.83398Z" stroke="white" stroke-width="1.5" stroke-linecap="round" stroke-linejoin="round"/>
<path d="M3.33594 10.8333V5.83333C3.33594 4.94928 3.68713 4.10143 4.31225 3.47631C4.93737 2.85119 5.78522 2.5 6.66927 2.5C7.55333 2.5 8.40117 2.85119 9.02629 3.47631C9.65141 4.10143 10.0026 4.94928 10.0026 5.83333V14.1667C10.0026 15.0507 10.3538 15.8986 10.9789 16.5237C11.604 17.1488 12.4519 17.5 13.3359 17.5C14.22 17.5 15.0678 17.1488 15.693 16.5237C16.3181 15.8986 16.6693 15.0507 16.6693 14.1667V9.16667" stroke="white" stroke-width="1.5" stroke-linecap="round" stroke-linejoin="round"/>
</g>
<defs>
<clipPath id="clip0_2159_1585">
<rect width="20" height="20" fill="white"/>
</clipPath>
</defs>
</svg>
