<svg width="24" height="24" viewBox="0 0 24 24" fill="none" xmlns="http://www.w3.org/2000/svg">
<path d="M2.48878 10.1139C1.51568 6.85683 2.00176 3.74143 6.13409 2.56243C7.18205 2.26341 8.77948 2.04735 9.86385 2.03046C13.8221 1.96871 22.0189 2.01751 22.2062 2.03234C22.3092 2.04059 21.9129 3.60459 21.2189 4.63886C20.0835 6.3305 18.466 7.12434 16.4226 7.22757C13.9064 7.3548 11.3831 7.37848 8.8628 7.37961C6.36758 7.38092 4.22664 8.12949 2.58199 10.0819C2.56942 10.0969 2.54478 10.1018 2.52024 10.1066C2.50939 10.1088 2.49853 10.1109 2.48878 10.1139Z" fill="#5F37F5"/>
<path d="M8.25816 9.33594L14.9333 9.34813V13.8292H8.25816V22.0003C4.79676 21.9701 2 19.1469 2 15.6681C2 12.1892 4.79676 9.36618 8.25816 9.33594Z" fill="#5F37F5"/>
</svg>
