<svg width="24" height="24" viewBox="0 0 24 24" fill="none" xmlns="http://www.w3.org/2000/svg">
<path d="M12.1459 22C12.0633 22.0002 11.9824 21.9771 11.9123 21.9333C11.8423 21.8896 11.7858 21.827 11.7495 21.7527C11.7143 21.6827 11.6994 21.6043 11.7064 21.5262C11.7134 21.4482 11.7421 21.3736 11.7891 21.3111L16.475 14.8417L8.27043 18.2023C8.21482 18.2265 8.1549 18.2393 8.09426 18.2398C7.99934 18.2393 7.90711 18.2081 7.83131 18.1508C7.75552 18.0935 7.70021 18.0132 7.67364 17.9218C7.64645 17.8326 7.64941 17.7368 7.68206 17.6494C7.7147 17.5619 7.77521 17.4878 7.85419 17.4383L15.0701 13.1658L2.36464 12.4328C2.26252 12.4149 2.16997 12.3615 2.10327 12.2819C2.03657 12.2024 2 12.1018 2 11.9978C2 11.8939 2.03657 11.7932 2.10327 11.7137C2.16997 11.6341 2.26252 11.5807 2.36464 11.5628L15.0768 10.8319L7.85864 6.55955C7.77964 6.51013 7.71913 6.43594 7.68648 6.3485C7.65384 6.26106 7.65089 6.16526 7.67809 6.07597C7.70455 5.98496 7.75952 5.90491 7.83486 5.84765C7.9102 5.79039 8.00192 5.75895 8.09645 5.758C8.15739 5.75777 8.21754 5.77132 8.27262 5.79772L16.4794 9.1627L11.7935 2.69556C11.7464 2.633 11.7178 2.55846 11.7108 2.4804C11.7038 2.40234 11.7187 2.32387 11.7539 2.25389C11.7891 2.17866 11.8448 2.11493 11.9145 2.07002C11.9843 2.0251 12.0652 2.00083 12.1481 2C12.2637 2.00078 12.3742 2.04857 12.4541 2.13247L21.7928 11.4945C21.9255 11.6278 22 11.8084 22 11.9968C22 12.1851 21.9255 12.3658 21.7928 12.4991L12.4498 21.872C12.4101 21.9125 12.3629 21.9448 12.3107 21.9667C12.2585 21.9887 12.2025 22 12.1459 22Z" fill="white"/>
</svg>
