<svg width="24" height="24" viewBox="0 0 24 24" fill="none" xmlns="http://www.w3.org/2000/svg">
<path d="M5.223 13.258C5.04612 13.6118 4.54125 13.6118 4.36436 13.258L3.9413 12.4119C3.87373 12.2767 3.87373 12.1177 3.9413 11.9825L4.36436 11.1364C4.54125 10.7826 5.04612 10.7826 5.223 11.1364L5.64607 11.9825C5.71361 12.1177 5.71361 12.2767 5.64607 12.4119L5.223 13.258ZM5.223 18.0566C5.04612 18.4103 4.54125 18.4103 4.36436 18.0566L3.9413 17.2104C3.87373 17.0753 3.87373 16.9162 3.9413 16.7811L4.36436 15.935C4.54125 15.5812 5.04612 15.5812 5.223 15.935L5.64607 16.7811C5.71361 16.9162 5.71361 17.0753 5.64607 17.2104L5.223 18.0566Z" fill="#1D4AFF"/>
<path d="M0 16.2343C0 15.8067 0.517027 15.5925 0.819413 15.8949L3.01944 18.095C3.32182 18.3974 3.10766 18.9144 2.68003 18.9144H0.48C0.214903 18.9144 0 18.6995 0 18.4344V16.2343ZM0 13.917C0 14.0443 0.0505714 14.1664 0.140589 14.2564L4.65797 18.7738C4.74799 18.8638 4.87008 18.9144 4.99738 18.9144H7.47859C7.90622 18.9144 8.1204 18.3974 7.818 18.095L0.819413 11.0964C0.517027 10.794 0 11.0081 0 11.4358V13.917ZM0 9.11842C0 9.24572 0.0505714 9.36781 0.140589 9.45783L9.45653 18.7738C9.54653 18.8638 9.66864 18.9144 9.79594 18.9144H12.2772C12.7048 18.9144 12.919 18.3974 12.6166 18.095L0.819413 6.2978C0.517032 5.99542 0 6.20958 0 6.63721V9.11842ZM4.79856 9.11842C4.79856 9.24572 4.84915 9.36781 4.93915 9.45783L13.5763 18.095C13.8787 18.3974 14.3957 18.1832 14.3957 17.7555V15.2743C14.3957 15.147 14.3451 15.0249 14.2551 14.9349L5.61797 6.2978C5.31557 5.99542 4.79856 6.20958 4.79856 6.63721V9.11842ZM10.4165 6.2978C10.1141 5.99542 9.59712 6.20958 9.59712 6.63721V9.11842C9.59712 9.24572 9.64771 9.36781 9.73771 9.45783L13.5763 13.2964C13.8787 13.5988 14.3957 13.3846 14.3957 12.957V10.4758C14.3957 10.3485 14.3451 10.2264 14.2551 10.1364L10.4165 6.2978Z" fill="#F9BD2B"/>
<path d="M20.4156 16.2964L15.8975 11.7783C15.5951 11.4759 15.0781 11.6901 15.0781 12.1177V18.4376C15.0781 18.7027 15.293 18.9176 15.5581 18.9176H22.5568C22.8219 18.9176 23.0368 18.7027 23.0368 18.4376V17.862C23.0368 17.5969 22.821 17.3852 22.5581 17.351C21.7514 17.246 20.9968 16.8775 20.4156 16.2964ZM17.3814 17.382C16.9576 17.382 16.6136 17.0381 16.6136 16.6142C16.6136 16.1904 16.9576 15.8465 17.3814 15.8465C17.8052 15.8465 18.1492 16.1904 18.1492 16.6142C18.1492 17.0381 17.8052 17.382 17.3814 17.382Z" fill="white"/>
<path d="M0 18.4344C0 18.6995 0.214903 18.9144 0.48 18.9144H2.68003C3.10766 18.9144 3.32182 18.3974 3.01944 18.095L0.819413 15.8949C0.517027 15.5925 0 15.8067 0 16.2343V18.4344ZM4.79856 10.2769L0.819413 6.2978C0.517027 5.99542 0 6.20958 0 6.63721V9.11842C0 9.24572 0.0505714 9.36781 0.140589 9.45783L4.79856 14.1158V10.2769ZM0.819413 11.0964C0.517027 10.794 0 11.0081 0 11.4358V13.917C0 14.0443 0.0505714 14.1664 0.140589 14.2564L4.79856 18.9144V15.0755L0.819413 11.0964Z" fill="#1D4AFF"/>
<path d="M9.59543 10.4758C9.59543 10.3485 9.54489 10.2264 9.45484 10.1364L5.61628 6.2978C5.31393 5.99542 4.79688 6.20958 4.79688 6.63721V9.11842C4.79688 9.24572 4.84746 9.36781 4.93746 9.45783L9.59543 14.1158V10.4758ZM4.79688 18.9144H7.4769C7.90453 18.9144 8.11871 18.3974 7.81631 18.095L4.79688 15.0755V18.9144ZM4.79688 10.2769V13.917C4.79688 14.0443 4.84746 14.1664 4.93746 14.2564L9.59543 18.9144V15.2743C9.59543 15.147 9.54489 15.0249 9.45484 14.9349L4.79688 10.2769Z" fill="#F54E00"/>
</svg>
