<svg width="40" height="40" viewBox="0 0 40 40" fill="none" xmlns="http://www.w3.org/2000/svg">
<path d="M20 0C31.0457 0 40 8.95431 40 20C40 31.0457 31.0457 40 20 40C8.95431 40 0 31.0457 0 20C0 8.95431 8.95431 0 20 0ZM16.6221 13.2422C12.8977 13.2424 9.86736 16.2727 9.86719 19.9971C9.86719 23.7216 12.8976 26.7528 16.6221 26.7529H23.3779C27.1024 26.7528 30.1328 23.7216 30.1328 19.9971C30.1326 16.2727 27.1023 13.2424 23.3779 13.2422H16.6221ZM16.6221 14.9307C19.4152 14.9307 21.6883 17.2039 21.6885 19.9971C21.6885 22.7903 19.4153 25.0635 16.6221 25.0635C13.8289 25.0633 11.5557 22.7902 11.5557 19.9971C11.5558 17.204 13.829 14.9308 16.6221 14.9307Z" fill="url(#paint0_linear_57817_5241)"/>
<defs>
<linearGradient id="paint0_linear_57817_5241" x1="20" y1="0" x2="20" y2="40" gradientUnits="userSpaceOnUse">
<stop stop-color="white"/>
<stop offset="1" stop-color="white" stop-opacity="0.6"/>
</linearGradient>
</defs>
</svg>
