<svg width="40" height="40" viewBox="0 0 40 40" fill="none" xmlns="http://www.w3.org/2000/svg">
<path d="M20 0C31.0457 0 40 8.95431 40 20C40 31.0457 31.0457 40 20 40C8.95431 40 0 31.0457 0 20C0 8.95431 8.95431 0 20 0ZM20.2559 11.249C20.0894 11.1983 19.9106 11.1983 19.7441 11.249L10.8457 13.9189C10.6623 13.9739 10.501 14.0867 10.3867 14.2402C10.2726 14.3937 10.2109 14.5802 10.2109 14.7715C10.2111 26.8038 19.5746 30.6883 19.6689 30.7266C19.8816 30.8108 20.1184 30.8108 20.3311 30.7266C20.4254 30.6883 29.7889 26.8038 29.7891 14.7715C29.7891 14.5802 29.7274 14.3937 29.6133 14.2402C29.499 14.0867 29.3377 13.9739 29.1543 13.9189L20.2559 11.249ZM21.375 18.4473L24.4492 18.8926L22.2246 21.0625L22.7471 24.125L20 22.6787L17.25 24.125L17.7754 21.0625L15.5508 18.8945L18.625 18.4492L20 15.6611L21.375 18.4473Z" fill="url(#paint0_linear_57817_5233)"/>
<defs>
<linearGradient id="paint0_linear_57817_5233" x1="20" y1="0" x2="20" y2="40" gradientUnits="userSpaceOnUse">
<stop stop-color="white"/>
<stop offset="1" stop-color="white" stop-opacity="0.6"/>
</linearGradient>
</defs>
</svg>
