<svg width="40" height="40" viewBox="0 0 40 40" fill="none" xmlns="http://www.w3.org/2000/svg">
<path d="M20 0C31.0457 0 40 8.95431 40 20C40 31.0457 31.0457 40 20 40C8.95431 40 0 31.0457 0 20C0 8.95431 8.95431 0 20 0ZM20 12.4688C12.9365 12.4688 9.11307 19.2544 8.95312 19.5449L8.70312 20L8.95312 20.4551C9.11326 20.7459 12.9367 27.5312 20 27.5312C27.0632 27.5312 30.8867 20.7461 31.0479 20.4551L31.2979 20L31.0479 19.5449C30.8869 19.2543 27.0634 12.4688 20 12.4688ZM16.3477 15.1494C15.6909 15.9586 15.2969 16.9898 15.2969 18.1133C15.2969 20.7129 17.4043 22.8203 20.0039 22.8203C22.6035 22.8203 24.7109 20.7129 24.7109 18.1133C24.7109 16.9921 24.3185 15.9628 23.6641 15.1543C26.5522 16.4518 28.4353 18.9696 29.1152 20C28.1793 21.417 24.9713 25.6484 20 25.6484C15.0287 25.6484 11.8207 21.417 10.8857 20C11.5672 18.9682 13.4537 16.4454 16.3477 15.1494Z" fill="url(#paint0_linear_57817_5249)"/>
<defs>
<linearGradient id="paint0_linear_57817_5249" x1="20" y1="0" x2="20" y2="40" gradientUnits="userSpaceOnUse">
<stop stop-color="white"/>
<stop offset="1" stop-color="white" stop-opacity="0.6"/>
</linearGradient>
</defs>
</svg>
