<svg width="16" height="16" viewBox="0 0 15.6693 15.6667" fill="none" xmlns="http://www.w3.org/2000/svg">
<path d="M3.16927 3.16667C3.90565 3.16667 4.5026 2.56971 4.5026 1.83333C4.5026 1.09695 3.90565 0.5 3.16927 0.5C2.43289 0.5 1.83594 1.09695 1.83594 1.83333C1.83594 2.56971 2.43289 3.16667 3.16927 3.16667Z" stroke="#FFE071" stroke-linecap="square" stroke-linejoin="round"/>
<path d="M3.16667 5.16406C1.694 5.16406 0.5 6.35806 0.5 7.83073H5.83333C5.83333 6.35806 4.63933 5.16406 3.16667 5.16406Z" stroke="#FFE071" stroke-linecap="square" stroke-linejoin="round"/>
<path d="M12.4974 10.5026C13.2338 10.5026 13.8307 9.90565 13.8307 9.16927C13.8307 8.43289 13.2338 7.83594 12.4974 7.83594C11.761 7.83594 11.1641 8.43289 11.1641 9.16927C11.1641 9.90565 11.761 10.5026 12.4974 10.5026Z" stroke="#FFE071" stroke-linecap="square" stroke-linejoin="round"/>
<path d="M12.5026 12.5C11.0299 12.5 9.83594 13.694 9.83594 15.1667H15.1693C15.1693 13.694 13.9753 12.5 12.5026 12.5Z" stroke="#FFE071" stroke-linecap="square" stroke-linejoin="round"/>
<path d="M2.5 10.5V11.8333C2.5 12.2013 2.79867 12.5 3.16667 12.5H7.16667" stroke="#FFE071" stroke-linecap="square" stroke-linejoin="round"/>
<path d="M5.83594 14.5L7.83594 12.5L5.83594 10.5" stroke="#FFE071" stroke-linecap="square" stroke-linejoin="round"/>
<path d="M13.1693 5.16406V3.83073C13.1693 3.46273 12.8706 3.16406 12.5026 3.16406H7.83594H8.5026" stroke="#FFE071" stroke-linecap="square" stroke-linejoin="round"/>
<path d="M9.83594 1.16406L7.83594 3.16406L9.83594 5.16406" stroke="#FFE071" stroke-linecap="square" stroke-linejoin="round"/>
</svg>
