<svg width="640" height="374" viewBox="0 0 640 374" fill="none" xmlns="http://www.w3.org/2000/svg">
<g clip-path="url(#clip0_41654_905)">
<g opacity="0.21" filter="url(#filter0_f_41654_905)">
<ellipse cx="180.439" cy="71.5" rx="126.5" ry="142.439" transform="rotate(-90 180.439 71.5)" fill="url(#paint0_radial_41654_905)"/>
</g>
<path d="M0 12C0 5.37257 5.37258 0 12 0H628C634.627 0 640 5.37258 640 12V362C640 368.627 634.627 374 628 374H12C5.37259 374 0 368.627 0 362V12Z" fill="url(#paint1_linear_41654_905)"/>
<path d="M12 0.5H628C634.351 0.500004 639.5 5.64873 639.5 12V362C639.5 368.351 634.351 373.5 628 373.5H12C5.64873 373.5 0.5 368.351 0.5 362V12L0.514648 11.4082C0.812711 5.52795 5.52795 0.812715 11.4082 0.514648L12 0.5Z" stroke="url(#paint2_radial_41654_905)" stroke-opacity="0.2"/>
<path d="M12 0.5H628C634.351 0.500004 639.5 5.64873 639.5 12V362C639.5 368.351 634.351 373.5 628 373.5H12C5.64873 373.5 0.5 368.351 0.5 362V12L0.514648 11.4082C0.812711 5.52795 5.52795 0.812715 11.4082 0.514648L12 0.5Z" stroke="url(#paint3_radial_41654_905)" stroke-opacity="0.5"/>
<mask id="mask0_41654_905" style="mask-type:alpha" maskUnits="userSpaceOnUse" x="0" y="0" width="640" height="468">
<path d="M0 12C0 5.37258 5.37258 0 12 0H628C634.627 0 640 5.37258 640 12V456C640 462.627 634.627 468 628 468H12C5.37259 468 0 462.627 0 456V12Z" fill="url(#paint4_linear_41654_905)"/>
</mask>
<g mask="url(#mask0_41654_905)">
<g opacity="0.02" filter="url(#filter1_f_41654_905)">
<ellipse cx="394.391" cy="234.061" rx="394.391" ry="234.061" transform="matrix(-0.671602 -0.740912 -0.740912 0.671602 689.586 179.418)" fill="#952CE8"/>
</g>
<g opacity="0.12" filter="url(#filter2_f_41654_905)">
<ellipse cx="284.749" cy="117.566" rx="284.749" ry="117.566" transform="matrix(-0.671602 -0.740912 -0.740912 0.671602 426.439 136.525)" fill="#EFAEFF"/>
</g>
<g opacity="0.5" filter="url(#filter3_f_41654_905)" style="mix-blend-mode:overlay">
<ellipse cx="274.074" cy="86.8803" rx="274.074" ry="86.8803" transform="matrix(-0.671602 -0.740912 -0.740912 0.671602 375.268 139.456)" fill="#FFF5F5"/>
</g>
<g opacity="0.4" filter="url(#filter4_f_41654_905)" style="mix-blend-mode:overlay">
<ellipse cx="222.583" cy="67.6568" rx="222.583" ry="67.6568" transform="matrix(-0.671602 -0.740912 -0.740912 0.671602 306.232 12.8291)" fill="url(#paint5_linear_41654_905)"/>
</g>
<g opacity="0.25" filter="url(#filter5_f_41654_905)">
<ellipse cx="101.988" cy="36.5779" rx="101.988" ry="36.5779" transform="matrix(-0.671602 -0.740912 -0.740912 0.671602 246.664 33.2573)" fill="#FFE0FA"/>
</g>
<g opacity="0.46" filter="url(#filter6_f_41654_905)" style="mix-blend-mode:overlay">
<ellipse cx="81.9659" cy="39.0516" rx="81.9659" ry="39.0516" transform="matrix(-0.671602 -0.740912 -0.740912 0.671602 231.967 9.45898)" fill="white"/>
</g>
<g opacity="0.24" filter="url(#filter7_f_41654_905)">
<ellipse cx="48.7208" cy="23.1934" rx="48.7208" ry="23.1934" transform="matrix(-0.671602 -0.740912 -0.740912 0.671602 196.898 -0.183105)" fill="url(#paint6_linear_41654_905)"/>
</g>
<g opacity="0.2" filter="url(#filter8_f_41654_905)">
<ellipse cx="33.9176" cy="28.205" rx="33.9176" ry="28.205" transform="matrix(-0.671602 -0.740912 -0.740912 0.671602 170.355 -39.7402)" fill="url(#paint7_linear_41654_905)"/>
</g>
</g>
<mask id="mask1_41654_905" style="mask-type:alpha" maskUnits="userSpaceOnUse" x="0" y="-1" width="640" height="386">
<path d="M0 11.9995C0 5.37209 5.37258 -0.000488281 12 -0.000488281H628C634.627 -0.000488281 640 5.3721 640 11.9995V373C640 379.627 634.627 385 628 385H12C5.37259 385 0 379.627 0 373V11.9995Z" fill="url(#paint8_linear_41654_905)"/>
</mask>
<g mask="url(#mask1_41654_905)">
<g opacity="0.21" filter="url(#filter9_f_41654_905)" style="mix-blend-mode:plus-lighter">
<ellipse cx="300.01" cy="56.3174" rx="323.211" ry="70.0847" transform="rotate(23.5884 300.01 56.3174)" fill="#C6A4FF"/>
</g>
</g>
<g opacity="0.12" filter="url(#filter10_f_41654_905)" style="mix-blend-mode:plus-lighter">
<ellipse cx="224" cy="1.99951" rx="224" ry="16" fill="#E167FF"/>
</g>
<g opacity="0.17" filter="url(#filter11_f_41654_905)" style="mix-blend-mode:plus-lighter">
<ellipse cx="216" cy="-0.500488" rx="200" ry="11.5" fill="#FDE6FF"/>
</g>
<g filter="url(#filter12_f_41654_905)" style="mix-blend-mode:plus-lighter">
<path d="M28 0.999512L352 0.999486" stroke="url(#paint9_linear_41654_905)"/>
</g>
<g filter="url(#filter13_f_41654_905)" style="mix-blend-mode:plus-lighter">
<path d="M28 0.999512L352 0.999537" stroke="url(#paint10_linear_41654_905)"/>
</g>
<g filter="url(#filter14_f_41654_905)" style="mix-blend-mode:plus-lighter">
<path d="M28 -0.000488281L333 -0.000464251" stroke="url(#paint11_linear_41654_905)"/>
</g>
<g filter="url(#filter15_f_41654_905)" style="mix-blend-mode:plus-lighter">
<path d="M30 0.999512L333 0.999488" stroke="url(#paint12_linear_41654_905)"/>
</g>
</g>
<defs>
<filter id="filter0_f_41654_905" x="-230" y="-323" width="820.877" height="789" filterUnits="userSpaceOnUse" color-interpolation-filters="sRGB">
<feFlood flood-opacity="0" result="BackgroundImageFix"/>
<feBlend mode="normal" in="SourceGraphic" in2="BackgroundImageFix" result="shape"/>
<feGaussianBlur stdDeviation="134" result="effect1_foregroundBlur_41654_905"/>
</filter>
<filter id="filter1_f_41654_905" x="-141.113" y="-363.243" width="784.811" height="815.295" filterUnits="userSpaceOnUse" color-interpolation-filters="sRGB">
<feFlood flood-opacity="0" result="BackgroundImageFix"/>
<feBlend mode="normal" in="SourceGraphic" in2="BackgroundImageFix" result="shape"/>
<feGaussianBlur stdDeviation="37.8874" result="effect1_foregroundBlur_41654_905"/>
</filter>
<filter id="filter2_f_41654_905" x="-154.057" y="-312.776" width="604.303" height="634.571" filterUnits="userSpaceOnUse" color-interpolation-filters="sRGB">
<feFlood flood-opacity="0" result="BackgroundImageFix"/>
<feBlend mode="normal" in="SourceGraphic" in2="BackgroundImageFix" result="shape"/>
<feGaussianBlur stdDeviation="45.9797" result="effect1_foregroundBlur_41654_905"/>
</filter>
<filter id="filter3_f_41654_905" x="-143.999" y="-292.37" width="541.655" height="574.222" filterUnits="userSpaceOnUse" color-interpolation-filters="sRGB">
<feFlood flood-opacity="0" result="BackgroundImageFix"/>
<feBlend mode="normal" in="SourceGraphic" in2="BackgroundImageFix" result="shape"/>
<feGaussianBlur stdDeviation="37.8874" result="effect1_foregroundBlur_41654_905"/>
</filter>
<filter id="filter4_f_41654_905" x="-104.136" y="-330.792" width="421.507" height="448.291" filterUnits="userSpaceOnUse" color-interpolation-filters="sRGB">
<feFlood flood-opacity="0" result="BackgroundImageFix"/>
<feBlend mode="normal" in="SourceGraphic" in2="BackgroundImageFix" result="shape"/>
<feGaussianBlur stdDeviation="26.5212" result="effect1_foregroundBlur_41654_905"/>
</filter>
<filter id="filter5_f_41654_905" x="-42.6152" y="-217.22" width="387.365" height="398.958" filterUnits="userSpaceOnUse" color-interpolation-filters="sRGB">
<feFlood flood-opacity="0" result="BackgroundImageFix"/>
<feBlend mode="normal" in="SourceGraphic" in2="BackgroundImageFix" result="shape"/>
<feGaussianBlur stdDeviation="60" result="effect1_foregroundBlur_41654_905"/>
</filter>
<filter id="filter6_f_41654_905" x="22.2832" y="-154.711" width="251.402" height="259.335" filterUnits="userSpaceOnUse" color-interpolation-filters="sRGB">
<feFlood flood-opacity="0" result="BackgroundImageFix"/>
<feBlend mode="normal" in="SourceGraphic" in2="BackgroundImageFix" result="shape"/>
<feGaussianBlur stdDeviation="31.75" result="effect1_foregroundBlur_41654_905"/>
</filter>
<filter id="filter7_f_41654_905" x="84.4417" y="-85.615" width="125.103" height="129.822" filterUnits="userSpaceOnUse" color-interpolation-filters="sRGB">
<feFlood flood-opacity="0" result="BackgroundImageFix"/>
<feBlend mode="normal" in="SourceGraphic" in2="BackgroundImageFix" result="shape"/>
<feGaussianBlur stdDeviation="12.7928" result="effect1_foregroundBlur_41654_905"/>
</filter>
<filter id="filter8_f_41654_905" x="76.4656" y="-96.6989" width="100.426" height="101.543" filterUnits="userSpaceOnUse" color-interpolation-filters="sRGB">
<feFlood flood-opacity="0" result="BackgroundImageFix"/>
<feBlend mode="normal" in="SourceGraphic" in2="BackgroundImageFix" result="shape"/>
<feGaussianBlur stdDeviation="9.65" result="effect1_foregroundBlur_41654_905"/>
</filter>
<filter id="filter9_f_41654_905" x="-197.539" y="-288.122" width="995.1" height="688.878" filterUnits="userSpaceOnUse" color-interpolation-filters="sRGB">
<feFlood flood-opacity="0" result="BackgroundImageFix"/>
<feBlend mode="normal" in="SourceGraphic" in2="BackgroundImageFix" result="shape"/>
<feGaussianBlur stdDeviation="100" result="effect1_foregroundBlur_41654_905"/>
</filter>
<filter id="filter10_f_41654_905" x="-100" y="-114" width="648" height="232" filterUnits="userSpaceOnUse" color-interpolation-filters="sRGB">
<feFlood flood-opacity="0" result="BackgroundImageFix"/>
<feBlend mode="normal" in="SourceGraphic" in2="BackgroundImageFix" result="shape"/>
<feGaussianBlur stdDeviation="50" result="effect1_foregroundBlur_41654_905"/>
</filter>
<filter id="filter11_f_41654_905" x="-40.7" y="-68.7005" width="513.4" height="136.4" filterUnits="userSpaceOnUse" color-interpolation-filters="sRGB">
<feFlood flood-opacity="0" result="BackgroundImageFix"/>
<feBlend mode="normal" in="SourceGraphic" in2="BackgroundImageFix" result="shape"/>
<feGaussianBlur stdDeviation="28.35" result="effect1_foregroundBlur_41654_905"/>
</filter>
<filter id="filter12_f_41654_905" x="18" y="-9.50049" width="344" height="21" filterUnits="userSpaceOnUse" color-interpolation-filters="sRGB">
<feFlood flood-opacity="0" result="BackgroundImageFix"/>
<feBlend mode="normal" in="SourceGraphic" in2="BackgroundImageFix" result="shape"/>
<feGaussianBlur stdDeviation="5" result="effect1_foregroundBlur_41654_905"/>
</filter>
<filter id="filter13_f_41654_905" x="18" y="-9.50049" width="344" height="21" filterUnits="userSpaceOnUse" color-interpolation-filters="sRGB">
<feFlood flood-opacity="0" result="BackgroundImageFix"/>
<feBlend mode="normal" in="SourceGraphic" in2="BackgroundImageFix" result="shape"/>
<feGaussianBlur stdDeviation="5" result="effect1_foregroundBlur_41654_905"/>
</filter>
<filter id="filter14_f_41654_905" x="23" y="-5.50049" width="315" height="11" filterUnits="userSpaceOnUse" color-interpolation-filters="sRGB">
<feFlood flood-opacity="0" result="BackgroundImageFix"/>
<feBlend mode="normal" in="SourceGraphic" in2="BackgroundImageFix" result="shape"/>
<feGaussianBlur stdDeviation="2.5" result="effect1_foregroundBlur_41654_905"/>
</filter>
<filter id="filter15_f_41654_905" x="27" y="-2.50049" width="309" height="7" filterUnits="userSpaceOnUse" color-interpolation-filters="sRGB">
<feFlood flood-opacity="0" result="BackgroundImageFix"/>
<feBlend mode="normal" in="SourceGraphic" in2="BackgroundImageFix" result="shape"/>
<feGaussianBlur stdDeviation="1.5" result="effect1_foregroundBlur_41654_905"/>
</filter>
<radialGradient id="paint0_radial_41654_905" cx="0" cy="0" r="1" gradientTransform="matrix(-165.999 27.8329 -24.7184 -370.576 241.882 104.654)" gradientUnits="userSpaceOnUse">
<stop offset="0.271982" stop-color="#FFB7E2"/>
<stop offset="0.804985" stop-color="#FF96FB"/>
<stop offset="1" stop-color="#F047FF"/>
</radialGradient>
<linearGradient id="paint1_linear_41654_905" x1="320" y1="0" x2="320" y2="573.5" gradientUnits="userSpaceOnUse">
<stop stop-color="#0F1015"/>
<stop offset="1" stop-color="#0F1015" stop-opacity="0"/>
</linearGradient>
<radialGradient id="paint2_radial_41654_905" cx="0" cy="0" r="1" gradientTransform="matrix(-185.298 213.288 -829.97 -407.791 216.838 -48.9916)" gradientUnits="userSpaceOnUse">
<stop stop-color="#E6CCFF"/>
<stop offset="1" stop-color="#AA99FF" stop-opacity="0"/>
</radialGradient>
<radialGradient id="paint3_radial_41654_905" cx="0" cy="0" r="1" gradientTransform="matrix(68.9938 145.179 -235.294 73.3845 220.78 22.7017)" gradientUnits="userSpaceOnUse">
<stop stop-color="#E6CCFF"/>
<stop offset="1" stop-color="#AA99FF" stop-opacity="0"/>
</radialGradient>
<linearGradient id="paint4_linear_41654_905" x1="320" y1="0" x2="320" y2="447.474" gradientUnits="userSpaceOnUse">
<stop offset="0.460278" stop-color="#24222B"/>
<stop offset="0.937339" stop-color="#24222B" stop-opacity="0"/>
</linearGradient>
<linearGradient id="paint5_linear_41654_905" x1="201.676" y1="71.6853" x2="-0.0186311" y2="70.2182" gradientUnits="userSpaceOnUse">
<stop stop-color="#E0AEFF"/>
<stop offset="1" stop-color="#6F6899"/>
</linearGradient>
<linearGradient id="paint6_linear_41654_905" x1="97.4417" y1="23.1934" x2="0" y2="23.1934" gradientUnits="userSpaceOnUse">
<stop stop-color="#FFC2EA"/>
<stop offset="1" stop-color="#FFC2EA" stop-opacity="0"/>
</linearGradient>
<linearGradient id="paint7_linear_41654_905" x1="44.4603" y1="26.4496" x2="-0.0127462" y2="27.7784" gradientUnits="userSpaceOnUse">
<stop stop-color="#FFD6EA"/>
<stop offset="1" stop-color="#FFD6EA" stop-opacity="0"/>
</linearGradient>
<linearGradient id="paint8_linear_41654_905" x1="166.667" y1="-0.000480655" x2="334.281" y2="378.678" gradientUnits="userSpaceOnUse">
<stop stop-color="#16222E"/>
<stop offset="0.317245" stop-color="#080C1A"/>
<stop offset="0.939287" stop-color="#05050B"/>
</linearGradient>
<linearGradient id="paint9_linear_41654_905" x1="28" y1="1.49951" x2="352" y2="1.49948" gradientUnits="userSpaceOnUse">
<stop stop-color="#FEBAFF" stop-opacity="0"/>
<stop offset="0.488841" stop-color="#FEBAFF"/>
<stop offset="1" stop-color="#FFBAFC" stop-opacity="0"/>
</linearGradient>
<linearGradient id="paint10_linear_41654_905" x1="28" y1="1.49951" x2="352" y2="1.49954" gradientUnits="userSpaceOnUse">
<stop stop-color="#F5BAFF" stop-opacity="0"/>
<stop offset="0.488841" stop-color="#FEBAFF"/>
<stop offset="1" stop-color="#F9BAFF" stop-opacity="0"/>
</linearGradient>
<linearGradient id="paint11_linear_41654_905" x1="28" y1="0.499512" x2="333" y2="0.499541" gradientUnits="userSpaceOnUse">
<stop stop-color="white" stop-opacity="0"/>
<stop offset="0.488841" stop-color="white"/>
<stop offset="1" stop-color="white" stop-opacity="0"/>
</linearGradient>
<linearGradient id="paint12_linear_41654_905" x1="30" y1="1.49951" x2="333" y2="1.49948" gradientUnits="userSpaceOnUse">
<stop stop-color="white" stop-opacity="0"/>
<stop offset="0.488841" stop-color="white"/>
<stop offset="1" stop-color="white" stop-opacity="0"/>
</linearGradient>
<clipPath id="clip0_41654_905">
<rect width="640" height="374" fill="white"/>
</clipPath>
</defs>
</svg>
