<svg width="24" height="24" viewBox="0 0 24 24" fill="none" xmlns="http://www.w3.org/2000/svg">
<path fill-rule="evenodd" clip-rule="evenodd" d="M7.19236 5.26953L3.10156 11.6538L7.19236 18.038L10.4602 17.2168L10.6218 6.13152L7.19236 5.26953Z" fill="#876929"/>
<path fill-rule="evenodd" clip-rule="evenodd" d="M11.7559 16.8902L7.1875 18.0378V5.26953L11.7559 6.41712V16.8902Z" fill="#D9A741"/>
<path fill-rule="evenodd" clip-rule="evenodd" d="M11.219 7.45855L11.7628 21.8833L20.3975 17.6505L20.395 6.875L18.1927 7.23274L11.2188 7.45831L11.219 7.45855Z" fill="#876929"/>
<path fill-rule="evenodd" clip-rule="evenodd" d="M14.5149 10.3108L17.2094 10.1547L19.8722 5.42007L13.1383 2.12109L10.625 3.19926L14.5149 10.3108Z" fill="#876929"/>
<path fill-rule="evenodd" clip-rule="evenodd" d="M13.1328 2.12109L19.8666 5.42007L17.2038 10.1547L13.1328 2.12109Z" fill="#D9A741"/>
<path fill-rule="evenodd" clip-rule="evenodd" d="M11.7639 3.48438L17.2093 13.1698L18.1452 18.7521L11.7639 21.8806L9.17969 20.613V4.49756L11.7615 3.48438H11.7639Z" fill="#876929"/>
<path fill-rule="evenodd" clip-rule="evenodd" d="M20.3903 6.87205L20.3925 17.6478L11.7578 21.8806V3.48438L17.2032 13.1698L20.3903 6.87205Z" fill="#D9A741"/>
</svg>
