<svg width="24" height="24" viewBox="0 0 24 24" fill="none" xmlns="http://www.w3.org/2000/svg">
<path d="M11.054 13.4267C11.2145 11.8924 12.1779 10.6436 13.3018 10.6436C14.4257 10.6436 15.0323 11.8924 14.8717 13.4267C14.7112 14.9609 13.7835 16.2275 12.7309 16.2275C11.6784 16.2276 10.8221 15.2642 11.054 13.4267ZM11.9995 20.3843C9.50206 20.3879 7.13358 19.2756 5.5414 17.3515C6.9329 17.7975 8.485 17.405 9.69812 16.2098C9.82625 16.0812 9.94545 15.9442 10.0549 15.7995C10.608 16.9947 11.6783 17.6013 12.7488 17.6013C14.5684 17.6013 16.1027 15.7281 16.2811 13.4089C16.4595 11.0897 15.1572 9.25218 13.4267 9.25218C12.7988 9.24347 12.1809 9.41032 11.6427 9.73385L12.1779 6.61183C12.2313 6.36191 12.1726 6.10121 12.0174 5.89824C11.8568 5.6485 11.7141 5.54144 11.5 5.54144H9.0024C8.85473 5.54914 8.73417 5.66218 8.71697 5.80905C8.65062 6.10306 8.60292 6.40098 8.57423 6.70106C8.55641 6.8973 8.6991 6.96867 8.85966 6.96867H10.6793C10.3939 8.75265 9.823 12.2136 9.66244 13.0878C9.49414 13.9152 9.09163 14.6769 8.50282 15.2821C7.5038 16.2811 5.66627 16.5131 4.57802 15.4249C4.20336 15.0324 3.61464 14.069 3.61464 11.9996C3.61464 7.36881 7.36863 3.61477 11.9995 3.61477C16.6303 3.61477 20.3843 7.36872 20.3843 11.9995C20.3843 16.6303 16.6303 20.3843 11.9995 20.3843ZM11.9995 2.1875C6.58046 2.1875 2.1875 6.58046 2.1875 11.9995C2.1875 17.4185 6.58046 21.8115 11.9995 21.8115C17.4185 21.8115 21.8115 17.4185 21.8115 11.9995C21.8115 9.39721 20.7777 6.90148 18.9376 5.06136C17.0976 3.22124 14.6018 2.1875 11.9995 2.1875Z" fill="#7728D1"/>
</svg>
