<svg width="24" height="24" viewBox="0 0 24 24" fill="none" xmlns="http://www.w3.org/2000/svg">
<path d="M7.71579 11.8947V4.56842H12.1579C13.6526 4.56842 14.6632 5.43158 14.6632 6.75789C14.6632 8.25263 13.3789 9.38947 10.7263 10.2737C8.91579 10.8421 8.11579 11.3263 7.8 11.8947H7.71579ZM7.71579 19.2421V16.1895C7.71579 14.8421 8.85263 13.5158 10.4526 13.0105C11.8632 12.5263 13.0421 12.0421 14.0316 11.5368C15.3368 12.3158 16.1579 13.6632 16.1579 15.0737C16.1579 17.4737 13.8632 19.2421 10.7684 19.2421H7.71579ZM5 21.8105H11.0211C15.5895 21.8105 19.0211 18.9684 19.0211 15.1789C19.0211 13.1158 17.9684 11.2421 16.0947 10.0421C17.0632 9.07368 17.5053 7.97895 17.5053 6.63158C17.5053 3.85263 15.4842 2 12.4526 2H5V21.8105Z" fill="#0B996E"/>
</svg>
