<svg width="24" height="24" viewBox="0 0 24 24" fill="none" xmlns="http://www.w3.org/2000/svg">
<path d="M21.0521 13.4997V10.4997L18.2721 10.1913C18.1311 9.69384 17.9325 9.21449 17.6804 8.76301L19.4288 6.57801L17.3071 4.45634L15.1221 6.20467C14.6706 5.95258 14.1913 5.75401 13.6938 5.61301L13.3854 2.83301H10.3854L10.0771 5.61301C9.57958 5.75401 9.10023 5.95258 8.64875 6.20467L6.46375 4.45634L4.34208 6.57801L6.09042 8.76301C5.83832 9.21449 5.63975 9.69384 5.49875 10.1913L2.71875 10.4997V13.4997L5.49875 13.808C5.63975 14.3055 5.83832 14.7849 6.09042 15.2363L4.34208 17.4213L6.46375 19.5413L8.64875 17.7947C9.10023 18.0468 9.57958 18.2453 10.0771 18.3863L10.3854 21.1663H13.3854L13.6938 18.3863C14.1913 18.2453 14.6706 18.0468 15.1221 17.7947L17.3071 19.5413L19.4288 17.4213L17.6804 15.2363C17.9325 14.7849 18.1311 14.3055 18.2721 13.808L21.0521 13.4997Z" stroke="white" stroke-width="1.3" stroke-linecap="round" stroke-linejoin="round"/>
<path d="M11.8828 14.5C13.2635 14.5 14.3828 13.3807 14.3828 12C14.3828 10.6193 13.2635 9.5 11.8828 9.5C10.5021 9.5 9.38281 10.6193 9.38281 12C9.38281 13.3807 10.5021 14.5 11.8828 14.5Z" stroke="white" stroke-width="1.3" stroke-linecap="round" stroke-linejoin="round"/>
</svg>
