<svg width="24" height="24" viewBox="0 0 24 24" fill="none" xmlns="http://www.w3.org/2000/svg">
<path d="M13.9452 10.6837V13.4032C13.9452 13.717 13.6925 13.9697 13.3818 13.9697H10.6572C10.3464 13.9697 10.0938 13.717 10.0938 13.4032V10.6837C10.0938 10.3699 10.3464 10.1172 10.6572 10.1172H13.3818C13.6925 10.1172 13.9452 10.3689 13.9452 10.6837Z" fill="#FF5A00"/>
<path d="M16.689 7.30794C15.9136 6.53255 14.0714 6.03125 11.997 6.03125C9.92246 6.03125 8.08333 6.53255 7.30794 7.30794C6.5295 8.08333 6.03125 9.92551 6.03125 12C6.03125 14.0745 6.5295 15.9177 7.30794 16.6921C8.08333 17.4675 9.92246 17.9688 11.997 17.9688C14.0714 17.9688 15.9147 17.4675 16.689 16.6921C17.0762 16.3049 17.3951 15.6497 17.6172 14.8326C17.8424 14.0154 17.9657 13.0352 17.9657 12C17.9647 9.92653 17.4634 8.08333 16.689 7.30794ZM14.8754 14.8601C14.7123 15.0231 14.2212 15.5142 11.9837 15.5142C9.74313 15.5142 9.25202 15.0221 9.09205 14.8601C8.92902 14.6971 8.43791 14.2059 8.43791 11.9684C8.43791 9.7309 8.93004 9.23979 9.09205 9.07676C9.25202 8.91374 9.74313 8.42568 11.9837 8.42568C14.2212 8.42568 14.7123 8.91374 14.8754 9.07676C15.0353 9.23979 15.5264 9.7309 15.5264 11.9684C15.5264 14.2059 15.0343 14.6971 14.8754 14.8601Z" fill="#FF5A00"/>
<path d="M13.9452 10.6837V13.4032C13.9452 13.717 13.6925 13.9697 13.3818 13.9697H10.6572C10.3464 13.9697 10.0938 13.717 10.0938 13.4032V10.6837C10.0938 10.3699 10.3464 10.1172 10.6572 10.1172H13.3818C13.6925 10.1172 13.9452 10.3689 13.9452 10.6837Z" fill="#FF5A00"/>
<path d="M13.9452 10.6837V13.4032C13.9452 13.717 13.6925 13.9697 13.3818 13.9697H10.6572C10.3464 13.9697 10.0938 13.717 10.0938 13.4032V10.6837C10.0938 10.3699 10.3464 10.1172 10.6572 10.1172H13.3818C13.6925 10.1172 13.9452 10.3689 13.9452 10.6837Z" fill="#FF5A00"/>
<path d="M13.9452 10.6837V13.4032C13.9452 13.717 13.6925 13.9697 13.3818 13.9697H10.6572C10.3464 13.9697 10.0938 13.717 10.0938 13.4032V10.6837C10.0938 10.3699 10.3464 10.1172 10.6572 10.1172H13.3818C13.6925 10.1172 13.9452 10.3689 13.9452 10.6837Z" fill="#FF5A00"/>
<path d="M16.689 7.30794C15.9136 6.53255 14.0714 6.03125 11.997 6.03125C9.92246 6.03125 8.08333 6.53255 7.30794 7.30794C6.5295 8.08333 6.03125 9.92551 6.03125 12C6.03125 14.0745 6.5295 15.9177 7.30794 16.6921C8.08333 17.4675 9.92246 17.9688 11.997 17.9688C14.0714 17.9688 15.9147 17.4675 16.689 16.6921C17.0762 16.3049 17.3951 15.6497 17.6172 14.8326C17.8424 14.0154 17.9657 13.0352 17.9657 12C17.9647 9.92653 17.4634 8.08333 16.689 7.30794ZM14.8754 14.8601C14.7123 15.0231 14.2212 15.5142 11.9837 15.5142C9.74313 15.5142 9.25202 15.0221 9.09205 14.8601C8.92902 14.6971 8.43791 14.2059 8.43791 11.9684C8.43791 9.7309 8.93004 9.23979 9.09205 9.07676C9.25202 8.91374 9.74313 8.42568 11.9837 8.42568C14.2212 8.42568 14.7123 8.91374 14.8754 9.07676C15.0353 9.23979 15.5264 9.7309 15.5264 11.9684C15.5264 14.2059 15.0343 14.6971 14.8754 14.8601Z" fill="#FF5A00"/>
<path d="M11.9996 2C6.47708 2 2 6.47708 2 11.9996C2 17.4762 6.4027 21.9247 11.863 21.9991C17.4568 22.0735 22.0745 17.4538 22.0001 11.8589C21.9237 6.4027 17.4762 2 11.9996 2ZM17.733 17.7574C16.6386 18.8517 14.5 19.5028 12.0087 19.5028C9.5175 19.5028 7.37474 18.8517 6.28451 17.7574C5.1902 16.6631 4.53606 14.5244 4.53606 12.0332C4.53606 9.54195 5.1902 7.40327 6.28451 6.30896C7.37576 5.21465 9.5175 4.56051 12.0087 4.56051C14.5 4.56051 16.6397 5.21465 17.733 6.30896C18.8242 7.40327 19.4783 9.54195 19.4783 12.0332C19.4783 14.5234 18.8242 16.6631 17.733 17.7574Z" fill="#FF5A00"/>
</svg>
