<svg width="24" height="24" viewBox="0 0 24 24" fill="none" xmlns="http://www.w3.org/2000/svg">
<path d="M19.4485 6.49026C20.1949 6.44765 20.8265 6.86656 20.8578 7.66076C20.8829 8.2995 20.868 8.94837 20.868 9.5884L20.8676 13.2632L20.8667 15.4464C20.8665 15.7705 20.9174 16.2106 20.8393 16.5219C20.8161 16.6145 20.7723 16.7087 20.6818 16.7533C20.4242 16.88 18.7908 15.7819 18.3887 15.6743L18.3772 15.6714C18.3348 15.1159 18.3616 14.2269 18.3618 13.6378L18.3612 9.8569C17.883 10.108 17.3055 10.4556 16.8306 10.7271C16.0306 11.1746 15.234 11.628 14.4407 12.0872C13.7713 12.4724 13.0359 12.9358 12.3129 13.2039C11.8787 13.3649 11.3693 13.0614 10.9894 12.8509C10.5161 12.5886 10.0353 12.3025 9.5599 12.0304C8.27954 11.2889 6.99195 10.5599 5.69729 9.84368C5.68005 10.3896 5.69178 10.9786 5.69305 11.5277L5.68958 15.6692C5.10623 15.9322 4.53891 16.3861 3.95576 16.673C3.41282 16.9402 3.22673 16.7154 3.21134 16.1599C3.19812 15.6833 3.20671 15.2038 3.20723 14.7274L3.20941 11.9976L3.20715 9.27672C3.20668 8.70574 3.14361 7.77743 3.31344 7.24314C3.49867 6.66043 4.29915 6.34822 4.87153 6.56659C5.37473 6.75854 5.8495 7.09818 6.33614 7.36902L10.2096 9.56226C10.6528 9.81398 11.6293 10.4121 12.0393 10.5868C12.4642 10.4112 13.2362 9.91917 13.6714 9.67599L17.7594 7.36621C18.284 7.07157 18.8844 6.63685 19.4485 6.49026Z" fill="#20D272"/>
<path d="M6.7674 16.6211C6.93228 16.6068 6.99734 16.6211 7.14753 16.7019C7.58181 16.9355 8.01403 17.1921 8.44192 17.438L10.3758 18.534C12.058 19.5033 11.8492 19.5956 13.5625 18.6167L15.738 17.3841C16.1162 17.1679 16.4925 16.9084 16.8899 16.7328C17.0099 16.6797 17.15 16.6257 17.2837 16.6409C17.4683 16.6617 19.2525 17.6445 19.3518 17.7895C19.3886 17.8431 19.3996 17.9038 19.3799 17.9663C19.3153 18.1718 17.5567 19.1012 17.2654 19.268L14.2249 20.9951C13.6329 21.3335 12.9147 21.7769 12.2937 22.0264C11.803 22.2235 10.6333 21.4409 10.1949 21.1886L8.39278 20.1595C7.51998 19.6711 6.65095 19.176 5.7858 18.6742C5.39204 18.4467 4.26286 18.0554 5.02243 17.6459C5.59834 17.3353 6.17061 16.8908 6.7674 16.6211Z" fill="white"/>
<path d="M11.9383 2.00105C12.3086 1.98381 12.6907 2.18135 13.007 2.35956C13.7491 2.7777 14.4842 3.20884 15.2254 3.62872C15.8306 3.96478 16.4325 4.30676 17.0311 4.65458C17.278 4.79574 17.5357 4.91986 17.776 5.0722C17.8652 5.1288 17.9577 5.19595 18.0195 5.28302C18.0579 5.33717 18.0853 5.40694 18.0703 5.4739C18.0531 5.55061 17.9935 5.61032 17.9302 5.65293C17.5819 5.88755 16.5008 6.53477 16.1252 6.58696C15.2993 6.70171 13.1497 4.86934 12.1461 4.69014C11.5685 4.68901 11.0412 5.07895 10.5498 5.36254L9.28237 6.08553C7.67252 7.02204 7.75061 6.46192 6.21491 5.71391C6.02478 5.62131 5.92091 5.54782 5.9904 5.31464C6.0984 5.16508 8.28964 3.92487 8.60061 3.77511C9.4113 3.38471 11.1435 2.1656 11.9383 2.00105Z" fill="white"/>
</svg>
