<svg width="24" height="24" viewBox="0 0 24 24" fill="none" xmlns="http://www.w3.org/2000/svg">
<path d="M11.9998 10.2694C12.9559 10.2694 13.7309 11.0441 13.7309 11.9999C13.7309 12.9559 12.9559 13.7309 11.9998 13.7309C11.0441 13.7309 10.2691 12.9557 10.2691 11.9999C10.2691 11.0441 11.0441 10.2694 11.9998 10.2694ZM6.10258 11.9999C6.10258 8.74289 8.74289 6.10266 11.9998 6.10266C15.2573 6.10266 17.8973 8.74289 17.8973 11.9999C17.8973 12.2155 17.8859 12.4282 17.8633 12.6374C17.8185 13.2123 18.2404 13.6512 18.8116 13.6512C19.7811 13.6512 19.8844 12.4012 19.8844 11.9999C19.8844 7.64523 16.3545 4.11539 11.9998 4.11539C7.64523 4.11539 4.11539 7.64531 4.11539 11.9999C4.11539 16.3543 7.64523 19.8843 11.9998 19.8843C14.3124 19.8843 16.3925 18.8892 17.8348 17.3034L19.4557 18.6645C17.6248 20.7112 14.9627 22.0003 11.9998 22.0003C6.47703 22.0003 2 17.5228 2 11.9999C2 6.47703 6.47703 2 11.9998 2C17.523 2 22 6.47703 22 12C22 14.2199 20.943 16.0227 18.8198 16.0227C17.8855 16.0227 17.3175 15.5945 17.0073 15.1167C15.9659 16.7861 14.113 17.8977 11.9998 17.8977C8.74281 17.8977 6.10258 15.2569 6.10258 11.9999ZM11.9998 8.21789C9.91125 8.21789 8.21781 9.91109 8.21781 11.9999C8.21781 14.0887 9.91125 15.7821 11.9998 15.7821C14.0886 15.7821 15.7821 14.0887 15.7821 11.9999C15.7821 9.91109 14.0886 8.21789 11.9998 8.21789Z" fill="#BA272D"/>
</svg>
