<svg width="24" height="24" viewBox="0 0 24 24" fill="none" xmlns="http://www.w3.org/2000/svg">
<path d="M10.0322 14.9674C9.64221 14.939 8.9282 14.9605 8.52195 14.9606L5.09406 14.9621C4.50476 14.9628 3.90265 14.9684 3.31338 14.9576C3.19332 14.9409 3.05278 14.9531 2.9698 14.8549C2.79519 14.6482 2.84983 14.4421 2.98045 14.228C3.30172 13.7015 3.63965 13.1816 3.96674 12.657L6.46709 8.66106L8.4915 5.42499C8.85856 4.83804 9.21954 4.24671 9.59818 3.66715C10.2226 2.71148 11.1 2.84772 12.0848 2.84939L14.1518 2.85027L15.9529 2.84945C16.2529 2.84899 16.7658 2.83295 17.0421 2.8737C17.1757 2.96766 17.3544 3.18067 17.2684 3.35211C17.0103 3.86699 16.6679 4.36408 16.3604 4.85458L14.3183 8.12518C14.2261 8.27488 13.8715 8.79357 13.845 8.92025C13.7358 9.00664 12.8253 10.5122 12.6939 10.7252L11.4134 12.7681L10.5476 14.1532C10.4369 14.3297 10.1498 14.7709 10.0718 14.939L10.0322 14.9674Z" fill="#5BC3CB"/>
<path d="M13.8442 8.92118C14.2525 8.90085 14.7855 8.91486 15.2037 8.91488L17.678 8.91522L19.6029 8.91411C19.9477 8.9137 20.3049 8.90384 20.6468 8.92182C21.0062 8.94072 21.0823 9.30303 20.919 9.5774C20.7606 9.84324 20.6002 10.099 20.4358 10.3596L19.6256 11.6501C18.9281 12.7591 18.2398 13.8955 17.5328 14.996L15.2298 18.6796L14.6003 19.6856C14.1419 20.4194 13.7889 20.9949 12.818 21.0145C12.3358 21.0243 11.8507 21.0184 11.3686 21.0184L9.01934 21.0175L7.74713 21.0202C7.42398 21.0215 6.65617 21.1298 6.59726 20.7117C6.55517 20.4131 6.90224 19.9721 7.06878 19.7104C7.27496 19.3874 7.47848 19.0626 7.67928 18.7361C8.46081 17.484 9.26345 16.2269 10.0314 14.9684L10.071 14.9399C10.149 14.7718 10.4361 14.3307 10.5468 14.1541L11.4125 12.769L12.6931 10.7261C12.8245 10.5131 13.735 9.00757 13.8442 8.92118Z" fill="#4B49E1"/>
<path d="M13.8435 8.92118C14.2518 8.90085 14.7848 8.91486 15.2031 8.91488L17.6773 8.91522L19.6022 8.91411C19.947 8.9137 20.3042 8.90384 20.6461 8.92182C21.0055 8.94072 21.0816 9.30303 20.9183 9.5774C20.7599 9.84324 20.5995 10.099 20.4351 10.3596L19.6249 11.6501C18.9275 12.7591 18.2392 13.8955 17.5322 14.996C17.3395 14.9456 16.9614 14.9565 16.7497 14.9555L15.4526 14.9577L12.2617 14.9584C11.5395 14.9582 10.79 14.9672 10.0703 14.9399C10.1483 14.7718 10.4354 14.3307 10.5461 14.1541L11.4119 12.769L12.6924 10.7261C12.8238 10.5131 13.7343 9.00757 13.8435 8.92118Z" fill="#1B81C0"/>
</svg>
