<svg width="24" height="24" viewBox="0 0 24 24" fill="none" xmlns="http://www.w3.org/2000/svg">
<path d="M11.0528 2.60087C11.1034 2.59268 11.27 2.59043 11.327 2.59254C12.0318 2.61869 12.3073 2.91279 12.7608 3.35894C12.9542 3.54755 13.1457 3.73808 13.3352 3.93051C14.2361 3.50456 15.1615 3.20024 16.1637 3.17268C17.2144 3.14378 18.3451 3.58916 18.3345 4.814C18.3258 5.8287 17.6152 6.86418 16.9263 7.55907C17.4418 8.05485 17.706 8.8305 17.7717 9.53064C17.8174 10.0191 17.7951 10.5408 17.8305 11.0345C18.6574 11.2425 19.7445 11.5634 19.923 12.5294C19.9935 12.9108 19.8819 13.2958 19.6662 13.6116C19.7728 13.8326 19.8798 14.2256 19.948 14.468C20.7379 14.5718 20.673 15.6477 20.5648 16.2225C20.4001 17.1141 20.0284 17.9545 19.4797 18.6762C18.327 20.2224 16.6785 21.0109 14.8051 21.2844C13.0805 21.4654 11.5397 21.3106 9.97098 20.512C8.8026 19.9209 7.8306 19.0038 7.1726 17.8717C7.07966 17.7106 6.89054 17.3598 6.83468 17.1882C5.43843 17.1651 4.09715 15.9795 4.00298 14.5685C3.97275 14.1156 4.01753 13.6746 4.18626 13.2511C4.0055 13.1157 3.81267 12.932 3.63489 12.792C3.27342 12.5075 3.05451 12.0752 3.02814 11.6101C2.92854 9.85389 4.43153 7.72589 5.51118 6.43251C6.72786 4.97502 9.1401 2.7542 11.0528 2.60087Z" fill="white"/>
<path d="M16.1989 8.34544C17.4013 8.25319 17.0562 10.5817 17.22 11.2919C17.2389 11.3737 17.2768 11.4842 17.3511 11.5331C17.6058 11.6877 17.9683 11.7658 18.258 11.8503C19.8751 12.3223 19.3872 13.4033 18.186 14.0538C17.1547 14.6123 15.9913 14.9077 14.7944 14.9131C14.5957 14.9156 14.3971 14.9105 14.1988 14.8977C13.6507 14.8579 13.0766 14.6735 12.7375 15.2624C12.3776 15.8871 12.5956 16.6187 13.2307 16.9652C14.2505 17.5217 15.5025 17.3994 16.5921 17.1395C17.421 16.9379 18.6987 16.3424 19.1434 15.576C18.9444 15.6752 18.7033 15.8532 18.4896 15.9678C17.9878 16.2369 17.4729 16.4597 16.9242 16.631C15.9057 16.949 14.4967 17.0978 13.5021 16.6203C13.2381 16.4937 13.1054 16.2897 13.024 16.02C13.6539 16.1951 14.2626 16.3098 14.9202 16.2672C15.0708 16.2575 16.0573 16.1592 16.0336 15.968C15.9894 15.9339 15.8232 15.9602 15.7633 15.9648C14.94 16.0299 14.1499 15.9611 13.3569 15.7392L13.068 15.6456C13.2086 15.336 13.3592 15.2748 13.697 15.3192C15.3616 15.5376 17.1154 15.2687 18.5863 14.4398C18.8076 14.3152 19.0018 14.1575 19.2109 14.017C19.341 14.3176 19.4674 14.6969 19.4968 15.024C20.0752 15.0312 20.0455 15.4457 19.9653 15.8843C19.8538 16.4945 19.5943 17.0679 19.2094 17.5542C18.9865 17.8379 18.7048 18.1304 18.4231 18.3561C16.8169 19.6427 14.1507 19.992 12.4621 18.6615C11.7894 18.1376 11.3584 17.363 11.2678 16.5152C11.1483 15.483 11.4396 14.4638 12.1266 13.6942C12.1508 13.6672 12.2696 13.5036 12.2621 13.471C12.2324 13.3415 12.1311 13.2207 12.0463 13.122C11.833 12.8743 11.6014 12.631 11.4259 12.3537C11.235 12.0571 11.1136 11.7213 11.0707 11.3712C11.0054 10.7922 11.138 10.2235 11.5067 9.76324C11.6625 9.56867 11.8543 9.40595 12.0717 9.28402C12.952 8.79643 13.8436 9.35494 14.7968 9.08623C15.4336 8.90669 15.5988 8.41358 16.1989 8.34544Z" fill="black"/>
<path d="M16.2181 10.0371C16.6349 10.0476 16.7 10.7816 16.7177 11.0834C16.7245 11.1989 16.7012 11.3448 16.6849 11.4612L16.511 11.4568L16.2592 11.4617C16.0904 11.1685 15.9913 10.8568 15.9719 10.5181C15.959 10.2925 15.9752 10.1134 16.2181 10.0371Z" fill="white"/>
<path d="M13.3413 11.2562C13.7358 11.2372 14.1874 11.4307 14.3864 11.7874C14.4066 11.8236 14.4025 11.8437 14.3904 11.8789C14.2944 11.9397 14.1332 11.8552 14.035 11.8183C13.8708 11.7566 13.7141 11.6867 13.5377 11.6654L13.5198 11.6633C13.2041 11.6344 12.9153 11.736 12.6173 11.8195C12.5377 11.8419 12.4556 11.8679 12.385 11.827L12.375 11.7886C12.4 11.6507 12.5556 11.5337 12.6686 11.4638C12.8928 11.3253 13.0818 11.2734 13.3413 11.2562Z" fill="white"/>
<path d="M13.7583 12.0205C13.8978 12.0222 14.3794 12.118 14.3124 12.3173C14.2114 12.3597 13.8105 12.3147 13.6016 12.3466C13.458 12.3748 13.2643 12.4608 13.1301 12.4575C13.1137 12.4571 13.0985 12.4235 13.087 12.4053C13.0594 12.1812 13.5805 12.035 13.7583 12.0205Z" fill="white"/>
<path d="M16.4993 11.8939C16.8707 11.8543 16.9174 12.3288 16.6438 12.548C16.2748 12.5955 16.2329 12.1035 16.4993 11.8939Z" fill="white"/>
<path d="M15.5133 12.333C15.8831 12.344 16.1574 12.7433 15.7382 12.8678C15.3554 12.8497 15.1068 12.4184 15.5133 12.333Z" fill="white"/>
<path d="M11.256 3.2767C11.6809 3.23533 11.8889 3.44527 12.1644 3.7279C12.341 3.9091 12.5094 4.09171 12.6775 4.28125C12.517 4.35521 12.2597 4.51733 12.1059 4.6136C11.7198 4.85456 11.3417 5.10814 10.9722 5.37391C8.42501 7.19629 7.17325 8.81009 5.99857 11.7168C5.57102 11.7703 5.09203 12.0563 4.77788 12.3397C4.65748 12.4571 4.57607 12.5614 4.47055 12.6928C4.115 12.3186 3.72077 12.186 3.69701 11.5586C3.6383 10.0085 5.1125 7.9151 6.06703 6.78101C7.21439 5.4178 9.44408 3.42121 11.256 3.2767Z" fill="black"/>
<path d="M6.35474 12.3654C6.91407 12.3177 7.42142 12.5533 7.76204 12.9964C8.5812 14.062 8.4779 16.7063 6.61424 16.4684C6.26088 16.4534 5.82939 16.216 5.54496 16.0076C4.1624 14.9947 4.4655 12.5842 6.35474 12.3654Z" fill="black"/>
<path d="M6.30669 13.0825C6.60276 13.0546 6.84168 13.1348 7.05278 13.3425C7.40507 13.6892 7.37685 14.1079 7.18968 14.5314C7.13751 14.6494 7.0722 14.8146 7.07069 14.9462C7.07597 15.0681 7.12419 15.1411 7.2342 15.1858C7.36112 15.2374 7.52417 15.1293 7.61589 15.2229C7.63301 15.3531 7.50107 15.4573 7.38521 15.4867C7.24566 15.5227 7.09748 15.5001 6.97514 15.4239C6.81729 15.3247 6.76211 15.1993 6.72267 15.027C6.65015 14.5915 6.98868 14.2056 6.74766 13.86C6.66969 13.7479 6.54935 13.6726 6.41447 13.6514C5.81814 13.5548 5.83134 14.2034 5.60897 14.3661C5.32161 14.4246 5.40171 13.2659 6.30669 13.0825Z" fill="white"/>
<path d="M11.7625 6.59436C12.4978 6.16764 13.073 5.89222 13.9446 5.83105C13.8188 5.95243 13.6431 6.11214 13.5489 6.25117C14.0631 6.31716 14.5188 6.35854 15.0027 6.57132C15.1038 6.61579 15.254 6.66697 15.3183 6.76116L15.3108 6.78018C15.2516 6.7846 14.8672 6.70647 14.7746 6.69228C14.5311 6.65473 14.2857 6.6306 14.0396 6.61998C12.7919 6.56556 11.6454 6.84985 10.5209 7.39243C10.2974 7.50028 10.0881 7.64997 9.8724 7.76269C9.81452 7.80684 9.72414 7.88311 9.65648 7.8957L9.64844 7.87399C9.68852 7.7811 9.7758 7.70635 9.8487 7.63545C9.91775 7.53885 10.1169 7.34326 10.2046 7.25953C10.7363 6.75228 11.3667 6.252 12.0278 5.92432C11.9171 6.15931 11.824 6.34078 11.7625 6.59436Z" fill="black"/>
</svg>
