<svg width="24" height="24" viewBox="0 0 24 24" fill="none" xmlns="http://www.w3.org/2000/svg">
<path d="M14.2081 4.04912L13.0551 6.94651L14.1786 9.28216L15.4203 6.26651H18.1107V16.5256C18.1107 16.91 17.9629 17.2943 17.6673 17.5604C17.4012 17.8265 17.0168 18.0039 16.6029 18.0039C16.3073 18.0039 15.7455 17.8265 15.5386 17.4126L13.9125 13.8056L11.222 7.8926L10.069 5.46825C9.41856 4.16738 8.11769 3.69434 7.05334 3.69434C6.07769 3.69434 5.10204 4.07868 4.42204 4.78825C3.71247 5.46825 3.32812 6.41434 3.32812 7.38999L3.35769 19.8665H8.97508L10.4238 16.7326L9.3003 14.3969L7.79247 17.6196H5.54552V7.38999C5.54552 7.00564 5.72291 6.65086 5.98899 6.35521C6.25508 6.08912 6.63943 5.91173 7.05334 5.91173C7.23073 5.91173 7.91073 5.94129 8.17682 6.59173L9.44813 9.34129L9.86204 10.2578L12.5525 16.1709C13.0255 17.1761 13.5577 18.2996 13.7646 18.7726C14.2377 19.7482 15.4499 20.2509 16.6325 20.2509C17.1055 20.2509 17.6081 20.1622 18.0516 19.9848C18.4951 19.8074 18.909 19.5413 19.2638 19.1865C19.6186 18.8613 19.8846 18.4474 20.062 17.9743C20.2394 17.5013 20.3281 17.0282 20.3281 16.5552V4.04912H14.2081Z" fill="#FC5E02"/>
</svg>
