<svg width="24" height="24" viewBox="0 0 24 24" fill="none" xmlns="http://www.w3.org/2000/svg">
<path d="M15.7974 4.63862L4.32274 11.912L3.33594 10.3552V9.01369C3.33594 8.5253 3.58326 8.0701 3.99302 7.8043L10.6632 3.4761C11.6794 2.81667 12.9884 2.81654 14.0047 3.47584L15.7974 4.63862Z" fill="url(#paint0_linear_35932_48915)"/>
<path d="M13.8999 3.41211C13.9344 3.43255 13.9686 3.45389 14.0026 3.47589L19.2081 6.85257L6.30094 15.034L4.32031 11.9093L13.793 5.89336C14.6902 5.32349 14.7296 4.0416 13.8999 3.41211Z" fill="url(#paint1_linear_35932_48915)"/>
<path d="M13.8999 3.41211C13.9344 3.43255 13.9686 3.45389 14.0026 3.47589L19.2081 6.85257L6.30094 15.034L4.32031 11.9093L13.793 5.89336C14.6902 5.32349 14.7296 4.0416 13.8999 3.41211Z" fill="url(#paint2_linear_35932_48915)"/>
<path d="M11.4542 16.597L6.30469 15.0349L17.2533 8.09458C18.1754 7.51013 18.1731 6.16394 17.2489 5.58274L17.1996 5.55176L17.3416 5.64001L20.6738 7.80157C21.0836 8.06738 21.331 8.5227 21.331 9.01122V10.3095L11.4542 16.597Z" fill="url(#paint3_linear_35932_48915)"/>
<path d="M11.4542 16.597L6.30469 15.0349L17.2533 8.09458C18.1754 7.51013 18.1731 6.16394 17.2489 5.58274L17.1996 5.55176L17.3416 5.64001L20.6738 7.80157C21.0836 8.06738 21.331 8.5227 21.331 9.01122V10.3095L11.4542 16.597Z" fill="url(#paint4_linear_35932_48915)"/>
<path d="M14.0047 3.47584C12.9884 2.81654 11.6794 2.81667 10.6631 3.4761L3.99302 7.8043C3.58326 8.0701 3.33594 8.5253 3.33594 9.01369V9.07929C3.35208 9.56963 3.61007 10.0214 4.02687 10.2843L12.3205 15.513L20.6351 10.2922C21.067 10.0211 21.329 9.54698 21.329 9.03712V10.309L21.3293 9.01056C21.3293 8.52204 21.0818 8.06685 20.672 7.80091L14.0047 3.47584Z" fill="url(#paint5_radial_35932_48915)"/>
<path d="M10.8555 20.9637H18.2015C19.9268 20.9637 21.3255 19.5651 21.3255 17.8397V9.03711C21.3255 9.54698 21.0635 10.021 20.6317 10.2922L9.70491 17.1531C9.11551 17.5233 8.75781 18.1703 8.75781 18.8663C8.75794 20.0247 9.69697 20.9637 10.8555 20.9637Z" fill="url(#paint6_linear_35932_48915)"/>
<path d="M10.8555 20.9637H18.2015C19.9268 20.9637 21.3255 19.5651 21.3255 17.8397V9.03711C21.3255 9.54698 21.0635 10.021 20.6317 10.2922L9.70491 17.1531C9.11551 17.5233 8.75781 18.1703 8.75781 18.8663C8.75794 20.0247 9.69697 20.9637 10.8555 20.9637Z" fill="url(#paint7_radial_35932_48915)"/>
<path d="M10.8555 20.9637H18.2015C19.9268 20.9637 21.3255 19.5651 21.3255 17.8397V9.03711C21.3255 9.54698 21.0635 10.021 20.6317 10.2922L9.70491 17.1531C9.11551 17.5233 8.75781 18.1703 8.75781 18.8663C8.75794 20.0247 9.69697 20.9637 10.8555 20.9637Z" fill="url(#paint8_radial_35932_48915)"/>
<path d="M13.8386 20.9629H6.45215C4.72678 20.9629 3.32812 19.5642 3.32812 17.8388V9.03027C3.32812 9.53923 3.58924 10.0125 4.01971 10.2839L14.9357 17.1657C15.5333 17.5424 15.8957 18.1997 15.8957 18.9061C15.8955 20.0421 14.9746 20.9629 13.8386 20.9629Z" fill="url(#paint9_radial_35932_48915)"/>
<path d="M13.8386 20.9629H6.45215C4.72678 20.9629 3.32812 19.5642 3.32812 17.8388V9.03027C3.32812 9.53923 3.58924 10.0125 4.01971 10.2839L14.9357 17.1657C15.5333 17.5424 15.8957 18.1997 15.8957 18.9061C15.8955 20.0421 14.9746 20.9629 13.8386 20.9629Z" fill="url(#paint10_linear_35932_48915)"/>
<path d="M3.95262 11.4648H8.70113C9.59837 11.4648 10.3256 12.1921 10.3256 13.0893V17.8378C10.3256 18.7351 9.59837 19.4623 8.70113 19.4623H3.95262C3.05537 19.4623 2.32812 18.7351 2.32812 17.8378V13.0893C2.32812 12.1921 3.05537 11.4648 3.95262 11.4648Z" fill="url(#paint11_radial_35932_48915)"/>
<path d="M3.95262 11.4648H8.70113C9.59837 11.4648 10.3256 12.1921 10.3256 13.0893V17.8378C10.3256 18.7351 9.59837 19.4623 8.70113 19.4623H3.95262C3.05537 19.4623 2.32812 18.7351 2.32812 17.8378V13.0893C2.32812 12.1921 3.05537 11.4648 3.95262 11.4648Z" fill="url(#paint12_radial_35932_48915)"/>
<path d="M6.31231 17.7636C5.65093 17.7636 5.10813 17.5566 4.68365 17.143C4.25918 16.7293 4.04688 16.1894 4.04688 15.5233C4.04688 14.8199 4.2623 14.251 4.69316 13.8165C5.12414 13.3822 5.68829 13.165 6.38586 13.165C7.04502 13.165 7.58144 13.3729 7.99525 13.7887C8.41126 14.2044 8.61927 14.7527 8.61927 15.4332C8.61927 16.1325 8.40371 16.6961 7.97286 17.1243C7.54409 17.5505 6.99061 17.7636 6.31231 17.7636ZM6.33145 16.8855C6.69188 16.8855 6.98202 16.7623 7.20175 16.5162C7.42147 16.2701 7.53133 15.9276 7.53133 15.4891C7.53133 15.0319 7.42459 14.6762 7.21138 14.4217C6.99803 14.1672 6.71323 14.04 6.35709 14.04C5.99015 14.04 5.69467 14.1714 5.47078 14.434C5.24676 14.6948 5.13482 15.0402 5.13482 15.4704C5.13482 15.907 5.24676 16.2525 5.47078 16.5068C5.69467 16.7592 5.98156 16.8855 6.33145 16.8855Z" fill="white"/>
<path d="M6.31153 17.8253C5.65275 17.8253 5.11191 17.6129 4.68899 17.1879C4.26621 16.7629 4.05469 16.2083 4.05469 15.5241C4.05469 14.8016 4.26933 14.2172 4.69863 13.771C5.12792 13.3247 5.68998 13.1016 6.38482 13.1016C7.04138 13.1016 7.57585 13.3152 7.98809 13.7422C8.40254 14.1695 8.60964 14.7326 8.60964 15.4317C8.60964 16.1498 8.39499 16.7289 7.96583 17.1688C7.53862 17.6065 6.98723 17.8253 6.31153 17.8253ZM6.33054 16.9234C6.68967 16.9234 6.97877 16.7969 7.19758 16.5441C7.41652 16.2912 7.52587 15.9395 7.52587 15.489C7.52587 15.0193 7.41965 14.6539 7.20722 14.3926C6.99465 14.1312 6.71102 14.0005 6.35618 14.0005C5.99054 14.0005 5.69623 14.1354 5.47312 14.4053C5.25002 14.6729 5.13846 15.0279 5.13846 15.4698C5.13846 15.9183 5.25002 16.2731 5.47312 16.5345C5.69623 16.7938 5.98208 16.9234 6.33054 16.9234Z" fill="white"/>
<defs>
<linearGradient id="paint0_linear_35932_48915" x1="5.32907" y1="11.1476" x2="15.7974" y2="4.65461" gradientUnits="userSpaceOnUse">
<stop stop-color="#20A7FA"/>
<stop offset="0.4" stop-color="#3BD5FF"/>
<stop offset="1" stop-color="#C4B0FF"/>
</linearGradient>
<linearGradient id="paint1_linear_35932_48915" x1="8.92997" y1="13.3616" x2="14.7576" y2="4.03013" gradientUnits="userSpaceOnUse">
<stop stop-color="#165AD9"/>
<stop offset="0.5008" stop-color="#1880E5"/>
<stop offset="1" stop-color="#8587FF"/>
</linearGradient>
<linearGradient id="paint2_linear_35932_48915" x1="13.1803" y1="13.4885" x2="6.71021" y2="8.21659" gradientUnits="userSpaceOnUse">
<stop offset="0.236946" stop-color="#448AFF" stop-opacity="0"/>
<stop offset="0.792113" stop-color="#0032B1" stop-opacity="0.2"/>
</linearGradient>
<linearGradient id="paint3_linear_35932_48915" x1="12.3606" y1="15.5193" x2="22.5857" y2="8.97529" gradientUnits="userSpaceOnUse">
<stop stop-color="#1A43A6"/>
<stop offset="0.492267" stop-color="#2052CB"/>
<stop offset="1" stop-color="#5F20CB"/>
</linearGradient>
<linearGradient id="paint4_linear_35932_48915" x1="15.2471" y1="15.1282" x2="9.0337" y2="9.7516" gradientUnits="userSpaceOnUse">
<stop stop-color="#0045B9" stop-opacity="0"/>
<stop offset="0.669859" stop-color="#0D1F69" stop-opacity="0.2"/>
</linearGradient>
<radialGradient id="paint5_radial_35932_48915" cx="0" cy="0" r="1" gradientUnits="userSpaceOnUse" gradientTransform="translate(12.3332 3.37648) rotate(-90) scale(13.4971 14.6085)">
<stop offset="0.568182" stop-color="#275FF0" stop-opacity="0"/>
<stop offset="0.992424" stop-color="#002177"/>
</radialGradient>
<linearGradient id="paint6_linear_35932_48915" x1="21.3255" y1="14.9355" x2="12.2552" y2="14.9355" gradientUnits="userSpaceOnUse">
<stop stop-color="#4DC4FF"/>
<stop offset="0.196145" stop-color="#0FAFFF"/>
</linearGradient>
<radialGradient id="paint7_radial_35932_48915" cx="0" cy="0" r="1" gradientUnits="userSpaceOnUse" gradientTransform="translate(14.3751 18.9185) rotate(-45) scale(5.78419)">
<stop offset="0.259477" stop-color="#0060D1" stop-opacity="0.4"/>
<stop offset="0.908166" stop-color="#0383F1" stop-opacity="0"/>
</radialGradient>
<radialGradient id="paint8_radial_35932_48915" cx="0" cy="0" r="1" gradientUnits="userSpaceOnUse" gradientTransform="translate(5.64714 23.1973) rotate(-52.6577) scale(19.6345 17.7546)">
<stop offset="0.732317" stop-color="#F4A7F7" stop-opacity="0"/>
<stop offset="1" stop-color="#F4A7F7" stop-opacity="0.501961"/>
</radialGradient>
<radialGradient id="paint9_radial_35932_48915" cx="0" cy="0" r="1" gradientUnits="userSpaceOnUse" gradientTransform="translate(9.61195 13.7299) rotate(123.339) scale(10.3597 26.8845)">
<stop stop-color="#49DEFF"/>
<stop offset="0.724349" stop-color="#29C3FF"/>
</radialGradient>
<linearGradient id="paint10_linear_35932_48915" x1="2.05769" y1="18.8985" x2="10.7907" y2="18.8922" gradientUnits="userSpaceOnUse">
<stop offset="0.205882" stop-color="#6CE0FF"/>
<stop offset="0.535" stop-color="#50D5FF" stop-opacity="0"/>
</linearGradient>
<radialGradient id="paint11_radial_35932_48915" cx="0" cy="0" r="1" gradientUnits="userSpaceOnUse" gradientTransform="translate(2.29959 11.7724) rotate(46.9242) scale(10.5276)">
<stop offset="0.038877" stop-color="#0091FF"/>
<stop offset="0.919119" stop-color="#183DAD"/>
</radialGradient>
<radialGradient id="paint12_radial_35932_48915" cx="0" cy="0" r="1" gradientUnits="userSpaceOnUse" gradientTransform="translate(6.32687 16.3353) rotate(90) scale(5.59825 6.45738)">
<stop offset="0.557796" stop-color="#0FA5F7" stop-opacity="0"/>
<stop offset="1" stop-color="#74C6FF" stop-opacity="0.501961"/>
</radialGradient>
</defs>
</svg>
