<svg width="24" height="24" viewBox="0 0 24 24" fill="none" xmlns="http://www.w3.org/2000/svg">
<path d="M21 7.47096C21 8.71104 20.6791 9.84901 20.0373 10.8848C19.3955 11.9207 18.462 12.7668 17.2368 13.4234C16.0116 14.0799 14.553 14.4665 12.861 14.5832L11.9202 19.8572C11.5556 21.8851 10.5637 22.8991 8.94466 22.8991C8.05491 22.8991 7.2308 22.6365 6.47233 22.1113C5.72844 21.5861 5.13042 20.7836 4.67825 19.704C4.22609 18.6244 4 17.2968 4 15.7212C4 12.7596 4.47405 10.2502 5.42213 8.19313C6.38482 6.12147 7.66837 4.57499 9.27285 3.55375C10.8919 2.51792 12.6714 2 14.6113 2C15.9824 2 17.142 2.24072 18.0901 2.72217C19.0528 3.20361 19.7748 3.86013 20.2561 4.69171C20.752 5.50871 21 6.43513 21 7.47096ZM13.2548 12.3292C16.245 11.9499 17.74 10.3961 17.74 7.66792C17.74 6.70502 17.4191 5.9245 16.7774 5.32635C16.1501 4.71361 15.1729 4.40722 13.8456 4.40722C12.3432 4.40722 11.0305 4.88138 9.90734 5.82968C8.7988 6.77797 7.93823 8.0983 7.32561 9.79066C6.72758 11.4684 6.42856 13.3869 6.42856 15.5461C6.42856 16.4506 6.51608 17.2531 6.69113 17.9533C6.88074 18.6536 7.11412 19.2007 7.39125 19.5946C7.68298 19.9739 7.9601 20.1636 8.22265 20.1636C8.58731 20.1636 8.86444 19.6603 9.05405 18.6536L9.77606 14.5176C9.20721 14.43 8.95924 14.3936 9.03218 14.4081C8.5946 14.3352 8.31016 14.2039 8.1789 14.0142C8.04762 13.81 7.98198 13.5547 7.98198 13.2483C7.98198 12.9273 8.06949 12.672 8.24452 12.4824C8.43415 12.2927 8.68941 12.1979 9.0103 12.1979C9.15617 12.1979 9.26556 12.2052 9.33849 12.2198C9.68855 12.2781 9.95838 12.3146 10.148 12.3292C10.3376 11.1912 10.6075 9.66665 10.9575 7.75546C11.045 7.25941 11.242 6.90928 11.5483 6.70502C11.8691 6.48619 12.2411 6.37678 12.6641 6.37678C13.1454 6.37678 13.4882 6.4716 13.6924 6.66126C13.9112 6.83632 14.0206 7.12082 14.0206 7.51473C14.0206 7.74816 14.006 7.93782 13.9768 8.08372L13.2548 12.3292Z" fill="white"/>
</svg>
