<svg width="24" height="24" viewBox="0 0 24 24" fill="none" xmlns="http://www.w3.org/2000/svg">
<path d="M11.8735 21.5992C9.72111 21.5992 7.97592 19.8542 7.97592 17.7016C7.97592 15.549 9.72111 13.804 11.8735 13.804C14.0262 13.804 15.7712 15.549 15.7712 17.7016C15.7712 19.8542 14.0262 21.5992 11.8735 21.5992ZM15.8276 9.34871C14.5882 10.2837 14.3484 11.9336 14.3118 13.0488C12.353 10.7835 17.9396 4.11889 11.5914 0C15.521 5.08541 6 10.0851 6 17.5769C6 20.5136 7.83503 23.1016 11.8656 24C15.8193 23.1582 17.7701 20.5136 17.7701 17.5769C17.7701 13.1983 15.0441 11.7333 15.8276 9.34871Z" fill="#F15022"/>
</svg>
