<svg width="144" height="34" viewBox="0 0 143.598 34.0679" fill="none" xmlns="http://www.w3.org/2000/svg">
<g id="Group">
<path id="Union" d="M14.2588 0.189577C14.6974 -0.06326 15.239 -0.0631249 15.6777 0.189577L29.3418 8.0636C29.7106 8.27612 29.9384 8.66983 29.9385 9.09485V24.9728C29.9385 25.3985 29.7107 25.7924 29.3418 26.005L15.6787 33.8781C15.24 34.131 14.6985 34.131 14.2598 33.8781L0.59668 26.005C0.227852 25.7924 0 25.3979 0 24.9728V9.09485C0.000102133 8.66917 0.227935 8.27612 0.59668 8.0636L14.2588 0.189577ZM1.68262 9.00305C1.5043 9.00305 1.44176 9.2383 1.5957 9.32727L14.5498 16.7921C14.809 16.9419 14.9688 17.2184 14.9688 17.5167V32.4484C14.9689 32.6262 15.2038 32.6887 15.293 32.5353L28.4834 9.73157V9.73255C28.6707 9.40856 28.4371 9.00308 28.0625 9.00305H1.68262ZM58.7061 19.3888C58.7061 22.0195 59.913 23.25 62.7461 23.2501C65.5794 23.2501 66.7871 22.0203 66.7871 19.3888V8.83997H70.3838V20.1261C70.3838 23.962 67.9446 26.3976 62.7461 26.3976C57.5483 26.3975 55.1096 23.9382 55.1094 20.1027V8.83997H58.7061V19.3888ZM116.922 8.54505C122.341 8.5451 125.766 12.012 125.767 17.4464C125.767 22.8809 122.194 26.3975 116.774 26.3976C111.355 26.3976 107.93 22.881 107.93 17.4464C107.93 12.012 111.502 8.54505 116.922 8.54505ZM52.1543 12.0372H46.5371C43.507 12.0372 41.1416 13.7832 41.1416 17.4718C41.1418 21.1601 43.5071 22.9064 46.5371 22.9064H52.1543V26.1027H46.0938C41.0186 26.1027 37.4219 23.1272 37.4219 17.4718C37.422 11.8165 41.2648 8.84096 46.3398 8.84094V8.83997H52.1543V12.0372ZM105.785 11.9366H97.2119C95.9805 11.9366 95.1926 12.5757 95.1924 13.8048C95.1924 15.0341 96.0051 15.6251 97.2373 15.7238L101.302 16.0675C104.382 16.3378 106.401 17.7405 106.401 21.0353C106.401 24.3298 104.258 26.1006 101.229 26.1007H92.0146V23.0031H100.883C102.041 23.003 102.779 22.2153 102.779 21.0597L102.771 20.837C102.68 19.7672 101.917 19.3079 100.81 19.2159L96.8184 18.8468C93.3692 18.5273 91.5703 17.174 91.5703 13.9034C91.5705 10.6332 93.7881 8.83801 96.9658 8.83801H105.785V11.9366ZM83.7559 8.83801C87.0081 8.83801 89.1744 10.4851 89.1748 13.7306C89.1748 15.6488 88.0672 17.1241 86.5889 17.7638V17.8136C88.1407 18.0351 88.9293 19.1415 88.9531 20.6417L89.0273 26.0997H85.4307L85.3574 21.2316C85.3329 20.1495 84.6916 19.4855 83.4111 19.4855H77.4238V26.0997H73.8281V8.83801H83.7559ZM143.598 13.7306C143.598 15.6488 142.49 17.1241 141.011 17.7638V17.8136C142.563 18.0351 143.351 19.1415 143.376 20.6417L143.45 26.0997H139.854L139.779 21.2316C139.755 20.1496 139.114 19.4856 137.834 19.4855H131.847V26.0997H128.25V8.83801H138.179C141.43 8.8381 143.597 10.4852 143.598 13.7306ZM116.847 11.6925C113.768 11.6926 111.649 13.8317 111.648 17.4708C111.648 21.11 113.768 23.249 116.847 23.2491C119.927 23.2491 122.046 21.1101 122.046 17.4708C122.046 13.8316 119.926 11.6925 116.847 11.6925ZM77.4238 16.5099H83.3359C84.6905 16.5099 85.5527 15.6985 85.5527 14.2228C85.5526 12.7479 84.7656 11.9367 83.2881 11.9366H77.4238V16.5099ZM139.976 14.2228C139.975 12.7479 139.188 11.9367 137.71 11.9366H131.847V16.5099H137.759C139.113 16.5099 139.976 15.6985 139.976 14.2228Z" fill="url(#paint0_linear_0_30)"/>
</g>
<defs>
<linearGradient id="paint0_linear_0_30" x1="133.612" y1="0.000124356" x2="133.612" y2="23.6287" gradientUnits="userSpaceOnUse">
<stop stop-color="white"/>
<stop offset="1" stop-color="white" stop-opacity="0.6"/>
</linearGradient>
</defs>
</svg>
