<svg width="32" height="24" viewBox="0 0 32 24" fill="none" xmlns="http://www.w3.org/2000/svg">
<path d="M24.1822 8.41016C23.765 8.41016 23.3728 8.57176 23.0792 8.86532L21.8928 10.0485C21.5727 10.3677 21.4083 10.811 21.442 11.2653C21.4444 11.2901 21.4468 11.3149 21.4492 11.3405C21.4917 11.6893 21.6449 12.0037 21.8928 12.2501C22.0637 12.4205 22.2522 12.5286 22.4808 12.6038C22.4928 12.6725 22.4992 12.7421 22.4992 12.8117C22.4992 13.1254 22.3773 13.4197 22.1559 13.6405L22.0829 13.7133C21.6866 13.5781 21.3561 13.3806 21.0577 13.0829C20.6615 12.6877 20.3992 12.1885 20.3005 11.6405L20.2869 11.5645L20.2267 11.6133C20.1858 11.6461 20.1473 11.6814 20.1112 11.7173L18.9248 12.9005C18.3167 13.5069 18.3167 14.4949 18.9248 15.1013C19.2288 15.4045 19.6283 15.5565 20.0286 15.5565C20.4288 15.5565 20.8275 15.4045 21.1315 15.1013L22.318 13.9182C22.926 13.3117 22.926 12.3245 22.318 11.7173C22.1559 11.5558 21.9626 11.4341 21.7436 11.3557C21.7316 11.2845 21.7251 11.2133 21.7251 11.1438C21.7251 10.8029 21.8599 10.4797 22.107 10.2333C22.504 10.3685 22.8562 10.5878 23.1538 10.8845C23.5493 11.2789 23.8108 11.7773 23.911 12.3269L23.9247 12.4029L23.9848 12.3541C24.0258 12.3214 24.0642 12.2861 24.1012 12.2493L25.2876 11.0662C25.8956 10.4597 25.8964 9.47175 25.2876 8.86532C24.9932 8.57176 24.6017 8.41016 24.1838 8.41016H24.1822Z" fill="white"/>
<path d="M23.5452 4.08203H8.02165C3.59851 4.08203 0 7.67083 0 12.082C0 16.4932 3.59851 20.082 8.02165 20.082H23.5452C27.9683 20.082 31.5668 16.4932 31.5668 12.082C31.5668 7.67083 27.9683 4.08203 23.5452 4.08203ZM15.8885 16.6244C15.6326 16.6772 15.3446 16.6868 15.1489 16.4828C15.0767 16.6484 14.9082 16.5612 14.7783 16.5396C14.7663 16.5732 14.7558 16.6028 14.7446 16.6364C14.3122 16.6652 13.9882 16.2252 13.782 15.8932C13.3729 15.6724 12.9084 15.538 12.4905 15.3068C12.4664 15.6876 12.5499 16.1596 12.1865 16.4052C12.168 17.1372 13.2967 16.4916 13.4002 17.0372C13.32 17.046 13.2309 17.0244 13.1667 17.086C12.8723 17.3716 12.5346 16.87 12.1953 17.0772C11.7397 17.306 11.694 17.4932 11.13 17.5404C11.0988 17.4932 11.1116 17.462 11.138 17.4332C11.2969 17.2492 11.3081 17.0324 11.5793 16.954C11.3001 16.91 11.0667 17.0636 10.8316 17.1852C10.526 17.31 10.5284 16.9036 10.0584 17.2068C10.0062 17.1644 10.0311 17.126 10.0608 17.0932C10.1803 16.9476 10.3375 16.926 10.5148 16.934C9.64282 16.4492 9.23212 17.5268 8.82943 16.9908C8.70831 17.0228 8.6626 17.1316 8.58638 17.2084C8.52061 17.1364 8.57034 17.0492 8.57356 16.9644C8.49494 16.9276 8.39545 16.91 8.41872 16.7844C8.2647 16.7324 8.15723 16.8236 8.04253 16.91C7.93902 16.83 8.1123 16.7132 8.14438 16.63C8.23664 16.47 8.44679 16.5972 8.55347 16.482C8.85671 16.31 9.27944 16.5892 9.626 16.542C9.89311 16.5756 10.2236 16.302 10.0896 16.0292C9.80407 15.6652 9.85458 15.1892 9.84818 14.754C9.81288 14.5004 9.20244 14.1772 9.02598 13.9036C8.80777 13.6572 8.63771 13.3716 8.46766 13.0908C7.854 11.906 8.04732 10.3836 7.27402 9.28362C6.92428 9.47644 6.46865 9.38524 6.16706 9.12681C6.0042 9.27482 5.99697 9.46842 5.98415 9.67405C5.59349 9.28445 5.64243 8.54841 5.95447 8.11483C6.08203 7.94363 6.23444 7.80283 6.40449 7.67883C6.44298 7.65083 6.45583 7.62363 6.455 7.58043C6.76386 6.19483 8.87035 6.46203 9.53614 7.44363C10.0191 8.04765 10.1651 8.84681 10.7129 9.40764C11.4501 10.2124 12.29 10.9212 12.9702 11.778C13.6135 12.5612 14.0732 13.4796 14.4743 14.4052C14.6379 14.7124 14.6395 15.0892 14.8818 15.3516C15.0013 15.51 15.5853 15.9412 15.4585 16.094C15.5315 16.2524 16.077 16.4708 15.8877 16.6244H15.8885ZM26.1193 11.898L24.9329 13.0812C24.6168 13.3964 24.2262 13.6316 23.8026 13.7604L23.781 13.7668L23.773 13.7876C23.635 14.1508 23.4256 14.4748 23.1497 14.7492L21.9633 15.9324C21.4459 16.4484 20.7576 16.7324 20.0244 16.7324C19.2913 16.7324 18.603 16.4484 18.0856 15.9324C17.0163 14.866 17.0163 13.1316 18.0856 12.0652L19.272 10.882C19.5897 10.5652 19.9699 10.3372 20.4007 10.2052L20.4223 10.1988L20.4303 10.178C20.5683 9.81481 20.7785 9.49004 21.0553 9.21322L22.2416 8.03004C22.759 7.51403 23.4473 7.23003 24.1804 7.23003C24.9137 7.23003 25.6019 7.51403 26.1193 8.03004C26.6367 8.54601 26.9215 9.23244 26.9215 9.96364C26.9215 10.6948 26.6367 11.382 26.1193 11.8972V11.898Z" fill="white"/>
</svg>
