<svg width="16" height="16" viewBox="0 0 16 16" fill="none" xmlns="http://www.w3.org/2000/svg">
<path d="M2.04688 5.61865L8 8.79365L13.9531 5.61865" stroke="#999999" stroke-linecap="round" stroke-linejoin="round"/>
<path d="M12.7625 13.1596H3.2375C2.92173 13.1596 2.61889 13.0341 2.3956 12.8108C2.17232 12.5876 2.04688 12.2847 2.04688 11.9689V4.03145C2.04688 3.71567 2.17232 3.41283 2.3956 3.18955C2.61889 2.96626 2.92173 2.84082 3.2375 2.84082H12.7625C13.0783 2.84082 13.3811 2.96626 13.6044 3.18955C13.8277 3.41283 13.9531 3.71567 13.9531 4.03145V11.9689C13.9531 12.2847 13.8277 12.5876 13.6044 12.8108C13.3811 13.0341 13.0783 13.1596 12.7625 13.1596Z" stroke="#999999" stroke-linecap="round" stroke-linejoin="round"/>
</svg>
