<svg width="18" height="18" viewBox="0 0 18 18" fill="none" xmlns="http://www.w3.org/2000/svg">
<path d="M9.45129 8.54741L11.2609 6.73783H14.4276C15.1768 6.73783 15.7848 6.12981 15.7848 5.38064V3.57105C15.7848 2.82189 15.1768 2.21387 14.4276 2.21387H10.8085C10.0593 2.21387 9.45129 2.82189 9.45129 3.57105V8.54741Z" stroke="#999999" stroke-miterlimit="10" stroke-linecap="round" stroke-linejoin="round"/>
<path d="M7.64469 8.54785H3.57313C2.82396 8.54785 2.21594 9.15587 2.21594 9.90504V14.429C2.21594 15.1782 2.82396 15.7862 3.57313 15.7862H12.621C13.3702 15.7862 13.9782 15.1782 13.9782 14.429V9.90504C13.9782 9.15587 13.3702 8.54785 12.621 8.54785H12.1687" stroke="#999999" stroke-miterlimit="10" stroke-linecap="round" stroke-linejoin="round"/>
<path d="M5.83313 6.73829V4.92871" stroke="#999999" stroke-miterlimit="10" stroke-linecap="round" stroke-linejoin="round"/>
<path d="M5.83631 4.92823C6.08616 4.92823 6.2887 4.72568 6.2887 4.47583C6.2887 4.22598 6.08616 4.02344 5.83631 4.02344C5.58646 4.02344 5.38391 4.22598 5.38391 4.47583C5.38391 4.72568 5.58646 4.92823 5.83631 4.92823Z" stroke="#999999" stroke-miterlimit="10" stroke-linecap="square" stroke-linejoin="round"/>
<path d="M5.3822 11.3096C5.52027 11.3096 5.6322 11.4215 5.6322 11.5596C5.6322 11.6976 5.52027 11.8096 5.3822 11.8096C5.24413 11.8096 5.1322 11.6976 5.1322 11.5596C5.1322 11.4215 5.24413 11.3096 5.3822 11.3096Z" fill="#999999" stroke="#999999"/>
<path d="M10.8119 11.3096C10.95 11.3096 11.0619 11.4215 11.0619 11.5596C11.0619 11.6976 10.95 11.8096 10.8119 11.8096C10.6738 11.8096 10.5619 11.6976 10.5619 11.5596C10.5619 11.4215 10.6738 11.3096 10.8119 11.3096Z" fill="#999999" stroke="#999999"/>
</svg>
