<svg width="18" height="18" viewBox="0 0 18 18" fill="none" xmlns="http://www.w3.org/2000/svg">
<g opacity="0.8">
<path d="M14.9996 9.74985C14.9996 13.4998 12.3746 15.3748 9.25463 16.4623C9.09126 16.5177 8.91379 16.5151 8.75213 16.4548C5.62463 15.3748 2.99963 13.4998 2.99963 9.74985V4.49985C2.99963 4.30094 3.07865 4.11017 3.2193 3.96952C3.35996 3.82887 3.55072 3.74985 3.74963 3.74985C5.24963 3.74985 7.12463 2.84985 8.42963 1.70985C8.58852 1.5741 8.79065 1.49951 8.99963 1.49951C9.20862 1.49951 9.41074 1.5741 9.56963 1.70985C10.8821 2.85735 12.7496 3.74985 14.2496 3.74985C14.4485 3.74985 14.6393 3.82887 14.78 3.96952C14.9206 4.11017 14.9996 4.30094 14.9996 4.49985V9.74985Z" stroke="#999999" stroke-linecap="round" stroke-linejoin="round"/>
<path d="M6.75 9L8.25 10.5L11.25 7.5" stroke="#999999" stroke-linecap="round" stroke-linejoin="round"/>
</g>
</svg>
