<svg width="18" height="18" viewBox="0 0 18 18" fill="none" xmlns="http://www.w3.org/2000/svg">
<path d="M12.0004 15.75V14.25C12.0004 13.4544 11.6843 12.6913 11.1217 12.1287C10.5591 11.5661 9.79602 11.25 9.00037 11.25H4.50037C3.70472 11.25 2.94166 11.5661 2.37905 12.1287C1.81644 12.6913 1.50037 13.4544 1.50037 14.25V15.75" stroke="#999999" stroke-linecap="round" stroke-linejoin="round"/>
<path d="M6.75037 8.25C8.40722 8.25 9.75037 6.90685 9.75037 5.25C9.75037 3.59315 8.40722 2.25 6.75037 2.25C5.09351 2.25 3.75037 3.59315 3.75037 5.25C3.75037 6.90685 5.09351 8.25 6.75037 8.25Z" stroke="#999999" stroke-linecap="round" stroke-linejoin="round"/>
<path d="M16.4996 15.7502V14.2502C16.4991 13.5855 16.2779 12.9397 15.8707 12.4144C15.4634 11.889 14.8932 11.5138 14.2496 11.3477" stroke="#999999" stroke-linecap="round" stroke-linejoin="round"/>
<path d="M11.9996 2.34766C12.6449 2.51288 13.2169 2.88818 13.6254 3.41439C14.0338 3.9406 14.2555 4.58778 14.2555 5.25391C14.2555 5.92003 14.0338 6.56722 13.6254 7.09342C13.2169 7.61963 12.6449 7.99493 11.9996 8.16016" stroke="#999999" stroke-linecap="round" stroke-linejoin="round"/>
</svg>
