<svg width="18" height="18" viewBox="0 0 18 18" fill="none" xmlns="http://www.w3.org/2000/svg">
<path d="M5.92537 15C7.3568 15.7343 9.00343 15.9332 10.5685 15.5609C12.1336 15.1885 13.5143 14.2694 14.4617 12.9692C15.4091 11.6689 15.8609 10.0731 15.7358 8.46916C15.6107 6.86524 14.9168 5.35876 13.7792 4.22118C12.6416 3.0836 11.1352 2.38972 9.53125 2.2646C7.92733 2.13947 6.33147 2.59132 5.03123 3.53872C3.73099 4.48612 2.81188 5.86677 2.43953 7.43187C2.06718 8.99697 2.26607 10.6436 3.00037 12.075L1.50037 16.5L5.92537 15Z" stroke="#999999" stroke-linecap="round" stroke-linejoin="round"/>
<path d="M6.00037 9H6.00787" stroke="#999999" stroke-width="1.5" stroke-linecap="round" stroke-linejoin="round"/>
<path d="M9 9H9.0075" stroke="#999999" stroke-width="1.5" stroke-linecap="round" stroke-linejoin="round"/>
<path d="M11.9996 9H12.0071" stroke="#999999" stroke-width="1.5" stroke-linecap="round" stroke-linejoin="round"/>
</svg>
