<svg width="24" height="24" viewBox="0 0 24 24" fill="none" xmlns="http://www.w3.org/2000/svg">
<path d="M18.0934 6.42435C16.9684 5.90872 15.7731 5.53372 14.5169 5.31341C14.4934 5.31341 14.47 5.31341 14.4606 5.34153C14.3059 5.6181 14.1325 5.97435 14.0153 6.2556C12.6559 6.05403 11.32 6.05403 9.99811 6.2556C9.87623 5.96497 9.7028 5.61341 9.52936 5.34153C9.5153 5.32278 9.49655 5.30872 9.47311 5.31341C8.39498 5.52903 7.01686 5.92278 5.91061 6.42435C5.90123 6.42435 5.89186 6.43372 5.88717 6.4431C3.5903 9.86497 2.98092 13.1462 3.30905 16.4275C3.30905 16.4415 3.31842 16.4603 3.33248 16.4743C4.83248 17.5806 6.28561 18.2556 7.71998 18.6915C7.74342 18.6915 7.76686 18.6915 7.78092 18.6728C8.11842 18.2134 8.41842 17.7259 8.68092 17.2103C8.69498 17.1822 8.68092 17.1447 8.64811 17.1353C8.17936 16.9478 7.71061 16.7322 7.27467 16.479C7.24186 16.4603 7.23717 16.4087 7.27467 16.3853C7.36842 16.315 7.46217 16.2447 7.54655 16.1743C7.56061 16.1603 7.58405 16.1603 7.6028 16.165C10.4809 17.4775 13.6028 17.4775 16.4153 16.165C16.434 16.1556 16.4575 16.1603 16.4715 16.1697C16.5606 16.2447 16.6497 16.315 16.7434 16.3853C16.7762 16.4087 16.7715 16.4603 16.7434 16.479C16.3075 16.7368 15.8528 16.9478 15.37 17.1353C15.3372 17.1493 15.3231 17.1822 15.3419 17.215C15.6044 17.7306 15.909 18.2134 16.2325 18.6681C16.2465 18.6868 16.27 18.6962 16.2934 18.6868C17.7278 18.2415 19.1856 17.5712 20.6903 16.4697C20.7044 16.4603 20.7137 16.4462 20.7137 16.4228C21.0794 12.6306 20.0997 9.34466 18.1169 6.43841C18.1169 6.42903 18.1028 6.41966 18.0934 6.41966V6.42435ZM9.09342 14.44C8.2028 14.44 7.49967 13.6431 7.49967 12.6587C7.49967 11.6743 8.2028 10.8775 9.09342 10.8775C9.98405 10.8775 10.6872 11.6743 10.6872 12.6587C10.6872 13.6431 9.98405 14.44 9.09342 14.44ZM14.9528 14.44C14.0622 14.44 13.359 13.6431 13.359 12.6587C13.359 11.6743 14.0622 10.8775 14.9528 10.8775C15.8434 10.8775 16.5465 11.6743 16.5465 12.6587C16.5465 13.6431 15.8434 14.44 14.9528 14.44Z" fill="#5865F2"/>
</svg>
