<svg width="24" height="24" viewBox="0 0 24 24" fill="none" xmlns="http://www.w3.org/2000/svg">
<path d="M11.4652 3.02193C7.92872 3.26657 4.9175 5.45033 3.62955 8.69899C2.47831 11.6131 2.92442 14.9157 4.81677 17.4232C6.24863 19.33 8.31366 20.5532 10.7277 20.9129C11.3213 21.0101 12.4545 21.0281 13.0122 20.9561C14.7642 20.7295 16.3292 20.0711 17.6531 19.0062C18.1208 18.6284 18.8403 17.8837 19.1713 17.434C20.1211 16.1569 20.7111 14.707 20.9341 13.1061C20.9917 12.6636 20.9917 11.354 20.9341 10.9115C20.7902 9.8934 20.5024 8.94003 20.0635 8.05141C19.603 7.11603 19.1102 6.42169 18.3798 5.68417C18.0057 5.29923 17.3725 4.75958 17.3077 4.75958C17.2862 4.75958 17.2933 5.13733 17.3185 5.69497L17.3653 6.63035L17.6171 6.94334C18.3007 7.79598 18.7972 8.86807 18.9914 9.92938C19.0814 10.433 19.0994 11.4764 19.0274 11.9369C18.8655 12.937 18.4806 13.8796 17.9121 14.689C17.6027 15.128 16.9048 15.8259 16.4659 16.1353C15.6025 16.7469 14.6671 17.1282 13.5878 17.3225C13.228 17.3873 11.825 17.3873 11.4652 17.3225C9.91821 17.0455 8.63026 16.3871 7.60853 15.351C6.55442 14.2825 5.93563 13.0485 5.72337 11.5951C5.65142 11.0914 5.66941 10.0841 5.75935 9.61638C6.21265 7.36427 7.72365 5.58704 9.88223 4.78477C10.17 4.67684 10.5442 4.5761 10.9435 4.48976C11.0047 4.47537 12.1811 3.12266 12.2135 3.02912C12.2243 2.99315 11.8465 2.99315 11.4652 3.01473V3.02193Z" fill="#2253BF"/>
<path d="M14.5687 3.87958C14.5219 3.90836 14.2665 4.21416 13.9931 4.55234C13.7268 4.89411 13.1872 5.55968 12.7986 6.03456C10.9639 8.27229 10.4242 8.97023 10.2587 9.30841C10.0429 9.74012 9.95652 10.0639 9.93493 10.4956C9.89176 11.208 10.1148 11.7908 10.6185 12.2944C10.9639 12.6362 11.2517 12.8161 11.7194 12.9672C12.0431 13.0751 12.0935 13.0823 12.5828 13.0823C13.0793 13.0823 13.1224 13.0823 13.3959 12.9744C14.2305 12.6506 14.7989 11.9527 15.0148 10.9705C15.0867 10.6755 15.0867 9.93799 15.0292 8.1032L14.9572 5.51291C14.9212 4.18898 14.9069 4.0091 14.8493 3.92995C14.7773 3.82202 14.6766 3.80044 14.5687 3.87958Z" fill="#2253BF"/>
</svg>
