<svg width="24" height="24" viewBox="0 0 24 24" fill="none" xmlns="http://www.w3.org/2000/svg">
<g clip-path="url(#clip0_35932_48705)">
<path d="M11.5234 10.5781H17.2076C18.7773 10.5781 20.0498 11.8506 20.0498 13.4202V18.1571C20.0498 19.7267 18.7773 20.9992 17.2076 20.9992C15.638 20.9992 14.3655 19.7267 14.3655 18.1571V13.4202C14.3655 11.8506 13.0931 10.5781 11.5234 10.5781Z" fill="url(#paint0_radial_35932_48705)"/>
<path d="M4.89062 12.4749C4.89062 10.9053 6.16309 9.63281 7.73274 9.63281H11.5222C13.0919 9.63281 14.3643 10.9053 14.3643 12.4749V18.1591C14.3643 19.7288 15.6368 21.0012 17.2064 21.0012L9.62743 21.0012C7.01137 21.0012 4.89062 18.8805 4.89062 16.2643V12.4749Z" fill="url(#paint1_radial_35932_48705)"/>
<path d="M4.89062 12.4749C4.89062 10.9053 6.16309 9.63281 7.73274 9.63281H11.5222C13.0919 9.63281 14.3643 10.9053 14.3643 12.4749V18.1591C14.3643 19.7288 15.6368 21.0012 17.2064 21.0012L9.62743 21.0012C7.01137 21.0012 4.89062 18.8805 4.89062 16.2643V12.4749Z" fill="url(#paint2_linear_35932_48705)" fill-opacity="0.7"/>
<path d="M4.89062 12.4749C4.89062 10.9053 6.16309 9.63281 7.73274 9.63281H11.5222C13.0919 9.63281 14.3643 10.9053 14.3643 12.4749V18.1591C14.3643 19.7288 15.6368 21.0012 17.2064 21.0012L9.62743 21.0012C7.01137 21.0012 4.89062 18.8805 4.89062 16.2643V12.4749Z" fill="url(#paint3_radial_35932_48705)" fill-opacity="0.7"/>
<path d="M16.7356 9.63137C18.0436 9.63137 19.104 8.57098 19.104 7.26295C19.104 5.95492 18.0436 4.89453 16.7356 4.89453C15.4276 4.89453 14.3672 5.95492 14.3672 7.26295C14.3672 8.57098 15.4276 9.63137 16.7356 9.63137Z" fill="url(#paint4_radial_35932_48705)"/>
<path d="M16.7356 9.63137C18.0436 9.63137 19.104 8.57098 19.104 7.26295C19.104 5.95492 18.0436 4.89453 16.7356 4.89453C15.4276 4.89453 14.3672 5.95492 14.3672 7.26295C14.3672 8.57098 15.4276 9.63137 16.7356 9.63137Z" fill="url(#paint5_radial_35932_48705)" fill-opacity="0.46"/>
<path d="M16.7356 9.63137C18.0436 9.63137 19.104 8.57098 19.104 7.26295C19.104 5.95492 18.0436 4.89453 16.7356 4.89453C15.4276 4.89453 14.3672 5.95492 14.3672 7.26295C14.3672 8.57098 15.4276 9.63137 16.7356 9.63137Z" fill="url(#paint6_radial_35932_48705)" fill-opacity="0.4"/>
<path d="M9.63117 8.68421C11.2008 8.68421 12.4733 7.41175 12.4733 5.84211C12.4733 4.27245 11.2008 3 9.63117 3C8.06152 3 6.78906 4.27245 6.78906 5.84211C6.78906 7.41175 8.06152 8.68421 9.63117 8.68421Z" fill="url(#paint7_radial_35932_48705)"/>
<path d="M9.63117 8.68421C11.2008 8.68421 12.4733 7.41175 12.4733 5.84211C12.4733 4.27245 11.2008 3 9.63117 3C8.06152 3 6.78906 4.27245 6.78906 5.84211C6.78906 7.41175 8.06152 8.68421 9.63117 8.68421Z" fill="url(#paint8_radial_35932_48705)" fill-opacity="0.6"/>
<path d="M9.63117 8.68421C11.2008 8.68421 12.4733 7.41175 12.4733 5.84211C12.4733 4.27245 11.2008 3 9.63117 3C8.06152 3 6.78906 4.27245 6.78906 5.84211C6.78906 7.41175 8.06152 8.68421 9.63117 8.68421Z" fill="url(#paint9_radial_35932_48705)" fill-opacity="0.5"/>
<path d="M9.03947 12H4.53947C3.68925 12 3 12.6892 3 13.5395V18.0395C3 18.8897 3.68925 19.5789 4.53947 19.5789H9.03947C9.8897 19.5789 10.5789 18.8897 10.5789 18.0395V13.5395C10.5789 12.6892 9.8897 12 9.03947 12Z" fill="url(#paint10_radial_35932_48705)"/>
<path d="M9.03947 12H4.53947C3.68925 12 3 12.6892 3 13.5395V18.0395C3 18.8897 3.68925 19.5789 4.53947 19.5789H9.03947C9.8897 19.5789 10.5789 18.8897 10.5789 18.0395V13.5395C10.5789 12.6892 9.8897 12 9.03947 12Z" fill="url(#paint11_radial_35932_48705)" fill-opacity="0.7"/>
<path d="M8.43702 14.4193H7.27787V17.9558H6.29981V14.4193H5.14062V13.625H8.43702V14.4193Z" fill="white"/>
</g>
<defs>
<radialGradient id="paint0_radial_35932_48705" cx="0" cy="0" r="1" gradientUnits="userSpaceOnUse" gradientTransform="translate(19.9535 11.6079) scale(6.38451 15.7592)">
<stop stop-color="#A98AFF"/>
<stop offset="0.14" stop-color="#8C75FF"/>
<stop offset="0.565" stop-color="#5F50E2"/>
<stop offset="0.9" stop-color="#3C2CB8"/>
</radialGradient>
<radialGradient id="paint1_radial_35932_48705" cx="0" cy="0" r="1" gradientUnits="userSpaceOnUse" gradientTransform="translate(5.27549 8.87492) rotate(68.1539) scale(15.5141 15.6899)">
<stop stop-color="#85C2FF"/>
<stop offset="0.69" stop-color="#7588FF"/>
<stop offset="1" stop-color="#6459FE"/>
</radialGradient>
<linearGradient id="paint2_linear_35932_48705" x1="10.8561" y1="9.63281" x2="10.8561" y2="21.0012" gradientUnits="userSpaceOnUse">
<stop offset="0.801159" stop-color="#6864F6" stop-opacity="0"/>
<stop offset="1" stop-color="#5149DE"/>
</linearGradient>
<radialGradient id="paint3_radial_35932_48705" cx="0" cy="0" r="1" gradientUnits="userSpaceOnUse" gradientTransform="translate(14.1275 9.25387) rotate(113.326) scale(9.10355 7.30767)">
<stop stop-color="#BD96FF"/>
<stop offset="0.686685" stop-color="#BD96FF" stop-opacity="0"/>
</radialGradient>
<radialGradient id="paint4_radial_35932_48705" cx="0" cy="0" r="1" gradientUnits="userSpaceOnUse" gradientTransform="translate(16.7356 6.58625) rotate(-90) scale(4.73684 5.97865)">
<stop offset="0.268201" stop-color="#6868F7"/>
<stop offset="1" stop-color="#3923B1"/>
</radialGradient>
<radialGradient id="paint5_radial_35932_48705" cx="0" cy="0" r="1" gradientUnits="userSpaceOnUse" gradientTransform="translate(14.7782 6.09958) rotate(40.0516) scale(3.38508 4.89614)">
<stop offset="0.270711" stop-color="#A1D3FF"/>
<stop offset="0.813393" stop-color="#A1D3FF" stop-opacity="0"/>
</radialGradient>
<radialGradient id="paint6_radial_35932_48705" cx="0" cy="0" r="1" gradientUnits="userSpaceOnUse" gradientTransform="translate(18.6219 6.0165) rotate(-41.6581) scale(4.03236 9.89166)">
<stop stop-color="#E3ACFD"/>
<stop offset="0.816041" stop-color="#9FA2FF" stop-opacity="0"/>
</radialGradient>
<radialGradient id="paint7_radial_35932_48705" cx="0" cy="0" r="1" gradientUnits="userSpaceOnUse" gradientTransform="translate(9.63117 5.03007) rotate(-90) scale(5.68421 7.17442)">
<stop offset="0.268201" stop-color="#8282FF"/>
<stop offset="1" stop-color="#3923B1"/>
</radialGradient>
<radialGradient id="paint8_radial_35932_48705" cx="0" cy="0" r="1" gradientUnits="userSpaceOnUse" gradientTransform="translate(7.28226 4.44608) rotate(40.0516) scale(4.0621 5.87534)">
<stop offset="0.270711" stop-color="#A1D3FF"/>
<stop offset="0.813393" stop-color="#A1D3FF" stop-opacity="0"/>
</radialGradient>
<radialGradient id="paint9_radial_35932_48705" cx="0" cy="0" r="1" gradientUnits="userSpaceOnUse" gradientTransform="translate(11.8948 4.34635) rotate(-41.6581) scale(4.83883 11.87)">
<stop stop-color="#E3ACFD"/>
<stop offset="0.816041" stop-color="#9FA2FF" stop-opacity="0"/>
</radialGradient>
<radialGradient id="paint10_radial_35932_48705" cx="0" cy="0" r="1" gradientUnits="userSpaceOnUse" gradientTransform="translate(3 12) rotate(45) scale(10.7182)">
<stop offset="0.046875" stop-color="#688EFF"/>
<stop offset="0.946875" stop-color="#230F94"/>
</radialGradient>
<radialGradient id="paint11_radial_35932_48705" cx="0" cy="0" r="1" gradientUnits="userSpaceOnUse" gradientTransform="translate(6.78947 16.5474) rotate(90) scale(5.30526 6.19115)">
<stop offset="0.570647" stop-color="#6965F6" stop-opacity="0"/>
<stop offset="1" stop-color="#8F8FFF"/>
</radialGradient>
<clipPath id="clip0_35932_48705">
<rect width="17.0526" height="18" fill="white" transform="translate(3 3)"/>
</clipPath>
</defs>
</svg>
