<svg width="24" height="24" viewBox="0 0 24 24" fill="none" xmlns="http://www.w3.org/2000/svg">
<path d="M7.37156 14.1038C7.37156 15.0339 6.61982 15.7856 5.68969 15.7856C4.75956 15.7856 4.00781 15.0339 4.00781 14.1038C4.00781 13.1736 4.75956 12.4219 5.68969 12.4219H7.37156V14.1038ZM8.2125 14.1038C8.2125 13.1736 8.96425 12.4219 9.89438 12.4219C10.8245 12.4219 11.5763 13.1736 11.5763 14.1038V18.3084C11.5763 19.2386 10.8245 19.9903 9.89438 19.9903C8.96425 19.9903 8.2125 19.2386 8.2125 18.3084V14.1038Z" fill="#E01E5A"/>
<path d="M9.8915 7.35594C8.96137 7.35594 8.20962 6.60419 8.20962 5.67406C8.20962 4.74394 8.96137 3.99219 9.8915 3.99219C10.8216 3.99219 11.5734 4.74394 11.5734 5.67406V7.35594H9.8915ZM9.8915 8.20962C10.8216 8.20962 11.5734 8.96137 11.5734 9.8915C11.5734 10.8216 10.8216 11.5734 9.8915 11.5734H5.67406C4.74394 11.5734 3.99219 10.8216 3.99219 9.8915C3.99219 8.96137 4.74394 8.20962 5.67406 8.20962H9.8915Z" fill="#36C5F0"/>
<path d="M16.6344 9.8915C16.6344 8.96137 17.3861 8.20962 18.3163 8.20962C19.2464 8.20962 19.9981 8.96137 19.9981 9.8915C19.9981 10.8216 19.2464 11.5734 18.3163 11.5734H16.6344V9.8915ZM15.7934 9.8915C15.7934 10.8216 15.0417 11.5734 14.1116 11.5734C13.1814 11.5734 12.4297 10.8216 12.4297 9.8915V5.67406C12.4297 4.74394 13.1814 3.99219 14.1116 3.99219C15.0417 3.99219 15.7934 4.74394 15.7934 5.67406V9.8915Z" fill="#2EB67D"/>
<path d="M14.1116 16.6266C15.0417 16.6266 15.7934 17.3783 15.7934 18.3084C15.7934 19.2386 15.0417 19.9903 14.1116 19.9903C13.1814 19.9903 12.4297 19.2386 12.4297 18.3084V16.6266H14.1116ZM14.1116 15.7856C13.1814 15.7856 12.4297 15.0339 12.4297 14.1038C12.4297 13.1736 13.1814 12.4219 14.1116 12.4219H18.329C19.2591 12.4219 20.0109 13.1736 20.0109 14.1038C20.0109 15.0339 19.2591 15.7856 18.329 15.7856H14.1116Z" fill="#ECB22E"/>
</svg>
