<svg width="24" height="24" viewBox="0 0 24 24" fill="none" xmlns="http://www.w3.org/2000/svg">
<path d="M12 2C17.5228 2 22 6.47715 22 12C22 17.5228 17.5228 22 12 22C6.47715 22 2 17.5228 2 12C2 6.47715 6.47715 2 12 2ZM11.5062 11.2361L7.92092 14.4376C7.55159 14.7282 7.30926 15.2079 7.30926 15.7475C7.30926 16.6286 7.95564 17.3496 8.74566 17.3496H15.4837C16.2737 17.3496 16.9201 16.6286 16.9201 15.7475C16.9201 14.8661 16.2737 14.1453 15.4837 14.1453H10.3828C10.3072 14.1453 10.2593 14.0547 10.2962 13.981L11.6113 11.3479C11.6594 11.2711 11.5728 11.179 11.5062 11.2361ZM15.4837 6.63772H8.74566C7.95564 6.63772 7.30926 7.35853 7.30926 8.23988C7.30926 9.12098 7.95564 9.84204 8.74566 9.84204H13.8465C13.9222 9.84204 13.97 9.93264 13.9331 10.0064L12.618 12.6395C12.57 12.7163 12.6565 12.8083 12.7231 12.7512L16.3084 9.54929C16.6777 9.25844 16.9201 8.779 16.9201 8.2394C16.9201 7.3583 16.2737 6.63724 15.4837 6.63772Z" fill="url(#paint0_linear_35932_48726)"/>
<defs>
<linearGradient id="paint0_linear_35932_48726" x1="1002" y1="2" x2="1002" y2="2002" gradientUnits="userSpaceOnUse">
<stop stop-color="#24ADFF"/>
<stop offset="1" stop-color="#7B71FF"/>
</linearGradient>
</defs>
</svg>
