<svg preserveAspectRatio="none" width="100%" height="100%" overflow="visible" style="display: block;" viewBox="0 0 16 16" fill="none" xmlns="http://www.w3.org/2000/svg">
<g id="Frame" clip-path="url(#clip0_43062_58394)">
<path id="Vector" d="M13.75 5.41675C13.5056 5.41675 13.2778 5.3712 13.0667 5.28009C12.8556 5.18898 12.6707 5.06387 12.512 4.90475C12.3529 4.74609 12.2278 4.5612 12.1367 4.35009C12.0456 4.13942 12 3.91164 12 3.66675C12 3.42675 12.0456 3.20009 12.1367 2.98675C12.2278 2.77342 12.3529 2.58742 12.512 2.42875C12.6707 2.26964 12.8556 2.14453 13.0667 2.05342C13.2773 1.96231 13.5051 1.91675 13.75 1.91675C13.99 1.91675 14.2167 1.96231 14.43 2.05342C14.6433 2.14453 14.8293 2.26964 14.988 2.42875C15.1471 2.58742 15.2722 2.77342 15.3633 2.98675C15.4544 3.20009 15.5 3.42675 15.5 3.66675C15.5 3.9112 15.4544 4.13898 15.3633 4.35009C15.2722 4.5612 15.1471 4.74609 14.988 4.90475C14.8293 5.06387 14.6433 5.18898 14.43 5.28009C14.2167 5.3712 13.99 5.41675 13.75 5.41675ZM13.75 2.91675C13.5416 2.91675 13.3644 2.98964 13.2187 3.13542C13.0729 3.2812 13 3.45831 13 3.66675C13 3.8752 13.0729 4.05231 13.2187 4.19809C13.3644 4.34387 13.5416 4.41675 13.75 4.41675C13.9584 4.41675 14.1356 4.34387 14.2813 4.19809C14.4271 4.05231 14.5 3.8752 14.5 3.66675C14.5 3.45831 14.4271 3.2812 14.2813 3.13542C14.1356 2.98964 13.9584 2.91675 13.75 2.91675ZM16 6.66675V10.3854C16 10.7294 15.9349 11.0539 15.8047 11.3588C15.6744 11.6632 15.496 11.9285 15.2693 12.1548C15.0427 12.3814 14.7771 12.5599 14.4727 12.6901C14.1678 12.8203 13.8436 12.8854 13.5 12.8854C13.3022 12.8854 13.1004 12.8621 12.8947 12.8154C12.6889 12.7683 12.5 12.6952 12.328 12.5961C12.1978 13.0183 12.0078 13.4025 11.758 13.7488C11.5078 14.0954 11.2147 14.3923 10.8787 14.6394C10.5427 14.887 10.1716 15.0783 9.76533 15.2134C9.35911 15.349 8.93733 15.4168 8.5 15.4168C7.98978 15.4168 7.50933 15.3283 7.05867 15.1514C6.608 14.9741 6.20689 14.7292 5.85533 14.4168C5.50422 14.1043 5.21267 13.7345 4.98067 13.3074C4.74867 12.8803 4.59889 12.4168 4.53133 11.9168H0.664667C0.482 11.9168 0.325556 11.8516 0.195333 11.7214C0.0651111 11.5912 0 11.435 0 11.2528V4.58075C0 4.39853 0.0651111 4.24231 0.195333 4.11209C0.325556 3.98187 0.481778 3.91675 0.664 3.91675H6.39067C6.23956 3.59898 6.164 3.26564 6.164 2.91675C6.164 2.59364 6.22511 2.29031 6.34733 2.00675C6.47 1.72275 6.63667 1.4752 6.84733 1.26409C7.05844 1.05342 7.306 0.886754 7.59 0.764088C7.87356 0.641865 8.17689 0.580754 8.5 0.580754C8.82311 0.580754 9.12644 0.641865 9.41 0.764088C9.694 0.886754 9.94156 1.05342 10.1527 1.26409C10.3633 1.4752 10.53 1.72275 10.6527 2.00675C10.7749 2.29031 10.836 2.59364 10.836 2.91675C10.836 3.23987 10.7749 3.5432 10.6527 3.82675C10.53 4.11075 10.3633 4.35809 10.1527 4.56875C9.94156 4.77987 9.694 4.94653 9.41 5.06875C9.12644 5.19142 8.82311 5.25275 8.5 5.25275C8.41644 5.25275 8.33311 5.24742 8.25 5.23675C8.16644 5.22653 8.08311 5.21364 8 5.19809V5.91675H15.25C15.4584 5.91675 15.6356 5.98964 15.7813 6.13542C15.9271 6.2812 16 6.45831 16 6.66675ZM8.5 1.58075C8.31778 1.58075 8.14444 1.61587 7.98 1.68609C7.81644 1.75631 7.67467 1.85275 7.55467 1.97542C7.43467 2.09764 7.33956 2.23964 7.26933 2.40142C7.19911 2.56275 7.164 2.73453 7.164 2.91675C7.164 3.09898 7.19911 3.27231 7.26933 3.43675C7.34 3.60031 7.43511 3.74209 7.55467 3.86209C7.67467 3.98209 7.81667 4.0772 7.98067 4.14742C8.14467 4.21764 8.31778 4.25275 8.5 4.25275C8.68222 4.25275 8.854 4.21764 9.01533 4.14742C9.17711 4.07675 9.31933 3.98164 9.442 3.86209C9.56378 3.74209 9.66 3.60009 9.73067 3.43609C9.80089 3.27209 9.836 3.09898 9.836 2.91675C9.836 2.73453 9.80089 2.56275 9.73067 2.40142C9.66 2.23964 9.56356 2.09742 9.44133 1.97475C9.31911 1.85253 9.17711 1.75631 9.01533 1.68609C8.854 1.61587 8.68222 1.58075 8.5 1.58075ZM4.62467 6.54142H6.12467V5.29209H1.876V6.54209H3.376V10.5421H4.626L4.62467 6.54142ZM11.5 11.4168V6.91675H8V11.2528C8 11.435 7.93489 11.5912 7.80467 11.7214C7.67444 11.8516 7.51822 11.9168 7.336 11.9168H5.53933C5.60689 12.2763 5.73044 12.6096 5.91 12.9168C6.09 13.2239 6.30889 13.4883 6.56667 13.7101C6.82444 13.931 7.11733 14.1041 7.44533 14.2294C7.77333 14.3543 8.12489 14.4168 8.5 14.4168C8.91156 14.4168 9.29956 14.3385 9.664 14.1821C10.0284 14.0261 10.3476 13.8114 10.6213 13.5381C10.8947 13.2643 11.1093 12.9465 11.2653 12.5848C11.4218 12.2225 11.5 11.8332 11.5 11.4168ZM15 10.3854V6.91675H12.5V11.4868C12.6356 11.6223 12.7891 11.7228 12.9607 11.7881C13.1327 11.853 13.3124 11.8854 13.5 11.8854C13.7084 11.8854 13.9038 11.8463 14.086 11.7681C14.2682 11.6903 14.4271 11.5836 14.5627 11.4481C14.6978 11.3125 14.8044 11.1536 14.8827 10.9714C14.9609 10.7892 15 10.5939 15 10.3854Z" fill="var(--fill-0, #7A7FD8)"/>
</g>
<defs>
<clipPath id="clip0_43062_58394">
<rect width="16" height="16" fill="white"/>
</clipPath>
</defs>
</svg>
