<svg width="40" height="40" viewBox="0 0 40 40" fill="none" xmlns="http://www.w3.org/2000/svg">
<path d="M20 0C31.0457 0 40 8.9543 40 20C40 31.0457 31.0457 40 20 40C8.9543 40 0 31.0457 0 20C0 8.9543 8.9543 0 20 0ZM28.4678 22.832C27.9862 22.5519 27.4239 22.4411 26.8721 22.5176C26.3204 22.5941 25.81 22.8535 25.4229 23.2539C25.0358 23.6542 24.7943 24.1728 24.7363 24.7266C24.6785 25.2806 24.8074 25.8387 25.1035 26.3105C23.931 27.4129 22.4332 28.1059 20.834 28.2861C19.2347 28.4664 17.62 28.1244 16.2314 27.3105C15.9134 27.787 15.4992 28.1919 15.0156 28.499C16.7583 29.6479 18.8441 30.1605 20.9209 29.9512C22.9976 29.7418 24.9386 28.8231 26.417 27.3496C26.6722 27.4426 26.9413 27.4933 27.2129 27.499C27.7637 27.4996 28.2991 27.3175 28.7363 26.9824C29.1735 26.6473 29.4883 26.1776 29.6309 25.6455C29.7734 25.1134 29.7365 24.5488 29.5254 24.04C29.3142 23.5314 28.9402 23.1068 28.4629 22.832H28.4678ZM15.8506 12.666C14.3443 13.4343 13.0784 14.6031 12.1934 16.0439C11.3084 17.4847 10.8383 19.1421 10.834 20.833C10.8357 21.6059 10.9356 22.3755 11.1318 23.123C10.6817 23.5114 10.383 24.0467 10.2891 24.6338C10.1952 25.2209 10.3125 25.8226 10.6191 26.332C10.9257 26.8414 11.4022 27.226 11.9648 27.418C12.5276 27.6099 13.1404 27.5968 13.6943 27.3809C14.2481 27.1649 14.7078 26.7602 14.9922 26.2383C15.2765 25.7161 15.3671 25.1098 15.248 24.5273C15.1289 23.945 14.8081 23.4233 14.3418 23.0547C13.8752 22.6861 13.2926 22.4938 12.6982 22.5127C12.5682 21.9623 12.5017 21.3986 12.5 20.833C12.5037 19.5136 12.8549 18.2181 13.5176 17.0771C14.1804 15.9362 15.132 14.9899 16.2764 14.333C16.0184 13.8137 15.8734 13.2454 15.8506 12.666ZM19.9238 9.95996C19.3291 9.97199 18.7575 10.1934 18.3105 10.5859C17.8637 10.9784 17.5702 11.5164 17.4814 12.1045C17.3928 12.6928 17.5147 13.2939 17.8262 13.8008C18.1377 14.3077 18.6187 14.6883 19.1836 14.875C19.7485 15.0617 20.3618 15.0428 20.9141 14.8213C21.4661 14.5997 21.9219 14.1893 22.2012 13.6641C23.7336 14.1374 25.0748 15.0892 26.0283 16.3789C26.9817 17.6685 27.4976 19.2292 27.501 20.833V20.8516C28.0763 20.8895 28.6376 21.0479 29.1484 21.3154C29.1576 21.1546 29.1689 20.9938 29.1689 20.833C29.1643 18.8307 28.5055 16.8845 27.293 15.291C26.0803 13.6975 24.3799 12.5441 22.4512 12.0059C22.339 11.4215 22.024 10.8949 21.5615 10.5205C21.0991 10.1462 20.5186 9.94805 19.9238 9.95996Z" fill="url(#paint0_linear_2159_686)"/>
<defs>
<linearGradient id="paint0_linear_2159_686" x1="20" y1="0" x2="20" y2="38.01" gradientUnits="userSpaceOnUse">
<stop stop-color="white"/>
<stop offset="1" stop-color="white" stop-opacity="0.6"/>
</linearGradient>
</defs>
</svg>
