<svg width="40" height="40" viewBox="0 0 40 40" fill="none" xmlns="http://www.w3.org/2000/svg">
<path d="M20 0C31.0457 0 40 8.9543 40 20C40 31.0457 31.0457 40 20 40C8.9543 40 0 31.0457 0 20C0 8.9543 8.9543 0 20 0ZM19.9951 10.834C17.6976 10.834 15.8281 12.7035 15.8281 15.001V17.5H14.1641C12.7857 17.5 11.6641 18.6217 11.6641 20V26.667C11.6642 28.0452 12.7858 29.167 14.1641 29.167H25.8311C27.2091 29.1668 28.3309 28.0451 28.3311 26.667V20C28.3311 18.6218 27.2092 17.5002 25.8311 17.5H24.1611V15.001C24.1611 12.7036 22.2925 10.8342 19.9951 10.834ZM19.9971 20.833C20.9162 20.833 21.6641 21.5808 21.6641 22.5C21.6641 23.114 21.3267 23.6453 20.8311 23.9346V25.833H19.1641V23.9346C18.6683 23.6454 18.3311 23.1141 18.3311 22.5C18.3311 21.5809 19.0781 20.8332 19.9971 20.833ZM19.9951 12.501C21.3733 12.5012 22.4951 13.6228 22.4951 15.001V17.5H17.4951V15.001C17.4951 13.6226 18.6168 12.501 19.9951 12.501Z" fill="url(#paint0_linear_2159_700)"/>
<defs>
<linearGradient id="paint0_linear_2159_700" x1="20" y1="0" x2="20" y2="40" gradientUnits="userSpaceOnUse">
<stop stop-color="white"/>
<stop offset="1" stop-color="white" stop-opacity="0.6"/>
</linearGradient>
</defs>
</svg>
