<svg width="40" height="40" viewBox="0 0 40 40" fill="none" xmlns="http://www.w3.org/2000/svg">
<path d="M20 0C31.0457 0 40 8.9543 40 20C40 31.0457 31.0457 40 20 40C8.9543 40 0 31.0457 0 20C0 8.9543 8.9543 0 20 0ZM17.5 15C17.1685 15 16.8506 15.1318 16.6162 15.3662C16.3818 15.6006 16.25 15.9185 16.25 16.25C16.25 17.5761 15.7228 18.8475 14.7852 19.7852C13.8475 20.7228 12.5761 21.25 11.25 21.25C10.9185 21.25 10.6006 21.3818 10.3662 21.6162C10.1318 21.8506 10 22.1685 10 22.5C10 22.8315 10.1318 23.1494 10.3662 23.3838C10.6006 23.6182 10.9185 23.75 11.25 23.75C12.5761 23.75 13.8475 24.2772 14.7852 25.2148C15.7228 26.1525 16.25 27.4239 16.25 28.75C16.25 29.0815 16.3818 29.3994 16.6162 29.6338C16.8506 29.8682 17.1685 30 17.5 30C17.8315 30 18.1494 29.8682 18.3838 29.6338C18.6182 29.3994 18.75 29.0815 18.75 28.75C18.75 27.4239 19.2772 26.1525 20.2148 25.2148C21.1525 24.2772 22.4239 23.75 23.75 23.75C24.0815 23.75 24.3994 23.6182 24.6338 23.3838C24.8682 23.1494 25 22.8315 25 22.5C25 22.1685 24.8682 21.8506 24.6338 21.6162C24.3994 21.3818 24.0815 21.25 23.75 21.25C22.4239 21.25 21.1525 20.7228 20.2148 19.7852C19.2772 18.8475 18.75 17.5761 18.75 16.25C18.75 15.9185 18.6182 15.6006 18.3838 15.3662C18.1494 15.1318 17.8315 15 17.5 15ZM26.25 10C26.0014 10 25.7627 10.0986 25.5869 10.2744C25.4111 10.4502 25.3125 10.6889 25.3125 10.9375C25.3125 11.4348 25.1153 11.912 24.7637 12.2637C24.412 12.6153 23.9348 12.8125 23.4375 12.8125C23.1889 12.8125 22.9502 12.9111 22.7744 13.0869C22.5986 13.2627 22.5 13.5014 22.5 13.75C22.5 13.9986 22.5986 14.2373 22.7744 14.4131C22.9502 14.5889 23.1889 14.6875 23.4375 14.6875C23.9348 14.6875 24.412 14.8847 24.7637 15.2363C25.1153 15.588 25.3125 16.0652 25.3125 16.5625C25.3125 16.8111 25.4111 17.0498 25.5869 17.2256C25.7627 17.4014 26.0014 17.5 26.25 17.5C26.4986 17.5 26.7373 17.4014 26.9131 17.2256C27.0889 17.0498 27.1875 16.8111 27.1875 16.5625C27.1875 16.0652 27.3847 15.588 27.7363 15.2363C28.088 14.8847 28.5652 14.6875 29.0625 14.6875C29.3111 14.6875 29.5498 14.5889 29.7256 14.4131C29.9014 14.2373 30 13.9986 30 13.75C30 13.5014 29.9014 13.2627 29.7256 13.0869C29.5498 12.9111 29.3111 12.8125 29.0625 12.8125C28.5652 12.8125 28.088 12.6153 27.7363 12.2637C27.3847 11.912 27.1875 11.4348 27.1875 10.9375C27.1875 10.6889 27.0889 10.4502 26.9131 10.2744C26.7373 10.0986 26.4986 10 26.25 10Z" fill="url(#paint0_linear_2159_714)"/>
<defs>
<linearGradient id="paint0_linear_2159_714" x1="20" y1="0" x2="20" y2="40" gradientUnits="userSpaceOnUse">
<stop stop-color="white"/>
<stop offset="1" stop-color="white" stop-opacity="0.6"/>
</linearGradient>
</defs>
</svg>
